<svg width="87" height="88" viewBox="0 0 87 88" fill="none" xmlns="http://www.w3.org/2000/svg">
<g filter="url(#filter0_d)">
<path d="M46.834 58.7164H34.6089V60.8405H46.834V58.7164Z" fill="white"/>
<path d="M55.7252 58.7164H53.5024V60.8405H55.7252V58.7164Z" fill="white"/>
<path d="M74.5542 32.7299H72.4597V21.3946H69.0615V19.2705H74.5542V32.7299Z" fill="white"/>
<path d="M74.5545 39.4919H72.46V41.7459H74.5545V39.4919Z" fill="white"/>
<path d="M26.8292 48.5731H24.6064V50.6972H26.8292V48.5731Z" fill="white"/>
<path d="M14.5403 25.9676H12.4458V19.2705H20.1614V21.3946H14.5403V25.9676Z" fill="white"/>
<path d="M61.2822 22.6514H41.2773V24.7754H61.2822V22.6514Z" fill="white"/>
<path d="M61.2822 31.6678H50.1685V33.7918H61.2822V31.6678Z" fill="white"/>
<path d="M56.8365 13.6352H54.6138V15.7592H56.8365V13.6352Z" fill="white"/>
<path d="M79 66.4755V14.7622H66.7747V8H51.2796V10.124H64.6802V39.5569H54.18L48.9928 44.817V39.5569H37.879V10.124H47.9455V8H35.7845V14.7622H8V66.4755H32.1563L30.4571 73.3678H26.0116L24.3766 80H62.6232L60.9882 73.3678H56.5428L54.8435 66.4755H79ZM10.0945 64.3515V55.2052H55.7251V53.0812H36.7677V50.7622C36.7677 46.0964 33.9402 42.0891 29.9322 40.4058C32.0383 39.0073 33.4336 36.5948 33.4336 33.8568C33.4336 29.5424 29.9724 26.0325 25.718 26.0325C21.4636 26.0325 18.0024 29.5424 18.0024 33.8568C18.0024 36.5948 19.3975 39.0073 21.5038 40.4058C17.4958 42.0891 14.6683 46.0964 14.6683 50.7622V53.0812H10.0945V16.8863H35.7845V41.681H46.8983V49.945L55.0475 41.681H66.7747V16.8863H76.9055V53.0812H59.0593V55.2052H76.9055V64.3515H10.0945V64.3515ZM20.0969 33.8568C20.0969 30.7138 22.6186 28.1566 25.718 28.1566C28.8173 28.1566 31.339 30.7138 31.339 33.8568C31.339 36.9998 28.8173 39.557 25.718 39.557C22.6186 39.557 20.0969 36.9998 20.0969 33.8568ZM34.6731 53.0812H16.7629V50.7622C16.7629 45.7548 20.7802 41.6809 25.718 41.6809C30.6558 41.6809 34.6731 45.7548 34.6731 50.7622V53.0812ZM59.3531 75.4918L59.9408 77.876H27.0593L27.6471 75.4918H41.2773V73.3678H32.6163L34.3152 66.4755H52.6848L54.3837 73.3678H44.6113V75.4918H59.3531Z" fill="white"/>
<path d="M51.2794 58.7164H49.0566V60.8405H51.2794V58.7164Z" fill="white"/>
<path d="M74.5545 34.9838H72.46V37.2379H74.5545V34.9838Z" fill="white"/>
<path d="M74.5545 44H72.46V46.254H74.5545V44Z" fill="white"/>
<path d="M26.8292 44.0649H24.6064V46.189H26.8292V44.0649Z" fill="white"/>
<path d="M61.2822 18.1432H41.2773V20.2673H61.2822V18.1432Z" fill="white"/>
<path d="M61.2822 27.1595H41.2773V29.2836H61.2822V27.1595Z" fill="white"/>
<path d="M61.2818 13.6352H59.0591V15.7592H61.2818V13.6352Z" fill="white"/>
<path d="M47.9454 31.6678H45.7227V33.7918H47.9454V31.6678Z" fill="white"/>
</g>
<defs>
<filter id="filter0_d" x="0" y="0" width="87" height="88" filterUnits="userSpaceOnUse" color-interpolation-filters="sRGB">
<feFlood flood-opacity="0" result="BackgroundImageFix"/>
<feColorMatrix in="SourceAlpha" type="matrix" values="0 0 0 0 0 0 0 0 0 0 0 0 0 0 0 0 0 0 127 0"/>
<feOffset/>
<feGaussianBlur stdDeviation="4"/>
<feColorMatrix type="matrix" values="0 0 0 0 1 0 0 0 0 1 0 0 0 0 1 0 0 0 1 0"/>
<feBlend mode="normal" in2="BackgroundImageFix" result="effect1_dropShadow"/>
<feBlend mode="normal" in="SourceGraphic" in2="effect1_dropShadow" result="shape"/>
</filter>
</defs>
</svg>
