<svg width="86" height="86" viewBox="0 0 86 86" fill="none" xmlns="http://www.w3.org/2000/svg">
<g filter="url(#filter0_d)">
<g clip-path="url(#clip0)">
<path d="M78 69.3034L67.6133 59.1284L62.5029 61.178L54.9889 53.8173C57.6805 50.8466 59.3223 46.9081 59.3223 42.5934C59.3223 33.3668 51.816 25.8605 42.5895 25.8605C38.5631 25.8605 34.6711 27.3159 31.6304 29.9589L32.9998 31.5343C35.6607 29.2216 39.0664 27.948 42.5895 27.948C50.665 27.948 57.2349 34.5178 57.2349 42.5934C57.2349 46.3405 55.8197 49.7628 53.4967 52.3555L48.6061 47.5646C49.7247 46.2132 50.3978 44.4803 50.3978 42.593C50.3978 38.2872 46.8949 34.7842 42.589 34.7842C38.2832 34.7842 34.7802 38.2872 34.7802 42.593C34.7802 46.8988 38.2832 50.4018 42.589 50.4018C44.2556 50.4018 45.8008 49.8752 47.0703 48.9822L51.9968 53.8083C49.4503 55.948 46.168 57.2388 42.5893 57.2388C34.5137 57.2388 27.9439 50.669 27.9439 42.5934C27.9439 39.0256 29.2477 35.5856 31.615 32.9073L30.0509 31.5249C27.346 34.585 25.8564 38.5158 25.8564 42.5934C25.8564 51.82 33.3627 59.3263 42.5893 59.3263C46.7512 59.3263 50.5629 57.7984 53.4938 55.2748L61.042 62.6692L59.098 67.8209L69.4845 77.9959L71.8311 71.7775L78 69.3034ZM64.1319 62.7737L67.126 61.5729L74.2547 68.5563L71.2606 69.7572C70.4123 68.9262 65.2686 63.8873 64.1319 62.7737ZM42.5892 48.3144C39.4345 48.3144 36.8678 45.7478 36.8678 42.593C36.8678 39.4382 39.4344 36.8716 42.5892 36.8716C45.744 36.8716 48.3106 39.4382 48.3106 42.593C48.3106 43.9122 47.8605 45.1275 47.1076 46.0964L43.3199 42.3859L41.8591 43.877L45.5464 47.4891C44.6829 48.0125 43.6706 48.3144 42.5892 48.3144ZM68.6608 74.2665L61.5321 67.283L62.6711 64.2649L69.7998 71.2483L68.6608 74.2665Z" fill="white"/>
<path d="M70.9722 58.4188L72.7941 59.4375C79.8106 46.8895 78.4185 30.7933 68.3864 19.5624L66.8296 20.953C76.2631 31.5141 77.5576 46.6415 70.9722 58.4188Z" fill="white"/>
<path d="M42.5896 75.0859C24.6307 75.0859 10.0952 60.5551 10.0952 42.5929C10.0952 24.633 24.6272 10.0985 42.5896 10.0985C51.2012 10.0985 59.3147 13.4321 65.4353 19.4854L66.9032 18.0011C53.3986 4.64527 31.6236 4.65181 18.136 18.1393C4.62251 31.6529 4.62015 53.5296 18.136 67.0452C29.5025 78.4114 46.4321 80.0098 59.3346 72.8536L58.3222 71.0282C53.536 73.6827 48.0957 75.0859 42.5896 75.0859Z" fill="white"/>
<path d="M60.8467 57.4823L62.46 58.8071C66.165 54.2949 68.2468 48.6079 68.2468 42.5933C68.2468 28.4458 56.737 16.936 42.5895 16.936C28.442 16.936 16.9321 28.4458 16.9321 42.5933C16.9321 56.7408 28.442 68.2507 42.5895 68.2507C48.4788 68.2507 54.0964 66.2647 58.7031 62.5472L57.3922 60.9228C53.1285 64.3632 47.962 66.1632 42.5895 66.1632C29.593 66.1632 19.0196 55.5898 19.0196 42.5933C19.0196 29.5968 29.593 19.0234 42.5895 19.0234C55.586 19.0234 66.1594 29.5968 66.1594 42.5933C66.1594 48.2429 64.1651 53.4413 60.8467 57.4823Z" fill="white"/>
<path d="M41.5552 12.4893H43.6426V14.5768H41.5552V12.4893Z" fill="white"/>
<path d="M41.5552 70.6097H43.6426V72.6972H41.5552V70.6097Z" fill="white"/>
<path d="M70.6064 41.559H72.6939V43.6464H70.6064V41.559Z" fill="white"/>
<path d="M12.4858 41.559H14.5733V43.6464H12.4858V41.559Z" fill="white"/>
<path d="M55.3638 28.3521L56.8396 26.8762L58.3154 28.3521L56.8396 29.8279L55.3638 28.3521Z" fill="white"/>
<path d="M26.8618 56.848L28.3376 55.3721L29.8134 56.848L28.3376 58.3238L26.8618 56.848Z" fill="white"/>
<path d="M26.8521 28.349L28.3279 26.8732L29.8037 28.349L28.3279 29.8248L26.8521 28.349Z" fill="white"/>
</g>
</g>
<defs>
<filter id="filter0_d" x="0" y="0" width="86" height="86" filterUnits="userSpaceOnUse" color-interpolation-filters="sRGB">
<feFlood flood-opacity="0" result="BackgroundImageFix"/>
<feColorMatrix in="SourceAlpha" type="matrix" values="0 0 0 0 0 0 0 0 0 0 0 0 0 0 0 0 0 0 127 0"/>
<feOffset/>
<feGaussianBlur stdDeviation="4"/>
<feColorMatrix type="matrix" values="0 0 0 0 1 0 0 0 0 1 0 0 0 0 1 0 0 0 1 0"/>
<feBlend mode="normal" in2="BackgroundImageFix" result="effect1_dropShadow"/>
<feBlend mode="normal" in="SourceGraphic" in2="effect1_dropShadow" result="shape"/>
</filter>
<clipPath id="clip0">
<path d="M8 8H78V78H8V8Z" fill="white"/>
</clipPath>
</defs>
</svg>
