<svg width="1024" height="1543" fill="none" xmlns="http://www.w3.org/2000/svg"><g opacity=".2" stroke="#fff"><path d="M698.206 386.435v-.002a18.684 18.684 0 00-18.83-18.602c-3.287.026-6.51.92-9.341 2.589l-.003.002-798.843 478.787h-.002l-17.459 10.389-.001.001-26.227 15.708v-228.13l44.06-26.837h0l782.683-475.324 74.747-45.31h0l112.697-68.542h.002l45.704-27.537v986.119L698.206 878.645v-492.21z"/><path d="M937.16 7.228h.002l182.828 92.64h0l38.98 19.919V1390.18l-26.38-15.29-.25.43.25-.43-704.475-408.368v-.001l-101.594-58.749 7.957-5.04.004-.002 152.559-94.935 25.572 14.285.001.001 111.541 62.625h.001l272.438 153.684h.001a18.834 18.834 0 009.191 2.39c3.218 0 6.382-.82 9.191-2.39l.004-.01a18.51 18.51 0 009.342-16.01h0L924.612.817l12.548 6.41z"/><path d="M654.726 652.968l-.002.001-30.591 19.481-.003.001-111.687 72.15h-.001L289.5 887.602h-.001l-2.02 1.299-.002.001-5.746 3.736-.013.007a17.088 17.088 0 00-6.615 6.776 17.084 17.084 0 00-1.994 9.261 18.964 18.964 0 009.188 15.7l.006.004 816.287 474.164.02.01 3.45 2.15v.01h.01l36.16 20.9-20.41 10.69h0l-21.06 10.82h-.01l-190.802 99.3-166.139-99.28-.228.38.228-.38-75.902-45.31-782.25-467.389-.002-.002-10.532-6.204-.002-.001-26.553-15.875 26.555-15.877-.247-.414.248.414 790.007-473.283V648.93l-6.405 4.038z"/></g></svg>