<svg width="36" height="34" fill="none" xmlns="http://www.w3.org/2000/svg"><g filter="url(#filter0_d)" fill="#fff"><path d="M21.254 12.935l-.888-.888-.889.888.889.89.888-.89zm-1.777 1.778l-.889-.889-.888.889.888.889.889-.89z"/><path d="M24.048 8.364l-2.794 2.794.888.889 1.906-1.906 2.175 2.175-11.472 11.47-4.974-4.974 2.175-2.174 2.8 2.8 2.947-2.947-.889-.889-2.059 2.06-2.8-2.8L8 18.811l6.751 6.752L28 12.316l-3.952-3.952z"/></g><defs><filter id="filter0_d" x="0" y="-1" width="36" height="36" filterUnits="userSpaceOnUse" color-interpolation-filters="sRGB"><feFlood flood-opacity="0" result="BackgroundImageFix"/><feColorMatrix in="SourceAlpha" values="0 0 0 0 0 0 0 0 0 0 0 0 0 0 0 0 0 0 127 0"/><feOffset/><feGaussianBlur stdDeviation="4"/><feColorMatrix values="0 0 0 0 1 0 0 0 0 1 0 0 0 0 1 0 0 0 1 0"/><feBlend in2="BackgroundImageFix" result="effect1_dropShadow"/><feBlend in="SourceGraphic" in2="effect1_dropShadow" result="shape"/></filter></defs></svg>