<svg width="40" height="40" fill="none" xmlns="http://www.w3.org/2000/svg"><path d="M40 9.066L31.822.89l-1.777 1.777 6.4 6.4L25.513 20l10.934 10.934-5.512 5.512L20 25.512 9.066 36.446l-5.512-5.512L14.488 20 3.554 9.066l5.512-5.512L19.111 13.6l1.777-1.777L9.067 0 0 9.066 10.934 20 0 30.934 9.066 40 20 29.066 30.934 40 40 30.934 29.066 20 40 9.066z" fill="#fff"/><path d="M30.045 6.257L28.268 4.48 26.49 6.257l1.778 1.778 1.777-1.778zm-3.771 3.77L24.497 8.25l-1.777 1.777 1.777 1.778 1.777-1.778z" fill="#fff"/></svg>