<svg width="42" height="42" fill="none" xmlns="http://www.w3.org/2000/svg"><path d="M39.29 8.605V0H2.71v8.605A4.74 4.74 0 000 12.87v20.323a4.748 4.748 0 004.742 4.741h7.452v2.71h-2.71V42h23.032v-1.355h-2.71v-2.71h7.452A4.748 4.748 0 0042 33.194V12.87a4.74 4.74 0 00-2.71-4.266zM4.065 6.775h31.16V5.418H4.066V1.355h33.87v4.064h-1.354v1.355h1.354v23.032H4.066V6.774zm24.387 33.87H13.548v-2.71h14.904v2.71zm8.806-4.064H4.742a3.393 3.393 0 01-3.319-2.71h39.154a3.393 3.393 0 01-3.319 2.71zm3.387-4.065H1.355V12.871c0-1.08.519-2.074 1.355-2.703v20.993h36.58V10.168a3.387 3.387 0 011.355 2.703v19.645z" fill="#fff"/><path d="M6.774 2.71H5.42v1.355h1.355V2.71zm2.71 0H8.129v1.355h1.355V2.71zm2.71 0h-1.355v1.355h1.354V2.71zm14.903 6.774h-4.065V8.129h-4.064v1.355h-4.065V8.129H10.84v4.065h1.354v4.064H10.84v4.065h1.354v4.064H10.84v4.065h4.064v-1.355h4.065v1.355h4.064v-1.355h4.065v1.355h4.064v-4.065h-1.355v-4.064h1.355v-4.065h-1.355v-4.064h1.355V8.128h-4.064v1.355zm-6.774 0h1.354v1.355h-1.354V9.484zm-8.13 0h1.355v1.355h-1.354V9.484zm0 8.129h1.355v1.355h-1.354v-1.355zm1.355 9.484h-1.354v-1.355h1.354v1.355zm8.13 0h-1.355v-1.355h1.354v1.355zm8.128 0h-1.355v-1.355h1.355v1.355zm0-8.13h-1.355v-1.354h1.355v1.355zm-1.355-9.483h1.355v1.355h-1.355V9.484zm0 6.774h-1.354v4.065h1.354v4.064h-1.354v1.355h-4.065v-1.355h-4.064v1.355h-4.065v-1.355h-1.355v-4.064h1.355v-4.065h-1.355v-4.064h1.355v-1.355h4.065v1.354h4.064V10.84h4.065v1.354h1.354v4.065z" fill="#fff"/><path d="M16.258 23.032h11.12l-11.12-11.119v11.12zm1.355-7.848l6.494 6.493h-6.494v-6.493z" fill="#fff"/></svg>