<svg width="41" height="41" fill="none" xmlns="http://www.w3.org/2000/svg"><path d="M37.667 24.566l-8.697-8.697a.703.703 0 00-.966 0l-3.866 3.865a.684.684 0 000 .966l.483.483-1.305 1.306-1.047.208-1.997-1.997a.683.683 0 00-.483-.2h-2.616l-1.25-1.25a.683.683 0 000-.965l-3.864-3.867a.683.683 0 00-.967 0L3.36 22.15a.683.683 0 000 .966l3.865 3.865c.267.267.7.267.966 0l4.437 4.437a2.033 2.033 0 001.74 2.919 2.017 2.017 0 001.935 1.932 2.018 2.018 0 001.93 1.93 2.046 2.046 0 003.485 1.341l.726.727a2.043 2.043 0 003.494-1.342 2.015 2.015 0 001.931-1.931 2.021 2.021 0 001.934-1.934 2.041 2.041 0 001.343-3.485l-.723-.723 1.93-1.935.484.484c.267.267.7.267.966 0l3.866-3.865a.684.684 0 000-.967l-.003-.003zm-12.804 2.657c.267.267.267.7 0 .966a.698.698 0 01-.966 0l-2.9-2.898a.683.683 0 00-.966 0c-.8.801-2.1.801-2.9 0l-.964.966c.249.243.533.448.842.605l-3.499 3.502-2.418-2.416 6.081-6.081h2.333l5.357 5.356zM7.71 25.532l-2.901-2.9 6.765-6.764 2.9 2.899-6.764 6.765zm7.248-5.315l.965.966-5.8 5.798-.965-.966 5.8-5.798zm5.308 18.556a.673.673 0 01-.478-.197.683.683 0 01-.007-.956l.007-.008 1.404-1.404.527-.526-.964-.969-.529.529-1.41 1.404-.006.007a.683.683 0 01-.956-.974l1.934-1.933-.966-.966-1.933 1.933a.683.683 0 11-.966-.966l1.933-1.932-.966-.967-1.934 1.933a.699.699 0 01-.966 0 .684.684 0 010-.966l4.568-4.57a3.399 3.399 0 001.91-.553l2.463 2.464a2.1 2.1 0 002.9 0c.8-.8.8-2.098 0-2.9l-2.399-2.397 6.025 6.023-.205.205a2.028 2.028 0 00-2.566 1.866 2.02 2.02 0 00-1.934 1.95 1.981 1.981 0 00-1.93 1.914 2.027 2.027 0 00-1.868 2.56l-.205.205a.677.677 0 01-.483.19zm4.113.53a.699.699 0 01-.966 0l-.967-.968a.684.684 0 01.964-.965l.969.965a.684.684 0 010 .968zm1.932-1.933a.683.683 0 01-.966 0l-.966-.966a.683.683 0 11.965-.967l.967.966a.683.683 0 010 .967zm1.932-1.933a.698.698 0 01-.965 0l-.967-.966a.683.683 0 01.967-.967l.966.967a.684.684 0 010 .966zm1.934-1.933a.683.683 0 01-.967 0l-.966-.966a.684.684 0 11.967-.968l.964.968c.267.267.267.7 0 .966h.002zm.242-4.59l-5.798-5.798.965-.966 5.799 5.798-.966.966zm2.9-.966l-7.733-7.73 2.9-2.9 7.731 7.731-2.899 2.9zM7.49 38.95V28.017H6.122V38.95A2.05 2.05 0 008.173 41h8.883v-1.367H8.173a.683.683 0 01-.684-.683z" fill="#fff"/><path d="M33.456 38.95a.683.683 0 01-.683.683h-5.467V41h5.467a2.05 2.05 0 002.05-2.05v-8.2h-1.367v8.2zM7.49 2.05c0-.377.305-.683.683-.683h19.133V6.15a2.05 2.05 0 002.05 2.05h4.1v10.933h1.367V7.537a.683.683 0 00-.176-.456L28.497.227A.682.682 0 0027.99 0H8.173a2.05 2.05 0 00-2.05 2.05V16.4h1.366V2.05zm21.183 4.1V2.47l3.916 4.363h-3.233a.683.683 0 01-.683-.683z" fill="#fff"/><path d="M10.223 4.1h1.366v1.367h-1.366V4.1zm2.733 0h5.467v1.367h-5.467V4.1zm-2.733 2.733h8.2V8.2h-8.2V6.833zm0 4.1h2.733V12.3h-2.733v-1.367zm4.1 0h16.4V12.3h-16.4v-1.367zm1.367 4.1h10.25V16.4H15.69v-1.367z" fill="#fff"/></svg>