<svg width="43" height="44" fill="none" xmlns="http://www.w3.org/2000/svg"><path d="M41.337 24.681a2.696 2.696 0 00-1.625-1.272 2.633 2.633 0 00-2.03.267l-12.15 7.246a3.48 3.48 0 00-.99-2.42 3.324 3.324 0 00-2.37-1.002H8.743a.68.68 0 00-.162.02L6.699 28a2.076 2.076 0 00-.642-1.334 1.986 1.986 0 00-1.354-.542H3.36c-.534 0-1.047.217-1.425.604-.378.387-.59.911-.59 1.458v12.375c0 .547.212 1.072.59 1.459s.89.604 1.425.604h1.344c.5-.002.982-.194 1.35-.539.37-.345.6-.819.646-1.328l1.875.472c.052.013.106.02.16.02h9.232a3.3 3.3 0 001.691-.468l20.705-12.345a2.765 2.765 0 001.238-1.674 2.828 2.828 0 00-.263-2.082zM5.375 40.562c0 .183-.07.358-.197.487a.664.664 0 01-.475.2H3.36a.664.664 0 01-.475-.2.696.696 0 01-.196-.487V28.187c0-.182.07-.357.196-.486a.664.664 0 01.475-.201h1.344c.178 0 .35.072.475.201a.696.696 0 01.197.486v12.375zm34.31-13.312L18.98 39.594a1.98 1.98 0 01-1.014.28h-9.15l-2.097-.528v-9.933l2.106-.538h13.347c.356 0 .706.095 1.014.278.309.183.564.447.74.764a2.095 2.095 0 01-.025 2.075 2.18 2.18 0 01-.3.402 2.006 2.006 0 01-1.43.606h-6.718v1.375h6.719a3.256 3.256 0 001.58-.399c.485-.265.9-.65 1.204-1.12l13.4-7.99a1.302 1.302 0 011.009-.139 1.341 1.341 0 01.805.638c.176.317.224.692.133 1.044-.09.352-.312.654-.618.84zM2.016 22h28.218a.66.66 0 00.475-.201.696.696 0 00.197-.486v-5.86l1.94.794c.48.197 1.016.197 1.496 0l1.94-.794v1.735c0 .182.07.357.196.486a.664.664 0 00.475.201h4.031a.66.66 0 00.475-.201.696.696 0 00.197-.486V2.063a.696.696 0 00-.197-.487.664.664 0 00-.475-.201h-4.03a.664.664 0 00-.476.201.696.696 0 00-.197.486v.688h-14.11a.664.664 0 00-.474.201L19.207 5.5H2.015a.664.664 0 00-.475.201.696.696 0 00-.197.487v15.125c0 .182.07.357.197.486a.664.664 0 00.475.201zM37.625 2.75h2.688V16.5h-2.688V2.75zM22.45 4.125h13.831v9.847l-2.437.998a.653.653 0 01-.5 0l-2.86-1.17a.665.665 0 00-.25-.05h-6.047c-.356 0-.698-.145-.95-.403a1.391 1.391 0 01-.393-.972c0-.365.141-.714.393-.972s.594-.403.95-.403h8.735V9.625h-2.016V6.187a.696.696 0 00-.197-.486.664.664 0 00-.475-.201h-9.128l1.344-1.375zM2.688 6.875h26.875v2.75h-5.375c-.713 0-1.397.29-1.9.806a2.782 2.782 0 00-.788 1.944c0 .73.283 1.429.787 1.944a2.656 2.656 0 001.9.806h5.375v5.5H2.688V6.875z" fill="#fff"/><path d="M16.125 8.25a5.288 5.288 0 00-2.986.927 5.475 5.475 0 00-1.98 2.468 5.62 5.62 0 00-.306 3.178 5.54 5.54 0 001.471 2.816 5.338 5.338 0 002.752 1.505 5.262 5.262 0 003.106-.313 5.403 5.403 0 002.412-2.025c.59-.905.906-1.968.906-3.056a5.572 5.572 0 00-1.576-3.887 5.32 5.32 0 00-3.799-1.613zm0 9.625a3.966 3.966 0 01-2.24-.695 4.105 4.105 0 01-1.484-1.851 4.215 4.215 0 01-.23-2.384 4.16 4.16 0 011.104-2.112 4.004 4.004 0 012.063-1.129 3.946 3.946 0 012.33.235c.736.312 1.366.84 1.809 1.52a4.194 4.194 0 01-.503 5.207 3.99 3.99 0 01-2.849 1.209zM4.031 8.938v2.75h1.344V9.624h2.016V8.25H4.703a.664.664 0 00-.475.201.696.696 0 00-.197.486zm1.344 6.875H4.031v2.75c0 .182.071.357.197.486a.664.664 0 00.475.201h2.688v-1.375H5.375v-2.063zm21.5 2.062h-2.016v1.375h2.688a.664.664 0 00.475-.201.696.696 0 00.197-.486v-2.75h-1.344v2.062z" fill="#fff"/></svg>