<svg width="44" height="44" fill="none" xmlns="http://www.w3.org/2000/svg"><path d="M41.25.688H2.75A2.065 2.065 0 00.687 2.75v28.875c0 1.137.926 2.063 2.063 2.063h22.192l-2.807 8.42 4.442-2.664 2.563 4.27 1.797-7.191 1.798 7.192 2.563-4.271 4.442 2.665-2.807-8.422h4.317a2.065 2.065 0 002.063-2.062V2.75A2.065 2.065 0 0041.25.687zM2.75 2.063h38.5c.379 0 .688.308.688.687v3.438H2.062V2.75a.69.69 0 01.688-.688zM23.455 26.34a2.053 2.053 0 01-.767-1.59c0-.612.28-1.19.767-1.59l.383-.313-.175-.463a2.05 2.05 0 01.13-1.76 2.05 2.05 0 011.459-.992l.489-.08.079-.488a2.05 2.05 0 01.992-1.46 2.053 2.053 0 011.76-.13l.463.176.314-.383a2.052 2.052 0 011.588-.767c.612 0 1.191.28 1.59.767l.313.384.463-.175a2.048 2.048 0 011.76.13c.53.305.892.837.993 1.458l.079.49.489.078a2.05 2.05 0 011.459.993 2.05 2.05 0 01.13 1.76l-.176.463.384.313c.487.398.767.977.767 1.589s-.28 1.19-.768 1.59l-.383.313.175.463c.223.588.175 1.23-.13 1.76s-.837.891-1.459.992l-.489.08-.079.488a2.05 2.05 0 01-.992 1.46 2.051 2.051 0 01-1.76.13l-.463-.176-.314.383a2.052 2.052 0 01-1.589.767c-.611 0-1.19-.28-1.589-.767l-.313-.384-.463.175c-.59.223-1.23.176-1.76-.13a2.05 2.05 0 01-.993-1.458l-.079-.49-.489-.078a2.05 2.05 0 01-1.459-.993 2.05 2.05 0 01-.13-1.76l.176-.463-.383-.313zm5.155 13.82l-1.562-2.604-2.433 1.46 1.916-5.746c.655.27 1.376.34 2.076.178a3.41 3.41 0 001.48.804L28.61 40.16zm6.217-2.604l-1.562 2.604-1.477-5.908a3.419 3.419 0 001.48-.805 3.41 3.41 0 002.077-.178l1.915 5.746-2.433-1.46zm6.423-5.245h-4.594c.29-.349.515-.75.65-1.194a3.405 3.405 0 001.967-1.555c.435-.753.56-1.636.363-2.482a3.4 3.4 0 00.926-2.331 3.4 3.4 0 00-.926-2.33 3.404 3.404 0 00-.363-2.483 3.405 3.405 0 00-1.968-1.555 3.405 3.405 0 00-1.555-1.967 3.4 3.4 0 00-2.482-.363 3.4 3.4 0 00-2.33-.927 3.4 3.4 0 00-2.331.927 3.403 3.403 0 00-2.482.363 3.405 3.405 0 00-1.555 1.967 3.405 3.405 0 00-1.968 1.555 3.406 3.406 0 00-.363 2.482 3.4 3.4 0 00-.927 2.331 3.4 3.4 0 00.927 2.33 3.403 3.403 0 00.363 2.483 3.405 3.405 0 001.968 1.555c.135.443.36.845.65 1.195H2.75a.689.689 0 01-.688-.688V7.562h39.876v24.063a.689.689 0 01-.688.688z" fill="#fff"/><path d="M30.938 30.938a6.195 6.195 0 006.187-6.188 6.195 6.195 0 00-6.188-6.188 6.195 6.195 0 00-6.187 6.188 6.195 6.195 0 006.188 6.188zm0-11a4.818 4.818 0 014.812 4.812 4.818 4.818 0 01-4.813 4.813 4.818 4.818 0 01-4.812-4.813 4.818 4.818 0 014.813-4.813zm-22-16.5h1.374v1.374H8.938V3.438zm-5.5 0h1.374v1.374H3.438V3.438zm2.75 0h1.375v1.374H6.188V3.438zm-2.75 11h17.875v-5.5H3.438v5.5zm1.374-4.126h15.125v2.75H4.813v-2.75zm4.126 5.501h-5.5v4.124h5.5v-4.125zm-1.376 2.75h-2.75v-1.375h2.75v1.375zm2.751 1.375h11v-4.125h-11v4.124zm1.374-2.75h8.25v1.375h-8.25v-1.375zm-8.249 4.125h16.5v1.375h-16.5v-1.375zm0 2.75h16.5v1.375h-16.5v-1.375zm0 2.75h16.5v1.375h-16.5v-1.375zm0 2.75h8.25v1.375h-8.25v-1.375zm15.125 0h1.375v1.375h-1.375v-1.375zm-2.75 0h1.374v1.375h-1.375v-1.375zm-2.75 0h1.374v1.375h-1.374v-1.375zm26.125-17.875h1.374v1.374h-1.374v-1.374zm0-2.75h1.374v1.374h-1.374V8.938zm0 5.5h1.374v1.374h-1.374v-1.374zm0 2.75h1.374v1.375h-1.374v-1.375z" fill="#fff"/></svg>