<svg width="68" height="72" fill="none" xmlns="http://www.w3.org/2000/svg"><path d="M55.76 34.847V28.47H8.006v29.496H30.37v-2.108h-1.997v-7.021h3.133v-2.109h-3.133v-7.02h9.129v-9.13h7.02v4.493h2.109v-4.492h7.02v4.27h2.109zm-36.516 4.86h7.02v7.02h-7.02v-7.02zm9.129-9.13h7.02v7.021h-7.02v-7.02zm-9.13 0h7.021v7.021h-7.02v-7.02zm-9.128 0h7.02v7.021h-7.02v-7.02zm0 9.13h7.02v7.02h-7.02v-7.02zm7.02 16.15h-7.02v-7.021h7.02v7.02zm2.109 0v-7.021h7.02v7.02h-7.02z" fill="#fff"/><path d="M50.625 37.599c-9.485 0-17.201 7.716-17.201 17.2 0 4.324 1.611 8.457 4.537 11.638l1.552-1.428a15.042 15.042 0 01-3.98-10.21c0-8.321 6.77-15.091 15.092-15.091 8.321 0 15.092 6.77 15.092 15.091 0 8.322-6.77 15.092-15.092 15.092a15.09 15.09 0 01-9.685-3.52l-1.356 1.616A17.207 17.207 0 0050.624 72c9.485 0 17.201-7.716 17.201-17.2 0-9.485-7.716-17.201-17.2-17.201z" fill="#fff"/><path d="M49.504 43.156v13.732h9.862v-2.11h-7.753V43.157h-2.109z" fill="#fff"/><path d="M2.283 24.703h5.723v-2.109H2.283V6.867h4.591v5.242h8.465V6.867h5.386v5.242h8.465V6.868h5.387v5.243h8.464V6.866h5.386v5.242h8.465V6.867h4.591v15.727H10.115v2.109h51.368v13.59h2.11V4.758h-6.701V2.626L54.939 0H50.38l-1.953 2.626v2.132h-5.386V2.626L41.088 0h-4.559l-1.953 2.626v2.132H29.19V2.626L27.237 0h-4.558l-1.954 2.626v2.132H15.34V2.626L13.386 0H8.828L6.875 2.626v2.132h-6.7v58.738h31.573v-2.109H2.283V24.703zM51.44 2.109h2.439l.904 1.215V10h-4.247V3.324l.904-1.215zM36.685 3.324l.904-1.215h2.44l.903 1.215V10h-4.246V3.324zM23.738 2.11h2.439l.904 1.215V10h-4.247V3.324l.904-1.215zm-13.85 0h2.438l.904 1.215V10H8.983V3.324l.904-1.215z" fill="#fff"/><path d="M39.194 19.13h-2.11v-2.11h2.11v2.11zm-6.327 0H30.76v-2.11h2.108v2.11zm-6.326 0h-2.109v-2.11h2.109v2.11zm11.893 35.649h2.109v2.109h-2.109v-2.11zm11.151 10.213h2.108V67.1h-2.108v-2.108z" fill="#fff"/></svg>