<svg width="40" height="40" viewBox="0 0 40 40" fill="none" xmlns="http://www.w3.org/2000/svg">
<path d="M40 9.06623L31.8223 0.888526L30.0452 2.66558L36.4459 9.06623L25.5121 20L36.4459 30.9338L30.9338 36.4459L20 25.5121L9.06623 36.4459L3.5541 30.9338L14.4879 20L3.5541 9.06623L9.06623 3.5541L19.1115 13.5993L20.8885 11.8223L9.06623 0L0 9.06623L10.9338 20L0 30.9338L9.06623 40L20 29.0662L30.9338 40L40 30.9338L29.0662 20L40 9.06623Z" fill="white"/>
<path d="M30.0449 6.25728L28.2676 4.47998L26.4903 6.25728L28.2676 8.03459L30.0449 6.25728Z" fill="white"/>
<path d="M26.2744 10.0272L24.4971 8.24988L22.7198 10.0272L24.4971 11.8045L26.2744 10.0272Z" fill="white"/>
</svg>
