<svg width="20" height="20" viewBox="0 0 20 20" fill="none" xmlns="http://www.w3.org/2000/svg">
<g clip-path="url(#clip0)">
<path d="M18.2423 2.38281H1.75788C1.48729 2.38281 1.23397 2.44934 1.00479 2.55898L9.961 11.5152L11.9684 9.58602C11.9684 9.58602 11.9685 9.58582 11.9686 9.58574C11.9686 9.58566 11.9688 9.58559 11.9688 9.58559L18.9956 2.55914C18.7664 2.44941 18.5129 2.38281 18.2423 2.38281Z" fill="white"/>
<path d="M19.8241 3.3877L13.2115 9.99996L19.8238 16.6123C19.9335 16.3832 20 16.1298 20 15.8593V4.14051C20 3.87008 19.9336 3.6168 19.8241 3.3877Z" fill="white"/>
<path d="M0.176172 3.38721C0.0665234 3.61639 0 3.86971 0 4.14029V15.859C0 16.1295 0.0664453 16.3828 0.176016 16.6119L6.78863 9.99967L0.176172 3.38721Z" fill="white"/>
<path d="M12.3829 10.8287L10.3753 12.7581C10.2608 12.8726 10.1109 12.9298 9.96101 12.9298C9.81113 12.9298 9.66117 12.8726 9.54675 12.7581L7.61722 10.8286L1.00449 17.4409C1.2337 17.5506 1.48718 17.6172 1.75785 17.6172H18.2422C18.5128 17.6172 18.7661 17.5507 18.9953 17.4411L12.3829 10.8287Z" fill="white"/>
</g>
<defs>
<clipPath id="clip0">
<rect width="20" height="20" fill="white"/>
</clipPath>
</defs>
</svg>
