<svg width="19" height="23" viewBox="0 0 19 23" fill="none" xmlns="http://www.w3.org/2000/svg">
<path d="M9.5 0C14.2561 0 18.125 3.86935 18.125 8.625C18.125 14.988 10.1673 22.5508 9.82847 22.8699C9.73584 22.9565 9.61792 23 9.5 23C9.38208 23 9.26416 22.9565 9.17149 22.8699C8.83273 22.5508 0.875 14.988 0.875 8.625C0.875 3.86935 4.7439 0 9.5 0ZM9.5 13.4167C12.142 13.4167 14.2917 11.267 14.2917 8.625C14.2917 5.98301 12.1419 3.83332 9.5 3.83332C6.85805 3.83332 4.70832 5.98305 4.70832 8.625C4.70832 11.2669 6.85801 13.4167 9.5 13.4167Z" fill="white"/>
</svg>
