<svg width="73" height="88" fill="none" xmlns="http://www.w3.org/2000/svg"><g filter="url(#filter0_d)" fill="#fff"><path d="M22.604 80H8.016V8h42.076l14.147 14.147v11.711h-2.132V23.03L49.21 10.13H10.147v67.74h12.457V80zm41.635 0H25.985v-2.131h36.122v-40.63h2.132V80z"/><path d="M19.787 30.293l-3.57-3.57 1.506-1.508 2.064 2.064 6.571-6.571 1.507 1.507-8.078 8.078zm0 12.397l-3.57-3.571 1.506-1.507 2.064 2.064 6.571-6.572 1.507 1.507-8.078 8.079zm0 12.396l-3.57-3.57 1.506-1.508 2.064 2.064 6.571-6.572 1.507 1.508-8.078 8.078zm0 12.396l-3.57-3.57 1.506-1.508 2.064 2.064 6.571-6.571 1.507 1.506-8.078 8.079zM31.62 27.157h21.41v2.132H31.62v-2.132zm0-4.507h10.142v2.131H31.62V22.65zm0 16.904h21.41v2.13H31.62v-2.13zm0-4.508h10.142v2.132H31.62v-2.132zm0 16.904h21.41v2.131H31.62V51.95zm0-4.508h10.142v2.131H31.62v-2.13zm0 16.904h21.41v2.13H31.62v-2.13zm0-4.508h10.142v2.131H31.62v-2.131zM21.477 75.492h-8.954v-4.446h2.132v2.315h6.822v2.131zm2.254-2.131h2.254v2.131H23.73v-2.131zm4.508 0h2.254v2.131h-2.254v-2.131zM15.781 19.208H13.65v-6.7h12.335v2.131H15.78v4.569zm12.458-6.7h2.254v2.131h-2.254v-2.131zm4.508 0H35v2.131h-2.253v-2.131z"/></g><defs><filter id="filter0_d" x="-8" y="0" width="88" height="88" filterUnits="userSpaceOnUse" color-interpolation-filters="sRGB"><feFlood flood-opacity="0" result="BackgroundImageFix"/><feColorMatrix in="SourceAlpha" values="0 0 0 0 0 0 0 0 0 0 0 0 0 0 0 0 0 0 127 0"/><feOffset/><feGaussianBlur stdDeviation="4"/><feColorMatrix values="0 0 0 0 1 0 0 0 0 1 0 0 0 0 1 0 0 0 1 0"/><feBlend in2="BackgroundImageFix" result="effect1_dropShadow"/><feBlend in="SourceGraphic" in2="effect1_dropShadow" result="shape"/></filter></defs></svg>