<svg width="64" height="64" viewBox="0 0 64 64" fill="none" xmlns="http://www.w3.org/2000/svg">
<g filter="url(#filter0_d)">
<path d="M38.4792 30.9899L39.5839 29.8853L35.4488 25.7501L39.5839 21.6149L38.4792 20.5103L33.7917 25.1978C33.6453 25.3443 33.563 25.5429 33.563 25.7501C33.563 25.9573 33.6453 26.1559 33.7917 26.3024L38.4792 30.9899Z" fill="white"/>
<path d="M47.3962 30.9899L52.0837 26.3024C52.2302 26.1559 52.3124 25.9573 52.3124 25.7501C52.3124 25.5429 52.2302 25.3443 52.0837 25.1978L47.3962 20.5103L46.2915 21.6149L50.4267 25.7501L46.2915 29.8853L47.3962 30.9899Z" fill="white"/>
<path d="M23.4062 40.5938H25.75V39.0312H21.0625V37.4688H21.8438V35.9062H17.9375V33.5625H16.375V36.6875C16.375 36.8947 16.4573 37.0934 16.6038 37.2399C16.7503 37.3864 16.949 37.4688 17.1562 37.4688H19.5V39.8125C19.5 40.0197 19.5823 40.2184 19.7288 40.3649C19.8753 40.5114 20.074 40.5938 20.2812 40.5938H21.8438V44.5C21.8438 44.7072 21.9261 44.9059 22.0726 45.0524C22.2191 45.1989 22.4178 45.2812 22.625 45.2812H28.875V43.7188H23.4062V40.5938Z" fill="white"/>
<path d="M23.4062 28.0938H25.75V26.5312H21.0625V24.9688H21.8438V23.4062H17.9375V21.0625H16.375V24.1875C16.375 24.3947 16.4573 24.5934 16.6038 24.7399C16.7503 24.8864 16.949 24.9688 17.1562 24.9688H19.5V27.3125C19.5 27.5197 19.5823 27.7184 19.7288 27.8649C19.8753 28.0114 20.074 28.0938 20.2812 28.0938H21.8438V32C21.8438 32.2072 21.9261 32.4059 22.0726 32.5524C22.2191 32.6989 22.4178 32.7812 22.625 32.7812H28.875V31.2188H23.4062V28.0938Z" fill="white"/>
<path d="M20.2812 49.1875H21.8438V47.625H17.9375V45.2812H16.375V48.4062C16.375 48.6135 16.4573 48.8122 16.6038 48.9587C16.7503 49.1052 16.949 49.1875 17.1562 49.1875H18.7188V51.5312C18.7188 51.7385 18.8011 51.9372 18.9476 52.0837C19.0941 52.2302 19.2928 52.3125 19.5 52.3125H28.875V50.75H20.2812V49.1875Z" fill="white"/>
<path d="M54.6562 8.5625H9.34375C9.13655 8.5625 8.93784 8.64481 8.79132 8.79132C8.64481 8.93784 8.5625 9.13655 8.5625 9.34375V42.9375C8.5625 43.5591 8.80943 44.1552 9.24897 44.5948C9.68851 45.0343 10.2846 45.2812 10.9062 45.2812H13.25V53.0938C13.25 53.7154 13.4969 54.3115 13.9365 54.751C14.376 55.1906 14.9721 55.4375 15.5938 55.4375H29.6562C30.2779 55.4375 30.874 55.1906 31.3135 54.751C31.7531 54.3115 32 53.7154 32 53.0938V45.2812H53.0938C53.7154 45.2812 54.3115 45.0343 54.751 44.5948C55.1906 44.1552 55.4375 43.5591 55.4375 42.9375V9.34375C55.4375 9.13655 55.3552 8.93784 55.2087 8.79132C55.0622 8.64481 54.8634 8.5625 54.6562 8.5625ZM30.4375 53.0938C30.4375 53.3009 30.3552 53.4997 30.2087 53.6462C30.0622 53.7927 29.8635 53.875 29.6562 53.875H15.5938C15.3865 53.875 15.1878 53.7927 15.0413 53.6462C14.8948 53.4997 14.8125 53.3009 14.8125 53.0938V20.2812C14.8125 20.074 14.8948 19.8753 15.0413 19.7288C15.1878 19.5823 15.3865 19.5 15.5938 19.5H29.6562C29.8635 19.5 30.0622 19.5823 30.2087 19.7288C30.3552 19.8753 30.4375 20.074 30.4375 20.2812V53.0938ZM53.875 42.9375C53.875 43.1447 53.7927 43.3434 53.6462 43.4899C53.4997 43.6364 53.3009 43.7188 53.0938 43.7188H32V20.2812C32 19.6596 31.7531 19.0635 31.3135 18.624C30.874 18.1844 30.2779 17.9375 29.6562 17.9375H15.5938C14.9721 17.9375 14.376 18.1844 13.9365 18.624C13.4969 19.0635 13.25 19.6596 13.25 20.2812V43.7188H10.9062C10.699 43.7188 10.5003 43.6364 10.3538 43.4899C10.2073 43.3434 10.125 43.1447 10.125 42.9375V16.375H53.875V42.9375ZM53.875 14.8125H10.125V10.125H53.875V14.8125Z" fill="white"/>
<path d="M33.5625 40.5938H49.1875V42.1562H33.5625V40.5938Z" fill="white"/>
<path d="M50.75 40.5938H52.3125V42.1562H50.75V40.5938Z" fill="white"/>
<path d="M33.5625 37.4688H35.125V39.0312H33.5625V37.4688Z" fill="white"/>
<path d="M36.6875 37.4688H52.3125V39.0312H36.6875V37.4688Z" fill="white"/>
<path d="M33.5625 34.3438H49.1875V35.9062H33.5625V34.3438Z" fill="white"/>
<path d="M50.75 34.3438H52.3125V35.9062H50.75V34.3438Z" fill="white"/>
<path d="M11.6875 11.6875H13.25V13.25H11.6875V11.6875Z" fill="white"/>
<path d="M14.8125 11.6875H16.375V13.25H14.8125V11.6875Z" fill="white"/>
<path d="M17.9375 11.6875H19.5V13.25H17.9375V11.6875Z" fill="white"/>
<path d="M39.8555 31.7368L44.5413 19.2412L46.0038 19.7897L41.318 32.2853L39.8555 31.7368Z" fill="white"/>
</g>
<defs>
<filter id="filter0_d" x="-1" y="-1" width="66" height="66" filterUnits="userSpaceOnUse" color-interpolation-filters="sRGB">
<feFlood flood-opacity="0" result="BackgroundImageFix"/>
<feColorMatrix in="SourceAlpha" type="matrix" values="0 0 0 0 0 0 0 0 0 0 0 0 0 0 0 0 0 0 127 0"/>
<feOffset/>
<feGaussianBlur stdDeviation="4"/>
<feColorMatrix type="matrix" values="0 0 0 0 1 0 0 0 0 1 0 0 0 0 1 0 0 0 1 0"/>
<feBlend mode="normal" in2="BackgroundImageFix" result="effect1_dropShadow"/>
<feBlend mode="normal" in="SourceGraphic" in2="effect1_dropShadow" result="shape"/>
</filter>
</defs>
</svg>
