<svg width="48" height="48" viewBox="0 0 48 48" fill="none" xmlns="http://www.w3.org/2000/svg">
<path d="M10.1662 24.5524L11.2709 23.4477L7.13577 19.3126L11.2709 15.1774L10.1662 14.0728L5.47874 18.7603C5.33228 18.9068 5.25 19.1054 5.25 19.3126C5.25 19.5198 5.33228 19.7184 5.47874 19.8649L10.1662 24.5524Z" fill="white"/>
<path d="M37.8337 24.5524L42.5212 19.8649C42.6677 19.7184 42.7499 19.5198 42.7499 19.3126C42.7499 19.1054 42.6677 18.9068 42.5212 18.7603L37.8337 14.0728L36.729 15.1774L40.8642 19.3126L36.729 23.4477L37.8337 24.5524Z" fill="white"/>
<path d="M17.75 19.3125H22.4375C22.6447 19.3125 22.8434 19.2302 22.9899 19.0837C23.1364 18.9372 23.2188 18.7385 23.2188 18.5312V10.7188C23.2188 10.5115 23.1364 10.3128 22.9899 10.1663C22.8434 10.0198 22.6447 9.9375 22.4375 9.9375H17.75C17.5428 9.9375 17.3441 10.0198 17.1976 10.1663C17.0511 10.3128 16.9688 10.5115 16.9688 10.7188V18.5312C16.9688 18.7385 17.0511 18.9372 17.1976 19.0837C17.3441 19.2302 17.5428 19.3125 17.75 19.3125ZM18.5312 11.5H21.6562V17.75H18.5312V11.5Z" fill="white"/>
<path d="M17.75 28.6875H22.4375C22.6447 28.6875 22.8434 28.6052 22.9899 28.4587C23.1364 28.3122 23.2188 28.1135 23.2188 27.9062V21.6562C23.2188 21.449 23.1364 21.2503 22.9899 21.1038C22.8434 20.9573 22.6447 20.875 22.4375 20.875H17.75C17.5428 20.875 17.3441 20.9573 17.1976 21.1038C17.0511 21.2503 16.9688 21.449 16.9688 21.6562V27.9062C16.9688 28.1135 17.0511 28.3122 17.1976 28.4587C17.3441 28.6052 17.5428 28.6875 17.75 28.6875ZM18.5312 22.4375H21.6562V27.125H18.5312V22.4375Z" fill="white"/>
<path d="M25.5625 28.6875H30.25C30.4572 28.6875 30.6559 28.6052 30.8024 28.4587C30.9489 28.3122 31.0312 28.1135 31.0312 27.9062V10.7188C31.0312 10.5115 30.9489 10.3128 30.8024 10.1663C30.6559 10.0198 30.4572 9.9375 30.25 9.9375H25.5625C25.3553 9.9375 25.1566 10.0198 25.0101 10.1663C24.8636 10.3128 24.7812 10.5115 24.7812 10.7188V27.9062C24.7812 28.1135 24.8636 28.3122 25.0101 28.4587C25.1566 28.6052 25.3553 28.6875 25.5625 28.6875ZM26.3438 11.5H29.4688V27.125H26.3438V11.5Z" fill="white"/>
<path d="M24.7812 35.7188H23.2188V37.2812H24.7812V35.7188Z" fill="white"/>
<path d="M45.0938 9.9375H44.3125V6.8125C44.3125 6.63834 44.2543 6.46917 44.1471 6.33187C44.04 6.19457 43.89 6.09701 43.7211 6.05469L42.7125 5.80234L43.2477 4.90938C43.3372 4.76005 43.3743 4.58509 43.3531 4.41227C43.3319 4.23945 43.2535 4.07867 43.1305 3.95547L40.9195 1.74453C40.7963 1.62149 40.6356 1.54313 40.4627 1.5219C40.2899 1.50067 40.1149 1.53778 39.9656 1.62734L39.0727 2.1625L38.8203 1.15391C38.778 0.984964 38.6804 0.835007 38.5431 0.727856C38.4058 0.620705 38.2367 0.562505 38.0625 0.5625H34.9375C34.7633 0.562505 34.5942 0.620705 34.4569 0.727856C34.3196 0.835007 34.222 0.984964 34.1797 1.15391L33.9273 2.1625L33.0344 1.62734C32.8851 1.53778 32.7101 1.50067 32.5373 1.5219C32.3644 1.54313 32.2037 1.62149 32.0805 1.74453L29.8695 3.95547C29.7465 4.07867 29.6681 4.23945 29.6469 4.41227C29.6257 4.58509 29.6628 4.76005 29.7523 4.90938L30.2875 5.80234L29.2789 6.05469C29.11 6.09701 28.96 6.19457 28.8529 6.33187C28.7457 6.46917 28.6875 6.63834 28.6875 6.8125H19.3125C19.3125 6.63834 19.2543 6.46917 19.1471 6.33187C19.04 6.19457 18.89 6.09701 18.7211 6.05469L17.7125 5.80234L18.2477 4.90938C18.3372 4.76005 18.3743 4.58509 18.3531 4.41227C18.3319 4.23945 18.2535 4.07867 18.1305 3.95547L15.9195 1.74453C15.7963 1.62149 15.6356 1.54313 15.4627 1.5219C15.2899 1.50067 15.1149 1.53778 14.9656 1.62734L14.0727 2.1625L13.8203 1.15391C13.778 0.984964 13.6804 0.835007 13.5431 0.727856C13.4058 0.620705 13.2367 0.562505 13.0625 0.5625H9.9375C9.76334 0.562505 9.59417 0.620705 9.45687 0.727856C9.31957 0.835007 9.22201 0.984964 9.17969 1.15391L8.92734 2.1625L8.03438 1.62734C7.88505 1.53778 7.71009 1.50067 7.53727 1.5219C7.36445 1.54313 7.20367 1.62149 7.08047 1.74453L4.86953 3.95547C4.74649 4.07867 4.66813 4.23945 4.6469 4.41227C4.62567 4.58509 4.66278 4.76005 4.75234 4.90938L5.2875 5.80234L4.27891 6.05469C4.10996 6.09701 3.96001 6.19457 3.85286 6.33187C3.7457 6.46917 3.6875 6.63834 3.6875 6.8125V9.9375H2.90625C2.28465 9.9375 1.68851 10.1844 1.24897 10.624C0.80943 11.0635 0.5625 11.6596 0.5625 12.2812V37.2812C0.5625 37.9029 0.80943 38.499 1.24897 38.9385C1.68851 39.3781 2.28465 39.625 2.90625 39.625H18.3906L17.8695 42.75H16.9688C16.8475 42.75 16.7278 42.7782 16.6194 42.8325C16.5109 42.8867 16.4165 42.9655 16.3438 43.0625L14 46.1875C13.9129 46.3036 13.8599 46.4416 13.8469 46.5861C13.8339 46.7306 13.8613 46.8759 13.9262 47.0056C13.9911 47.1354 14.0909 47.2445 14.2143 47.3208C14.3377 47.3971 14.4799 47.4375 14.625 47.4375H33.375C33.5201 47.4375 33.6623 47.3971 33.7857 47.3208C33.9091 47.2445 34.0089 47.1354 34.0738 47.0056C34.1387 46.8759 34.1661 46.7306 34.1531 46.5861C34.1401 46.4416 34.0871 46.3036 34 46.1875L31.6562 43.0625C31.5835 42.9655 31.4891 42.8867 31.3806 42.8325C31.2722 42.7782 31.1525 42.75 31.0312 42.75H30.1305L29.6094 39.625H45.0938C45.7154 39.625 46.3115 39.3781 46.751 38.9385C47.1906 38.499 47.4375 37.9029 47.4375 37.2812V12.2812C47.4375 11.6596 47.1906 11.0635 46.751 10.624C46.3115 10.1844 45.7154 9.9375 45.0938 9.9375V9.9375ZM32.1703 5.90234L31.4055 4.62891L32.7539 3.28047L34.0273 4.04531C34.132 4.10817 34.25 4.14561 34.3717 4.15465C34.4935 4.16368 34.6157 4.14405 34.7285 4.09734C34.8413 4.05062 34.9415 3.97812 35.0213 3.88564C35.101 3.79317 35.1579 3.6833 35.1875 3.56484L35.5477 2.125H37.4523L37.8125 3.56484C37.8421 3.6833 37.899 3.79317 37.9787 3.88564C38.0585 3.97812 38.1587 4.05062 38.2715 4.09734C38.3843 4.14405 38.5065 4.16368 38.6283 4.15465C38.75 4.14561 38.868 4.10817 38.9727 4.04531L40.2461 3.28047L41.5945 4.62891L40.8297 5.90234C40.7668 6.00702 40.7294 6.12496 40.7204 6.24672C40.7113 6.36848 40.7309 6.49066 40.7777 6.60346C40.8244 6.71626 40.8969 6.81654 40.9894 6.89626C41.0818 6.97598 41.1917 7.03292 41.3102 7.0625L42.75 7.42266V9.32734L41.3102 9.6875C41.1605 9.72991 41.0275 9.81716 40.9289 9.9375H39.1906C39.4718 9.46457 39.6218 8.9252 39.625 8.375C39.6272 7.67736 39.395 6.99919 38.9659 6.44918C38.5367 5.89917 37.9353 5.50916 37.2581 5.34165C36.5808 5.17415 35.867 5.23884 35.2309 5.52537C34.5948 5.8119 34.0733 6.30367 33.75 6.92188C33.6367 6.85331 33.5074 6.8156 33.375 6.8125H32.0711C32.1328 6.75198 32.1837 6.68145 32.2219 6.60391C32.2687 6.49108 32.2885 6.36884 32.2795 6.24699C32.2706 6.12515 32.2332 6.00711 32.1703 5.90234ZM34.9375 8.375C34.9375 8.06597 35.0291 7.76387 35.2008 7.50692C35.3725 7.24997 35.6165 7.0497 35.9021 6.93144C36.1876 6.81318 36.5017 6.78223 36.8048 6.84252C37.1079 6.90281 37.3863 7.05163 37.6049 7.27015C37.8234 7.48867 37.9722 7.76708 38.0325 8.07017C38.0928 8.37327 38.0618 8.68743 37.9436 8.97294C37.8253 9.25845 37.625 9.50248 37.3681 9.67417C37.1111 9.84586 36.809 9.9375 36.5 9.9375C36.0856 9.9375 35.6882 9.77288 35.3951 9.47985C35.1021 9.18683 34.9375 8.7894 34.9375 8.375ZM32.5938 8.375V30.25H15.4062V8.375H32.5938ZM6.68984 9.6875L5.25 9.32734V7.42266L6.68984 7.0625C6.8083 7.03292 6.91817 6.97598 7.01064 6.89626C7.10312 6.81654 7.17562 6.71626 7.22234 6.60346C7.26905 6.49066 7.28868 6.36848 7.27965 6.24672C7.27061 6.12496 7.23317 6.00702 7.17031 5.90234L6.40547 4.62891L7.75391 3.28047L9.02734 4.04531C9.13202 4.10817 9.24996 4.14561 9.37172 4.15465C9.49348 4.16368 9.61566 4.14405 9.72846 4.09734C9.84126 4.05062 9.94154 3.97812 10.0213 3.88564C10.101 3.79317 10.1579 3.6833 10.1875 3.56484L10.5477 2.125H12.4523L12.8125 3.56484C12.8421 3.6833 12.899 3.79317 12.9787 3.88564C13.0585 3.97812 13.1587 4.05062 13.2715 4.09734C13.3843 4.14405 13.5065 4.16368 13.6283 4.15465C13.75 4.14561 13.868 4.10817 13.9727 4.04531L15.2461 3.28047L16.5945 4.62891L15.8297 5.90234C15.7666 6.0073 15.729 6.12562 15.7201 6.24776C15.7111 6.3699 15.731 6.49243 15.7781 6.60547C15.8163 6.68301 15.8672 6.75354 15.9289 6.81406H14.625C14.4926 6.81716 14.3633 6.85487 14.25 6.92344C14.0603 6.5513 13.7977 6.22116 13.4777 5.95269C13.1577 5.68421 12.787 5.48291 12.3876 5.36076C11.9881 5.23862 11.5682 5.19814 11.1528 5.24174C10.7374 5.28533 10.335 5.41211 9.96968 5.61452C9.60431 5.81693 9.28344 6.09082 9.02618 6.41988C8.76892 6.74893 8.58053 7.12641 8.47226 7.52981C8.36398 7.93322 8.33803 8.35429 8.39595 8.76794C8.45387 9.18159 8.59447 9.57935 8.80937 9.9375H7.07109C6.97255 9.81716 6.83949 9.72991 6.68984 9.6875V9.6875ZM9.9375 8.375C9.9375 8.06597 10.0291 7.76387 10.2008 7.50692C10.3725 7.24997 10.6165 7.0497 10.9021 6.93144C11.1876 6.81318 11.5017 6.78223 11.8048 6.84252C12.1079 6.90281 12.3863 7.05163 12.6049 7.27015C12.8234 7.48867 12.9722 7.76708 13.0325 8.07017C13.0928 8.37327 13.0618 8.68743 12.9436 8.97294C12.8253 9.25845 12.625 9.50248 12.3681 9.67417C12.1111 9.84586 11.809 9.9375 11.5 9.9375C11.0856 9.9375 10.6882 9.77288 10.3951 9.47985C10.1021 9.18683 9.9375 8.7894 9.9375 8.375ZM2.90625 11.5H13.8438V31.0312C13.8438 31.2385 13.9261 31.4372 14.0726 31.5837C14.2191 31.7302 14.4178 31.8125 14.625 31.8125H33.375C33.5822 31.8125 33.7809 31.7302 33.9274 31.5837C34.0739 31.4372 34.1562 31.2385 34.1562 31.0312V11.5H45.0938C45.301 11.5 45.4997 11.5823 45.6462 11.7288C45.7927 11.8753 45.875 12.074 45.875 12.2812V33.375H2.125V12.2812C2.125 12.074 2.20731 11.8753 2.35382 11.7288C2.50034 11.5823 2.69905 11.5 2.90625 11.5ZM31.8125 45.875H16.1875L17.3594 44.3125H30.6406L31.8125 45.875ZM28.5469 42.75H19.4531L19.9742 39.625H28.0258L28.5469 42.75ZM45.0938 38.0625H2.90625C2.69905 38.0625 2.50034 37.9802 2.35382 37.8337C2.20731 37.6872 2.125 37.4885 2.125 37.2812V34.9375H45.875V37.2812C45.875 37.4885 45.7927 37.6872 45.6462 37.8337C45.4997 37.9802 45.301 38.0625 45.0938 38.0625Z" fill="white"/>
</svg>
