<svg width="50" height="50" viewBox="0 0 50 50" fill="none" xmlns="http://www.w3.org/2000/svg">
<path d="M40.625 11.7188H34.375C34.1678 11.7188 33.9691 11.8011 33.8226 11.9476C33.6761 12.0941 33.5938 12.2928 33.5938 12.5V13.2812H28.9062V12.5C28.9062 12.2928 28.8239 12.0941 28.6774 11.9476C28.5309 11.8011 28.3322 11.7188 28.125 11.7188H25.7812V8.59375H28.125C28.3322 8.59375 28.5309 8.51144 28.6774 8.36493C28.8239 8.21841 28.9062 8.0197 28.9062 7.8125V4.6875C28.9062 4.4803 28.8239 4.28159 28.6774 4.13507C28.5309 3.98856 28.3322 3.90625 28.125 3.90625H21.875C21.6678 3.90625 21.4691 3.98856 21.3226 4.13507C21.1761 4.28159 21.0938 4.4803 21.0938 4.6875V7.8125C21.0938 8.0197 21.1761 8.21841 21.3226 8.36493C21.4691 8.51144 21.6678 8.59375 21.875 8.59375H24.2188V11.7188H21.875C21.6678 11.7188 21.4691 11.8011 21.3226 11.9476C21.1761 12.0941 21.0938 12.2928 21.0938 12.5V13.2812H16.4062V12.5C16.4062 12.2928 16.3239 12.0941 16.1774 11.9476C16.0309 11.8011 15.8322 11.7188 15.625 11.7188H9.375C9.1678 11.7188 8.96909 11.8011 8.82257 11.9476C8.67606 12.0941 8.59375 12.2928 8.59375 12.5V15.625C8.59375 15.8322 8.67606 16.0309 8.82257 16.1774C8.96909 16.3239 9.1678 16.4062 9.375 16.4062H11.7188V19.5312H9.375C9.1678 19.5312 8.96909 19.6136 8.82257 19.7601C8.67606 19.9066 8.59375 20.1053 8.59375 20.3125V23.4375C8.59375 23.6447 8.67606 23.8434 8.82257 23.9899C8.96909 24.1364 9.1678 24.2188 9.375 24.2188H15.625C15.8322 24.2188 16.0309 24.1364 16.1774 23.9899C16.3239 23.8434 16.4062 23.6447 16.4062 23.4375V20.3125C16.4062 20.1053 16.3239 19.9066 16.1774 19.7601C16.0309 19.6136 15.8322 19.5312 15.625 19.5312H13.2812V16.4062H15.625C15.8322 16.4062 16.0309 16.3239 16.1774 16.1774C16.3239 16.0309 16.4062 15.8322 16.4062 15.625V14.8438H21.0938V15.625C21.0938 15.8322 21.1761 16.0309 21.3226 16.1774C21.4691 16.3239 21.6678 16.4062 21.875 16.4062H28.125C28.3322 16.4062 28.5309 16.3239 28.6774 16.1774C28.8239 16.0309 28.9062 15.8322 28.9062 15.625V14.8438H33.5938V15.625C33.5938 15.8322 33.6761 16.0309 33.8226 16.1774C33.9691 16.3239 34.1678 16.4062 34.375 16.4062H36.7188V19.5312H34.375C34.1678 19.5312 33.9691 19.6136 33.8226 19.7601C33.6761 19.9066 33.5938 20.1053 33.5938 20.3125V23.4375C33.5938 23.6447 33.6761 23.8434 33.8226 23.9899C33.9691 24.1364 34.1678 24.2188 34.375 24.2188H40.625C40.8322 24.2188 41.0309 24.1364 41.1774 23.9899C41.3239 23.8434 41.4062 23.6447 41.4062 23.4375V20.3125C41.4062 20.1053 41.3239 19.9066 41.1774 19.7601C41.0309 19.6136 40.8322 19.5312 40.625 19.5312H38.2812V16.4062H40.625C40.8322 16.4062 41.0309 16.3239 41.1774 16.1774C41.3239 16.0309 41.4062 15.8322 41.4062 15.625V12.5C41.4062 12.2928 41.3239 12.0941 41.1774 11.9476C41.0309 11.8011 40.8322 11.7188 40.625 11.7188ZM22.6562 5.46875H27.3438V7.03125H22.6562V5.46875ZM14.8438 22.6562H10.1562V21.0938H14.8438V22.6562ZM14.8438 14.8438H10.1562V13.2812H14.8438V14.8438ZM27.3438 14.8438H22.6562V13.2812H27.3438V14.8438ZM39.8438 22.6562H35.1562V21.0938H39.8438V22.6562ZM39.8438 14.8438H35.1562V13.2812H39.8438V14.8438Z" fill="white"/>
<path d="M46.0938 1.5625H3.90625C3.28465 1.5625 2.68851 1.80943 2.24897 2.24897C1.80943 2.68851 1.5625 3.28465 1.5625 3.90625V33.5938C1.5625 33.801 1.64481 33.9997 1.79132 34.1462C1.93784 34.2927 2.13655 34.375 2.34375 34.375H4.6875V35.1562C4.68755 35.3305 4.74586 35.4998 4.85316 35.6371C4.96047 35.7744 5.1106 35.8719 5.27969 35.9141L6.28906 36.1664L5.75312 37.0586C5.66347 37.2081 5.62638 37.3833 5.64775 37.5562C5.66913 37.7292 5.74774 37.8901 5.87109 38.0133L8.08047 40.2227C8.20358 40.3458 8.36431 40.4243 8.53713 40.4457C8.70996 40.4671 8.88497 40.4301 9.03438 40.3406L9.92734 39.8047L10.1797 40.8148C10.222 40.9838 10.3196 41.1337 10.4569 41.2409C10.5942 41.348 10.7633 41.4062 10.9375 41.4062H14.0625C14.2367 41.4062 14.4058 41.348 14.5431 41.2409C14.6804 41.1337 14.778 40.9838 14.8203 40.8148L15.0727 39.8047L15.9656 40.3406C16.115 40.4301 16.29 40.4671 16.4629 40.4457C16.6357 40.4243 16.7964 40.3458 16.9195 40.2227L19.1289 38.0133C19.2523 37.8901 19.3309 37.7292 19.3522 37.5562C19.3736 37.3833 19.3365 37.2081 19.2469 37.0586L18.7109 36.1664L19.7203 35.9141C19.8894 35.8719 20.0395 35.7744 20.1468 35.6371C20.2541 35.4998 20.3125 35.3305 20.3125 35.1562V34.375H22.6562V46.0938C22.6563 46.7154 22.9032 47.3115 23.3427 47.751C23.7823 48.1906 24.3784 48.4375 25 48.4375C25.6216 48.4375 26.2177 48.1906 26.6573 47.751C27.0968 47.3115 27.3438 46.7154 27.3438 46.0938V34.375H29.6875V35.1562C29.6875 35.3305 29.7459 35.4998 29.8532 35.6371C29.9605 35.7744 30.1106 35.8719 30.2797 35.9141L31.2891 36.1664L30.7531 37.0586C30.6635 37.2081 30.6264 37.3833 30.6478 37.5562C30.6691 37.7292 30.7477 37.8901 30.8711 38.0133L33.0805 40.2227C33.2036 40.3458 33.3643 40.4243 33.5371 40.4457C33.71 40.4671 33.885 40.4301 34.0344 40.3406L34.9273 39.8047L35.1797 40.8148C35.222 40.9838 35.3196 41.1337 35.4569 41.2409C35.5942 41.348 35.7633 41.4062 35.9375 41.4062H39.0625C39.2367 41.4062 39.4058 41.348 39.5431 41.2409C39.6804 41.1337 39.778 40.9838 39.8203 40.8148L40.0727 39.8047L40.9656 40.3406C41.115 40.4301 41.29 40.4671 41.4629 40.4457C41.6357 40.4243 41.7964 40.3458 41.9195 40.2227L44.1289 38.0133C44.2523 37.8901 44.3309 37.7292 44.3522 37.5562C44.3736 37.3833 44.3365 37.2081 44.2469 37.0586L43.7109 36.1664L44.7203 35.9141C44.8894 35.8719 45.0395 35.7744 45.1468 35.6371C45.2541 35.4998 45.3125 35.3305 45.3125 35.1562V34.375H47.6562C47.8635 34.375 48.0622 34.2927 48.2087 34.1462C48.3552 33.9997 48.4375 33.801 48.4375 33.5938V3.90625C48.4375 3.28465 48.1906 2.68851 47.751 2.24897C47.3115 1.80943 46.7154 1.5625 46.0938 1.5625V1.5625ZM18.75 34.5461L17.3094 34.9063C17.1909 34.9358 17.081 34.9928 16.9886 35.0725C16.8961 35.1522 16.8236 35.2525 16.7769 35.3653C16.7302 35.4781 16.7105 35.6003 16.7196 35.722C16.7286 35.8438 16.7661 35.9617 16.8289 36.0664L17.5938 37.3398L16.25 38.6867L14.9766 37.9227C14.8719 37.86 14.754 37.8226 14.6324 37.8137C14.5107 37.8047 14.3887 37.8244 14.276 37.8711C14.1633 37.9178 14.0631 37.9903 13.9834 38.0826C13.9037 38.175 13.8468 38.2848 13.8172 38.4031L13.4523 39.8438H11.5477L11.1867 38.4031C11.1571 38.2848 11.1002 38.175 11.0205 38.0826C10.9408 37.9903 10.8406 37.9178 10.728 37.8711C10.6153 37.8244 10.4932 37.8047 10.3715 37.8137C10.2499 37.8226 10.132 37.86 10.0273 37.9227L8.75391 38.6867L7.40625 37.3437L8.17109 36.0703C8.23395 35.9656 8.27139 35.8477 8.28043 35.7259C8.28946 35.6042 8.26984 35.482 8.22312 35.3692C8.1764 35.2564 8.1039 35.1561 8.01143 35.0764C7.91895 34.9967 7.80908 34.9397 7.69062 34.9102L6.25 34.5461V32.6414L7.69062 32.2812C7.80908 32.2517 7.91895 32.1947 8.01143 32.115C8.1039 32.0353 8.1764 31.935 8.22312 31.8222C8.26984 31.7094 8.28946 31.5872 8.28043 31.4655C8.27139 31.3437 8.23395 31.2258 8.17109 31.1211L7.40625 29.8477L8.75391 28.5008L10.0273 29.2648C10.132 29.3275 10.2499 29.3649 10.3715 29.3738C10.4932 29.3828 10.6153 29.3631 10.728 29.3164C10.8406 29.2697 10.9408 29.1972 11.0205 29.1049C11.1002 29.0125 11.1571 28.9027 11.1867 28.7844L11.5477 27.3438H13.4523L13.8133 28.7844C13.8429 28.9027 13.8998 29.0125 13.9795 29.1049C14.0592 29.1972 14.1594 29.2697 14.272 29.3164C14.3847 29.3631 14.5068 29.3828 14.6285 29.3738C14.7501 29.3649 14.868 29.3275 14.9727 29.2648L16.2461 28.5008L17.5938 29.8477L16.8289 31.1211C16.7661 31.2258 16.7286 31.3437 16.7196 31.4655C16.7105 31.5872 16.7302 31.7094 16.7769 31.8222C16.8236 31.935 16.8961 32.0353 16.9886 32.115C17.081 32.1947 17.1909 32.2517 17.3094 32.2812L18.75 32.6414V34.5461ZM23.8797 29.6875L22.0266 26.6L25 22.4383L27.9734 26.6L26.1203 29.6875H23.8797ZM27.3438 31.25V32.8125H22.6562V31.25H27.3438ZM25.7812 46.0938C25.7812 46.301 25.6989 46.4997 25.5524 46.6462C25.4059 46.7927 25.2072 46.875 25 46.875C24.7928 46.875 24.5941 46.7927 24.4476 46.6462C24.3011 46.4997 24.2188 46.301 24.2188 46.0938V34.375H25.7812V46.0938ZM43.75 34.5461L42.3094 34.9063C42.1909 34.9358 42.0811 34.9928 41.9886 35.0725C41.8961 35.1522 41.8236 35.2525 41.7769 35.3653C41.7302 35.4781 41.7105 35.6003 41.7196 35.722C41.7286 35.8438 41.7661 35.9617 41.8289 36.0664L42.5938 37.3398L41.25 38.6867L39.9766 37.9227C39.8719 37.86 39.754 37.8226 39.6324 37.8137C39.5107 37.8047 39.3886 37.8244 39.276 37.8711C39.1633 37.9178 39.0631 37.9903 38.9834 38.0826C38.9037 38.175 38.8468 38.2848 38.8172 38.4031L38.4523 39.8438H36.5477L36.1867 38.4031C36.1571 38.2848 36.1002 38.175 36.0205 38.0826C35.9408 37.9903 35.8406 37.9178 35.728 37.8711C35.6153 37.8244 35.4932 37.8047 35.3715 37.8137C35.2499 37.8226 35.132 37.86 35.0273 37.9227L33.7539 38.6867L32.4062 37.3437L33.1711 36.0703C33.2339 35.9656 33.2714 35.8477 33.2804 35.7259C33.2895 35.6042 33.2698 35.482 33.2231 35.3692C33.1764 35.2564 33.1039 35.1561 33.0114 35.0764C32.9189 34.9967 32.8091 34.9397 32.6906 34.9102L31.25 34.5461V32.6414L32.6906 32.2812C32.8091 32.2517 32.9189 32.1947 33.0114 32.115C33.1039 32.0353 33.1764 31.935 33.2231 31.8222C33.2698 31.7094 33.2895 31.5872 33.2804 31.4655C33.2714 31.3437 33.2339 31.2258 33.1711 31.1211L32.4062 29.8477L33.7539 28.5008L35.0273 29.2648C35.132 29.3275 35.2499 29.3649 35.3715 29.3738C35.4932 29.3828 35.6153 29.3631 35.728 29.3164C35.8406 29.2697 35.9408 29.1972 36.0205 29.1049C36.1002 29.0125 36.1571 28.9027 36.1867 28.7844L36.5477 27.3438H38.4523L38.8133 28.7844C38.8429 28.9027 38.8998 29.0125 38.9795 29.1049C39.0592 29.1972 39.1594 29.2697 39.272 29.3164C39.3847 29.3631 39.5068 29.3828 39.6285 29.3738C39.7501 29.3649 39.868 29.3275 39.9727 29.2648L41.2461 28.5008L42.5938 29.8477L41.8289 31.1211C41.7661 31.2258 41.7286 31.3437 41.7196 31.4655C41.7105 31.5872 41.7302 31.7094 41.7769 31.8222C41.8236 31.935 41.8961 32.0353 41.9886 32.115C42.0811 32.1947 42.1909 32.2517 42.3094 32.2812L43.75 32.6414V34.5461ZM46.875 32.8125H45.3125V32.0312C45.3125 31.857 45.2541 31.6877 45.1468 31.5504C45.0395 31.4131 44.8894 31.3156 44.7203 31.2734L43.7109 31.0211L44.2469 30.1289C44.3365 29.9794 44.3736 29.8042 44.3522 29.6313C44.3309 29.4583 44.2523 29.2974 44.1289 29.1742L41.9195 26.9648C41.7964 26.8417 41.6357 26.7632 41.4629 26.7418C41.29 26.7204 41.115 26.7574 40.9656 26.8469L40.0727 27.3828L39.8203 26.3727C39.778 26.2037 39.6804 26.0538 39.5431 25.9466C39.4058 25.8395 39.2367 25.7813 39.0625 25.7812H35.9375C35.7633 25.7813 35.5942 25.8395 35.4569 25.9466C35.3196 26.0538 35.222 26.2037 35.1797 26.3727L34.9273 27.3828L34.0344 26.8469C33.885 26.7574 33.71 26.7204 33.5371 26.7418C33.3643 26.7632 33.2036 26.8417 33.0805 26.9648L30.8711 29.1742C30.7477 29.2974 30.6691 29.4583 30.6478 29.6313C30.6264 29.8042 30.6635 29.9794 30.7531 30.1289L31.2891 31.0211L30.2797 31.2734C30.1106 31.3156 29.9605 31.4131 29.8532 31.5504C29.7459 31.6877 29.6875 31.857 29.6875 32.0312V32.8125H28.9062V30.4688C28.9062 30.2615 28.8239 30.0628 28.6774 29.9163C28.5309 29.7698 28.3322 29.6875 28.125 29.6875H27.9422L29.5758 26.9648C29.6548 26.8339 29.6936 26.6828 29.6875 26.53C29.6814 26.3772 29.6306 26.2296 29.5414 26.1055L25.6352 20.6367C25.5595 20.5407 25.463 20.463 25.353 20.4096C25.243 20.3563 25.1223 20.3285 25 20.3285C24.8777 20.3285 24.757 20.3563 24.647 20.4096C24.537 20.463 24.4405 20.5407 24.3648 20.6367L20.4586 26.1055C20.3694 26.2296 20.3186 26.3772 20.3125 26.53C20.3064 26.6828 20.3452 26.8339 20.4242 26.9648L22.0578 29.6875H21.875C21.6678 29.6875 21.4691 29.7698 21.3226 29.9163C21.1761 30.0628 21.0938 30.2615 21.0938 30.4688V32.8125H20.3125V32.0312C20.3125 31.857 20.2541 31.6877 20.1468 31.5504C20.0395 31.4131 19.8894 31.3156 19.7203 31.2734L18.7109 31.0211L19.2469 30.1289C19.3365 29.9794 19.3736 29.8042 19.3522 29.6313C19.3309 29.4583 19.2523 29.2974 19.1289 29.1742L16.9195 26.9648C16.7964 26.8417 16.6357 26.7632 16.4629 26.7418C16.29 26.7204 16.115 26.7574 15.9656 26.8469L15.0727 27.3828L14.8203 26.3727C14.778 26.2037 14.6804 26.0538 14.5431 25.9466C14.4058 25.8395 14.2367 25.7813 14.0625 25.7812H10.9375C10.7633 25.7813 10.5942 25.8395 10.4569 25.9466C10.3196 26.0538 10.222 26.2037 10.1797 26.3727L9.92734 27.3828L9.03438 26.8469C8.88497 26.7574 8.70996 26.7204 8.53713 26.7418C8.36431 26.7632 8.20358 26.8417 8.08047 26.9648L5.87109 29.1742C5.74774 29.2974 5.66913 29.4583 5.64775 29.6313C5.62638 29.8042 5.66347 29.9794 5.75312 30.1289L6.28906 31.0211L5.27969 31.2734C5.1106 31.3156 4.96047 31.4131 4.85316 31.5504C4.74586 31.6877 4.68755 31.857 4.6875 32.0312V32.8125H3.125V3.90625C3.125 3.69905 3.20731 3.50034 3.35382 3.35382C3.50034 3.20731 3.69905 3.125 3.90625 3.125H46.0938C46.301 3.125 46.4997 3.20731 46.6462 3.35382C46.7927 3.50034 46.875 3.69905 46.875 3.90625V32.8125Z" fill="white"/>
<path d="M37.5 30.4688C36.8819 30.4688 36.2777 30.652 35.7638 30.9954C35.2499 31.3388 34.8494 31.8268 34.6129 32.3979C34.3764 32.9689 34.3145 33.5972 34.435 34.2034C34.5556 34.8096 34.8533 35.3664 35.2903 35.8035C35.7273 36.2405 36.2842 36.5381 36.8903 36.6587C37.4965 36.7793 38.1249 36.7174 38.6959 36.4809C39.2669 36.2444 39.755 35.8438 40.0983 35.3299C40.4417 34.816 40.625 34.2118 40.625 33.5938C40.625 32.7649 40.2958 31.9701 39.7097 31.384C39.1237 30.798 38.3288 30.4688 37.5 30.4688ZM37.5 35.1563C37.191 35.1563 36.8889 35.0646 36.6319 34.8929C36.375 34.7212 36.1747 34.4772 36.0564 34.1917C35.9382 33.9062 35.9072 33.592 35.9675 33.2889C36.0278 32.9858 36.1766 32.7074 36.3951 32.4889C36.6137 32.2704 36.8921 32.1216 37.1952 32.0613C37.4983 32.001 37.8124 32.0319 38.0979 32.1502C38.3835 32.2685 38.6275 32.4687 38.7992 32.7257C38.9709 32.9826 39.0625 33.2847 39.0625 33.5938C39.0625 34.0082 38.8979 34.4056 38.6049 34.6986C38.3118 34.9916 37.9144 35.1563 37.5 35.1563Z" fill="white"/>
<path d="M12.5 30.4688C11.8819 30.4688 11.2777 30.652 10.7638 30.9954C10.2499 31.3388 9.8494 31.8268 9.61288 32.3979C9.37635 32.9689 9.31447 33.5972 9.43505 34.2034C9.55563 34.8096 9.85325 35.3664 10.2903 35.8035C10.7273 36.2405 11.2842 36.5381 11.8903 36.6587C12.4965 36.7793 13.1249 36.7174 13.6959 36.4809C14.2669 36.2444 14.755 35.8438 15.0983 35.3299C15.4417 34.816 15.625 34.2118 15.625 33.5938C15.625 32.7649 15.2958 31.9701 14.7097 31.384C14.1237 30.798 13.3288 30.4688 12.5 30.4688ZM12.5 35.1563C12.191 35.1563 11.8889 35.0646 11.6319 34.8929C11.375 34.7212 11.1747 34.4772 11.0564 34.1917C10.9382 33.9062 10.9072 33.592 10.9675 33.2889C11.0278 32.9858 11.1766 32.7074 11.3951 32.4889C11.6137 32.2704 11.8921 32.1216 12.1952 32.0613C12.4983 32.001 12.8124 32.0319 13.0979 32.1502C13.3835 32.2685 13.6275 32.4687 13.7992 32.7257C13.9709 32.9826 14.0625 33.2847 14.0625 33.5938C14.0625 34.0082 13.8979 34.4056 13.6049 34.6986C13.3118 34.9916 12.9144 35.1563 12.5 35.1563V35.1563Z" fill="white"/>
</svg>
