<svg width="50" height="50" viewBox="0 0 50 50" fill="none" xmlns="http://www.w3.org/2000/svg">
<path d="M47.6562 1.5625H33.5938C33.3865 1.5625 33.1878 1.64481 33.0413 1.79132C32.8948 1.93784 32.8125 2.13655 32.8125 2.34375V11.7188C32.8125 11.926 32.8948 12.1247 33.0413 12.2712C33.1878 12.4177 33.3865 12.5 33.5938 12.5H35.1562V14.8438C35.1562 14.9852 35.1946 15.124 35.2673 15.2453C35.34 15.3667 35.4442 15.466 35.5689 15.5327C35.6936 15.5994 35.8341 15.6311 35.9754 15.6242C36.1167 15.6173 36.2534 15.5722 36.3711 15.4938L40.8594 12.5H47.6562C47.8635 12.5 48.0622 12.4177 48.2087 12.2712C48.3552 12.1247 48.4375 11.926 48.4375 11.7188V2.34375C48.4375 2.13655 48.3552 1.93784 48.2087 1.79132C48.0622 1.64481 47.8635 1.5625 47.6562 1.5625V1.5625ZM46.875 10.9375H40.625C40.4707 10.9377 40.3199 10.9834 40.1914 11.0688L36.7188 13.3836V11.7188C36.7188 11.5115 36.6364 11.3128 36.4899 11.1663C36.3434 11.0198 36.1447 10.9375 35.9375 10.9375H34.375V3.125H46.875V10.9375Z" fill="white"/>
<path d="M43.75 4.6875H45.3125V6.25H43.75V4.6875Z" fill="white"/>
<path d="M39.0625 4.6875H42.1875V6.25H39.0625V4.6875Z" fill="white"/>
<path d="M35.9375 4.6875H37.5V6.25H35.9375V4.6875Z" fill="white"/>
<path d="M35.9375 7.8125H40.625V9.375H35.9375V7.8125Z" fill="white"/>
<path d="M32.7727 26.5625H32.8125C33.4341 26.5625 34.0302 26.3156 34.4698 25.876C34.9093 25.4365 35.1562 24.8404 35.1562 24.2187V23.4375C35.1561 22.9778 35.0208 22.5283 34.7672 22.1449C34.5135 21.7615 34.1527 21.4611 33.7297 21.2812L34.9273 20.0836C35.0739 19.9371 35.1562 19.7384 35.1562 19.5312V17.9687C35.154 16.1046 34.4125 14.3175 33.0943 12.9994C31.7762 11.6813 29.9891 10.9398 28.125 10.9375H21.875C20.0109 10.9398 18.2238 11.6813 16.9057 12.9994C15.5875 14.3175 14.846 16.1046 14.8438 17.9687V19.5312C14.8438 19.7384 14.9261 19.9371 15.0727 20.0836L16.2703 21.2812C15.8473 21.4611 15.4865 21.7615 15.2328 22.1449C14.9792 22.5283 14.8439 22.9778 14.8438 23.4375V24.2187C14.8438 24.8404 15.0907 25.4365 15.5302 25.876C15.9698 26.3156 16.5659 26.5625 17.1875 26.5625H17.2273C17.4208 28.4897 18.3233 30.2764 19.7596 31.5758C21.196 32.8752 23.0639 33.5947 25.0008 33.5947C26.9377 33.5947 28.8056 32.8752 30.2419 31.5758C31.6783 30.2764 32.5808 28.4897 32.7742 26.5625H32.7727ZM33.5938 24.2187C33.5938 24.4259 33.5114 24.6247 33.3649 24.7712C33.2184 24.9177 33.0197 25 32.8125 25V22.6562C33.0197 22.6562 33.2184 22.7386 33.3649 22.8851C33.5114 23.0316 33.5938 23.2303 33.5938 23.4375V24.2187ZM16.4062 17.9687C16.4079 16.5189 16.9846 15.1288 18.0098 14.1036C19.0351 13.0784 20.4251 12.5017 21.875 12.5H28.125C29.5749 12.5017 30.9649 13.0784 31.9902 14.1036C33.0154 15.1288 33.5921 16.5189 33.5938 17.9687V19.2078L32.8125 19.9891V19.5312C32.8125 19.3598 32.7562 19.1931 32.6521 19.0569C32.5481 18.9207 32.4021 18.8224 32.2367 18.7773L23.643 16.4336C23.4727 16.3878 23.2919 16.4005 23.1297 16.4695L17.6609 18.8133C17.5204 18.8735 17.4007 18.9736 17.3165 19.1013C17.2324 19.2289 17.1875 19.3784 17.1875 19.5312V19.9891L16.4062 19.2078V17.9687ZM16.4062 24.2187V23.4375C16.4062 23.2303 16.4886 23.0316 16.6351 22.8851C16.7816 22.7386 16.9803 22.6562 17.1875 22.6562V25C16.9803 25 16.7816 24.9177 16.6351 24.7712C16.4886 24.6247 16.4062 24.4259 16.4062 24.2187ZM25 32.0312C23.343 32.0294 21.7543 31.3703 20.5826 30.1986C19.4109 29.0269 18.7519 27.4383 18.75 25.7812V20.0461L23.4945 18.0148L31.25 20.1281V25.7812C31.2481 27.4383 30.5891 29.0269 29.4174 30.1986C28.2457 31.3703 26.657 32.0294 25 32.0312Z" fill="white"/>
<path d="M29.6875 33.5939H20.3125C19.2613 33.5935 18.2132 33.7096 17.1875 33.94V32.0314C17.1875 31.8242 17.1052 31.6255 16.9587 31.4789C16.8122 31.3324 16.6135 31.2501 16.4062 31.2501H14.8438V28.9064C14.8438 28.7649 14.8054 28.6261 14.7327 28.5048C14.66 28.3835 14.5558 28.2841 14.4311 28.2174C14.3064 28.1507 14.1659 28.1191 14.0246 28.1259C13.8833 28.1328 13.7466 28.1779 13.6289 28.2564L9.14062 31.2501H2.34375C2.13655 31.2501 1.93784 31.3324 1.79132 31.4789C1.64481 31.6255 1.5625 31.8242 1.5625 32.0314V41.4064C1.5625 41.6136 1.64481 41.8123 1.79132 41.9588C1.93784 42.1053 2.13655 42.1876 2.34375 42.1876H7.36172C6.62975 43.918 6.25175 45.7775 6.25 47.6564C6.25 47.8636 6.33231 48.0623 6.47882 48.2088C6.62534 48.3553 6.82405 48.4376 7.03125 48.4376H42.9688C43.176 48.4376 43.3747 48.3553 43.5212 48.2088C43.6677 48.0623 43.75 47.8636 43.75 47.6564C43.75 43.9268 42.2684 40.3499 39.6312 37.7127C36.994 35.0754 33.4171 33.5939 29.6875 33.5939V33.5939ZM28.75 35.1564L27.4492 42.1876H22.5523L21.25 35.1564H28.75ZM3.125 32.8126H9.375C9.52928 32.8124 9.68008 32.7667 9.80859 32.6814L13.2812 30.3665V32.0314C13.2812 32.2386 13.3636 32.4373 13.5101 32.5838C13.6566 32.7303 13.8553 32.8126 14.0625 32.8126H15.625V40.6251H3.125V32.8126ZM7.83594 46.8751C7.93492 45.2447 8.35998 43.6508 9.08594 42.1876H16.4062C16.6135 42.1876 16.8122 42.1053 16.9587 41.9588C17.1052 41.8123 17.1875 41.6136 17.1875 41.4064V35.5548C17.9995 35.3477 18.8302 35.222 19.6672 35.1798L21.1336 43.1111C21.1668 43.2906 21.2619 43.4529 21.4024 43.5696C21.5428 43.6864 21.7197 43.7502 21.9023 43.7501H28.0977C28.2803 43.7502 28.4572 43.6864 28.5976 43.5696C28.7381 43.4529 28.8332 43.2906 28.8664 43.1111L30.332 35.1876C33.3962 35.3399 36.2969 36.616 38.4795 38.7721C40.6621 40.9282 41.9736 43.813 42.1633 46.8751H7.83594Z" fill="white"/>
<path d="M42.1875 7.8125H45.3125V9.375H42.1875V7.8125Z" fill="white"/>
<path d="M2.34375 9.375H10.7031L15.1937 12.3687C15.3114 12.4466 15.4479 12.4912 15.5888 12.4977C15.7297 12.5043 15.8698 12.4725 15.9941 12.4059C16.1185 12.3392 16.2224 12.2401 16.295 12.1192C16.3675 11.9982 16.406 11.8598 16.4062 11.7188V9.375H17.9688C18.176 9.375 18.3747 9.29269 18.5212 9.14618C18.6677 8.99966 18.75 8.80095 18.75 8.59375V2.34375C18.75 2.13655 18.6677 1.93784 18.5212 1.79132C18.3747 1.64481 18.176 1.5625 17.9688 1.5625H2.34375C2.13655 1.5625 1.93784 1.64481 1.79132 1.79132C1.64481 1.93784 1.5625 2.13655 1.5625 2.34375V8.59375C1.5625 8.80095 1.64481 8.99966 1.79132 9.14618C1.93784 9.29269 2.13655 9.375 2.34375 9.375ZM3.125 3.125H17.1875V7.8125H15.625C15.4178 7.8125 15.2191 7.89481 15.0726 8.04132C14.9261 8.18784 14.8438 8.38655 14.8438 8.59375V10.2586L11.3711 7.94375C11.2426 7.85839 11.0918 7.81274 10.9375 7.8125H3.125V3.125Z" fill="white"/>
<path d="M4.6875 4.6875H7.8125V6.25H4.6875V4.6875Z" fill="white"/>
<path d="M9.375 4.6875H12.5V6.25H9.375V4.6875Z" fill="white"/>
<path d="M14.0625 4.6875H15.625V6.25H14.0625V4.6875Z" fill="white"/>
<path d="M4.6875 37.5H6.25V39.0625H4.6875V37.5Z" fill="white"/>
<path d="M7.8125 37.5H10.9375V39.0625H7.8125V37.5Z" fill="white"/>
<path d="M12.5 37.5H14.0625V39.0625H12.5V37.5Z" fill="white"/>
<path d="M9.375 34.375H14.0625V35.9375H9.375V34.375Z" fill="white"/>
<path d="M4.6875 34.375H7.8125V35.9375H4.6875V34.375Z" fill="white"/>
</svg>
