<svg width="50" height="50" viewBox="0 0 50 50" fill="none" xmlns="http://www.w3.org/2000/svg">
<path d="M7.8125 7.8125H10.9375V9.375H7.8125V7.8125Z" fill="white"/>
<path d="M4.6875 4.6875H10.9375V6.25H4.6875V4.6875Z" fill="white"/>
<path d="M1.5625 4.6875H3.125V6.25H1.5625V4.6875Z" fill="white"/>
<path d="M9.375 1.5625H10.9375V3.125H9.375V1.5625Z" fill="white"/>
<path d="M1.5625 1.5625H7.8125V3.125H1.5625V1.5625Z" fill="white"/>
<path d="M39.0625 7.8125H42.1875V9.375H39.0625V7.8125Z" fill="white"/>
<path d="M39.0625 4.6875H45.3125V6.25H39.0625V4.6875Z" fill="white"/>
<path d="M46.875 4.6875H48.4375V6.25H46.875V4.6875Z" fill="white"/>
<path d="M39.0625 1.5625H40.625V3.125H39.0625V1.5625Z" fill="white"/>
<path d="M42.1875 1.5625H48.4375V3.125H42.1875V1.5625Z" fill="white"/>
<path d="M26.5625 7.8125H29.6875V9.375H26.5625V7.8125Z" fill="white"/>
<path d="M20.3125 7.8125H25V9.375H20.3125V7.8125Z" fill="white"/>
<path d="M20.3125 4.6875H21.875V6.25H20.3125V4.6875Z" fill="white"/>
<path d="M28.125 1.5625H29.6875V3.125H28.125V1.5625Z" fill="white"/>
<path d="M20.3125 1.5625H26.5625V3.125H20.3125V1.5625Z" fill="white"/>
<path d="M8.59375 15.625H10.1562V17.1875H8.59375V15.625Z" fill="white"/>
<path d="M11.7188 15.625H13.2812V17.1875H11.7188V15.625Z" fill="white"/>
<path d="M14.8438 15.625H16.4062V17.1875H14.8438V15.625Z" fill="white"/>
<path d="M12.5 31.25H21.875V32.8125H12.5V31.25Z" fill="white"/>
<path d="M9.375 31.25H10.9375V32.8125H9.375V31.25Z" fill="white"/>
<path d="M17.1875 28.125H21.875V29.6875H17.1875V28.125Z" fill="white"/>
<path d="M9.375 28.125H15.625V29.6875H9.375V28.125Z" fill="white"/>
<path d="M12.5 37.5H21.875V39.0625H12.5V37.5Z" fill="white"/>
<path d="M9.375 37.5H10.9375V39.0625H9.375V37.5Z" fill="white"/>
<path d="M17.1875 34.375H21.875V35.9375H17.1875V34.375Z" fill="white"/>
<path d="M9.375 34.375H15.625V35.9375H9.375V34.375Z" fill="white"/>
<path d="M12.5 40.625H21.875V42.1875H12.5V40.625Z" fill="white"/>
<path d="M9.375 40.625H10.9375V42.1875H9.375V40.625Z" fill="white"/>
<path d="M21.875 21.875H25V23.4375H21.875V21.875Z" fill="white"/>
<path d="M12.5 21.875H20.3125V23.4375H12.5V21.875Z" fill="white"/>
<path d="M35.9375 25H37.5V26.5625H35.9375V25Z" fill="white"/>
<path d="M35.9375 37.5H37.5V39.0625H35.9375V37.5Z" fill="white"/>
<path d="M47.6562 7.8125H43.75V9.375H46.875V39.0625H43.75V14.8438C43.75 14.2221 43.5031 13.626 43.0635 13.1865C42.624 12.7469 42.0279 12.5 41.4062 12.5H34.375V5.46875C34.375 5.26155 34.2927 5.06284 34.1462 4.91632C33.9997 4.76981 33.801 4.6875 33.5938 4.6875H23.4375V6.25H32.8125V12.5H8.59375C7.97215 12.5 7.37601 12.7469 6.93647 13.1865C6.49693 13.626 6.25 14.2221 6.25 14.8438V34.375H3.125V9.375H6.25V7.8125H2.34375C2.13655 7.8125 1.93784 7.89481 1.79132 8.04132C1.64481 8.18784 1.5625 8.38655 1.5625 8.59375V35.1562C1.5625 35.3635 1.64481 35.5622 1.79132 35.7087C1.93784 35.8552 2.13655 35.9375 2.34375 35.9375H6.25V46.0938C6.25 46.7154 6.49693 47.3115 6.93647 47.751C7.37601 48.1906 7.97215 48.4375 8.59375 48.4375H41.4062C42.0279 48.4375 42.624 48.1906 43.0635 47.751C43.5031 47.3115 43.75 46.7154 43.75 46.0938V40.625H47.6562C47.8635 40.625 48.0622 40.5427 48.2087 40.3962C48.3552 40.2497 48.4375 40.051 48.4375 39.8438V8.59375C48.4375 8.38655 48.3552 8.18784 48.2087 8.04132C48.0622 7.89481 47.8635 7.8125 47.6562 7.8125ZM41.4062 14.0625C41.6135 14.0625 41.8122 14.1448 41.9587 14.2913C42.1052 14.4378 42.1875 14.6365 42.1875 14.8438V18.75H34.375V14.0625H41.4062ZM8.59375 14.0625H32.8125V18.75H7.8125V14.8438C7.8125 14.6365 7.89481 14.4378 8.04132 14.2913C8.18784 14.1448 8.38655 14.0625 8.59375 14.0625V14.0625ZM7.8125 26.5625H22.6562C22.8635 26.5625 23.0622 26.6448 23.2087 26.7913C23.3552 26.9378 23.4375 27.1365 23.4375 27.3438V42.9688C23.4375 43.176 23.3552 43.3747 23.2087 43.5212C23.0622 43.6677 22.8635 43.75 22.6562 43.75H7.8125V26.5625ZM42.1875 46.0938C42.1875 46.301 42.1052 46.4997 41.9587 46.6462C41.8122 46.7927 41.6135 46.875 41.4062 46.875H8.59375C8.38655 46.875 8.18784 46.7927 8.04132 46.6462C7.89481 46.4997 7.8125 46.301 7.8125 46.0938V45.3125H22.6562C23.2779 45.3125 23.874 45.0656 24.3135 44.626C24.7531 44.1865 25 43.5904 25 42.9688V27.3438C25 26.7221 24.7531 26.126 24.3135 25.6865C23.874 25.2469 23.2779 25 22.6562 25H7.8125V20.3125H32.8125V21.875H28.9062C28.2846 21.875 27.6885 22.1219 27.249 22.5615C26.8094 23.001 26.5625 23.5971 26.5625 24.2188V30.4688C26.5625 31.0904 26.8094 31.6865 27.249 32.126C27.6885 32.5656 28.2846 32.8125 28.9062 32.8125H38.2812C38.9029 32.8125 39.499 32.5656 39.9385 32.126C40.3781 31.6865 40.625 31.0904 40.625 30.4688V24.2188C40.625 23.5971 40.3781 23.001 39.9385 22.5615C39.499 22.1219 38.9029 21.875 38.2812 21.875H34.375V20.3125H42.1875V39.0625H40.625V36.7188C40.625 36.0971 40.3781 35.501 39.9385 35.0615C39.499 34.6219 38.9029 34.375 38.2812 34.375H28.9062C28.2846 34.375 27.6885 34.6219 27.249 35.0615C26.8094 35.501 26.5625 36.0971 26.5625 36.7188V42.9688C26.5625 43.5904 26.8094 44.1865 27.249 44.626C27.6885 45.0656 28.2846 45.3125 28.9062 45.3125H38.2812C38.9029 45.3125 39.499 45.0656 39.9385 44.626C40.3781 44.1865 40.625 43.5904 40.625 42.9688V40.625H42.1875V46.0938ZM38.2812 23.4375C38.4885 23.4375 38.6872 23.5198 38.8337 23.6663C38.9802 23.8128 39.0625 24.0115 39.0625 24.2188V30.4688C39.0625 30.676 38.9802 30.8747 38.8337 31.0212C38.6872 31.1677 38.4885 31.25 38.2812 31.25H28.9062C28.699 31.25 28.5003 31.1677 28.3538 31.0212C28.2073 30.8747 28.125 30.676 28.125 30.4688V24.2188C28.125 24.0115 28.2073 23.8128 28.3538 23.6663C28.5003 23.5198 28.699 23.4375 28.9062 23.4375H38.2812ZM39.0625 36.7188V42.9688C39.0625 43.176 38.9802 43.3747 38.8337 43.5212C38.6872 43.6677 38.4885 43.75 38.2812 43.75H28.9062C28.699 43.75 28.5003 43.6677 28.3538 43.5212C28.2073 43.3747 28.125 43.176 28.125 42.9688V36.7188C28.125 36.5115 28.2073 36.3128 28.3538 36.1663C28.5003 36.0198 28.699 35.9375 28.9062 35.9375H38.2812C38.4885 35.9375 38.6872 36.0198 38.8337 36.1663C38.9802 36.3128 39.0625 36.5115 39.0625 36.7188Z" fill="white"/>
<path d="M9.375 21.875H10.9375V23.4375H9.375V21.875Z" fill="white"/>
</svg>
