<svg width="50" height="50" viewBox="0 0 50 50" fill="none" xmlns="http://www.w3.org/2000/svg">
<path d="M46.0938 14.0625H29.6875V3.90625C29.6875 3.28465 29.4406 2.68851 29.001 2.24897C28.5615 1.80943 27.9654 1.5625 27.3438 1.5625H3.90625C3.28465 1.5625 2.68851 1.80943 2.24897 2.24897C1.80943 2.68851 1.5625 3.28465 1.5625 3.90625V46.0938C1.5625 46.7154 1.80943 47.3115 2.24897 47.751C2.68851 48.1906 3.28465 48.4375 3.90625 48.4375H27.3438C27.9654 48.4375 28.5615 48.1906 29.001 47.751C29.4406 47.3115 29.6875 46.7154 29.6875 46.0938V45.3125H46.0938C46.7154 45.3125 47.3115 45.0656 47.751 44.626C48.1906 44.1865 48.4375 43.5904 48.4375 42.9688V16.4062C48.4375 15.7846 48.1906 15.1885 47.751 14.749C47.3115 14.3094 46.7154 14.0625 46.0938 14.0625V14.0625ZM7.8125 3.125H23.4375V3.90625C23.4375 4.11345 23.3552 4.31216 23.2087 4.45868C23.0622 4.60519 22.8635 4.6875 22.6562 4.6875H8.59375C8.38655 4.6875 8.18784 4.60519 8.04132 4.45868C7.89481 4.31216 7.8125 4.11345 7.8125 3.90625V3.125ZM28.125 46.0938C28.125 46.301 28.0427 46.4997 27.8962 46.6462C27.7497 46.7927 27.551 46.875 27.3438 46.875H3.90625C3.69905 46.875 3.50034 46.7927 3.35382 46.6462C3.20731 46.4997 3.125 46.301 3.125 46.0938V3.90625C3.125 3.69905 3.20731 3.50034 3.35382 3.35382C3.50034 3.20731 3.69905 3.125 3.90625 3.125H6.25V3.90625C6.25 4.52785 6.49693 5.12399 6.93647 5.56353C7.37601 6.00307 7.97215 6.25 8.59375 6.25H22.6562C23.2779 6.25 23.874 6.00307 24.3135 5.56353C24.7531 5.12399 25 4.52785 25 3.90625V3.125H27.3438C27.551 3.125 27.7497 3.20731 27.8962 3.35382C28.0427 3.50034 28.125 3.69905 28.125 3.90625V14.0625H7.03125C6.40965 14.0625 5.81351 14.3094 5.37397 14.749C4.93443 15.1885 4.6875 15.7846 4.6875 16.4062V42.9688C4.6875 43.5904 4.93443 44.1865 5.37397 44.626C5.81351 45.0656 6.40965 45.3125 7.03125 45.3125H28.125V46.0938ZM16.932 38.5281L16.1359 37.4219C16.0271 37.271 15.9761 37.0861 15.9923 36.9008C16.0085 36.7154 16.0908 36.5421 16.2242 36.4125L17.6664 34.9711C17.796 34.8397 17.9682 34.7588 18.1521 34.7431C18.336 34.7273 18.5195 34.7777 18.6695 34.8852L19.7805 35.6828C20.1009 35.9138 20.4751 36.0588 20.8676 36.104C21.26 36.1491 21.6574 36.0929 22.0219 35.9406L22.3266 35.8164C22.7003 35.6705 23.0294 35.4294 23.2813 35.1171C23.5331 34.8048 23.699 34.4321 23.7625 34.0359L23.9891 32.6836C24.0207 32.5021 24.1149 32.3375 24.2554 32.2183C24.3958 32.0991 24.5736 32.0329 24.7578 32.0312H26.8047C26.9889 32.0329 27.1667 32.0991 27.3071 32.2183C27.4476 32.3375 27.5418 32.5021 27.5734 32.6836L27.7992 34.0305C27.8622 34.4275 28.028 34.8011 28.28 35.1143C28.532 35.4274 28.8616 35.6692 29.2359 35.8156L29.507 35.9266C29.8754 36.0855 30.2787 36.1465 30.6776 36.1035C31.0765 36.0605 31.4575 35.915 31.7836 35.6813L32.8906 34.8867C33.0415 34.7775 33.2266 34.7263 33.4122 34.7425C33.5977 34.7587 33.7712 34.8412 33.9008 34.975L35.3422 36.4156C35.474 36.545 35.5552 36.7172 35.571 36.9013C35.5867 37.0853 35.5361 37.2689 35.4281 37.4187L34.6289 38.5305C34.3987 38.8522 34.2545 39.2274 34.2101 39.6205C34.1656 40.0136 34.2224 40.4116 34.375 40.7766L34.4984 41.0773C34.6448 41.4508 34.886 41.7796 35.1983 42.0314C35.5105 42.2832 35.8829 42.4493 36.2789 42.5133L37.6312 42.7398C37.8127 42.7708 37.9774 42.8648 38.0963 43.0053C38.2152 43.1458 38.2807 43.3237 38.2812 43.5078V43.75H32.7664C32.5691 42.0357 31.7483 40.4538 30.4603 39.3054C29.1722 38.1571 27.5069 37.5225 25.7812 37.5225C24.0556 37.5225 22.3903 38.1571 21.1022 39.3054C19.8142 40.4538 18.9934 42.0357 18.7961 43.75H13.2812V43.5078C13.2819 43.3234 13.3477 43.1452 13.4671 43.0046C13.5865 42.8641 13.7517 42.7703 13.9336 42.7398L15.282 42.5133C15.6788 42.4497 16.0522 42.2837 16.3652 42.0315C16.6781 41.7794 16.9198 41.45 17.0664 41.0758L17.1773 40.8047C17.3353 40.4361 17.3957 40.033 17.3528 39.6343C17.3098 39.2356 17.1649 38.8546 16.932 38.5281V38.5281ZM31.1875 43.75H20.375C20.5618 42.4493 21.2113 41.2596 22.2043 40.399C23.1973 39.5384 24.4672 39.0647 25.7812 39.0647C27.0953 39.0647 28.3652 39.5384 29.3582 40.399C30.3512 41.2596 31.0007 42.4493 31.1875 43.75ZM46.875 42.9688C46.875 43.176 46.7927 43.3747 46.6462 43.5212C46.4997 43.6677 46.301 43.75 46.0938 43.75H39.8438V43.5078C39.8454 42.9537 39.6498 42.417 39.292 41.9939C38.9341 41.5708 38.4374 41.2888 37.8906 41.1984L36.5352 40.9711C36.4078 40.9531 36.2875 40.9017 36.1865 40.8221C36.0855 40.7425 36.0074 40.6376 35.9602 40.518L35.8219 40.1797C35.7693 40.0602 35.7489 39.9291 35.7626 39.7994C35.7763 39.6696 35.8237 39.5457 35.9 39.4398L36.6992 38.3289C37.024 37.8773 37.1767 37.3245 37.1297 36.7702C37.0827 36.2159 36.8392 35.6967 36.443 35.3063L35.0102 33.8734C34.6197 33.4753 34.0995 33.2303 33.5439 33.183C32.9883 33.1357 32.4341 33.2892 31.982 33.6156L30.8742 34.4109C30.7631 34.4905 30.6328 34.5389 30.4967 34.5513C30.3606 34.5637 30.2236 34.5395 30.1 34.4813L29.7961 34.357C29.6755 34.3094 29.5699 34.2306 29.4899 34.1285C29.41 34.0265 29.3587 33.905 29.3414 33.7766L29.1148 32.4258C29.0249 31.8784 28.743 31.3809 28.3197 31.0223C27.8965 30.6638 27.3594 30.4675 26.8047 30.4688H24.7578C24.2037 30.4674 23.6671 30.6631 23.2439 31.0208C22.8207 31.3786 22.5385 31.8752 22.4477 32.4219L22.2203 33.7789C22.2024 33.9064 22.1509 34.0268 22.0711 34.1278C21.9914 34.2288 21.8862 34.3069 21.7664 34.3539L21.4289 34.4922C21.3092 34.5438 21.178 34.5634 21.0484 34.5488C20.9188 34.5343 20.7952 34.4862 20.6898 34.4094L19.5789 33.6102C19.1276 33.2851 18.5748 33.1322 18.0206 33.1792C17.4663 33.2262 16.9472 33.47 16.557 33.8664L15.1227 35.3C14.7252 35.6906 14.4806 36.2106 14.4333 36.7659C14.386 37.3212 14.5391 37.8751 14.8648 38.3273L15.6609 39.4344C15.7402 39.5448 15.7887 39.6743 15.8015 39.8097C15.8143 39.9451 15.7908 40.0814 15.7336 40.2047L15.607 40.5133C15.5595 40.6338 15.4807 40.7395 15.3789 40.8195C15.277 40.8995 15.1557 40.9511 15.0273 40.9687L13.6766 41.1953C13.1284 41.2847 12.6302 41.5667 12.2713 41.9906C11.9124 42.4145 11.7165 42.9524 11.7188 43.5078V43.75H7.03125C6.82405 43.75 6.62534 43.6677 6.47882 43.5212C6.33231 43.3747 6.25 43.176 6.25 42.9688V16.4062C6.25 16.199 6.33231 16.0003 6.47882 15.8538C6.62534 15.7073 6.82405 15.625 7.03125 15.625H46.0938C46.301 15.625 46.4997 15.7073 46.6462 15.8538C46.7927 16.0003 46.875 16.199 46.875 16.4062V42.9688Z" fill="white"/>
<path d="M43.75 34.375H45.3125V35.9375H43.75V34.375Z" fill="white"/>
<path d="M43.75 37.5H45.3125V39.0625H43.75V37.5Z" fill="white"/>
<path d="M43.75 40.625H45.3125V42.1875H43.75V40.625Z" fill="white"/>
<path d="M7.8125 34.375H9.375V35.9375H7.8125V34.375Z" fill="white"/>
<path d="M7.8125 37.5H9.375V39.0625H7.8125V37.5Z" fill="white"/>
<path d="M7.8125 40.625H9.375V42.1875H7.8125V40.625Z" fill="white"/>
<path d="M44.7203 22.6797L43.7109 22.4273L44.2469 21.5352C44.3365 21.3857 44.3736 21.2105 44.3522 21.0375C44.3309 20.8645 44.2523 20.7036 44.1289 20.5805L41.9195 18.3711C41.7964 18.2479 41.6357 18.1694 41.4629 18.1481C41.29 18.1267 41.115 18.1637 40.9656 18.2531L40.0727 18.7891L39.8203 17.7789C39.778 17.61 39.6804 17.46 39.5431 17.3529C39.4058 17.2457 39.2367 17.1875 39.0625 17.1875H35.9375C35.7633 17.1875 35.5942 17.2457 35.4569 17.3529C35.3196 17.46 35.222 17.61 35.1797 17.7789L34.9273 18.7891L34.0344 18.2531C33.885 18.1637 33.71 18.1267 33.5371 18.1481C33.3643 18.1694 33.2036 18.2479 33.0805 18.3711L30.8711 20.5805C30.7477 20.7036 30.6691 20.8645 30.6478 21.0375C30.6264 21.2105 30.6635 21.3857 30.7531 21.5352L31.2891 22.4273L30.2797 22.6797C30.1106 22.7219 29.9605 22.8194 29.8532 22.9567C29.7459 23.094 29.6875 23.2632 29.6875 23.4375V26.5625C29.6875 26.7368 29.7459 26.906 29.8532 27.0433C29.9605 27.1806 30.1106 27.2781 30.2797 27.3203L31.2891 27.5727L30.7531 28.4648C30.6635 28.6143 30.6264 28.7895 30.6478 28.9625C30.6691 29.1355 30.7477 29.2964 30.8711 29.4195L33.0805 31.6289C33.2036 31.7521 33.3643 31.8306 33.5371 31.8519C33.71 31.8733 33.885 31.8363 34.0344 31.7469L34.9273 31.2109L35.1797 32.2211C35.222 32.39 35.3196 32.54 35.4569 32.6471C35.5942 32.7543 35.7633 32.8125 35.9375 32.8125H39.0625C39.2367 32.8125 39.4058 32.7543 39.5431 32.6471C39.6804 32.54 39.778 32.39 39.8203 32.2211L40.0727 31.2109L40.9656 31.7469C41.115 31.8363 41.29 31.8733 41.4629 31.8519C41.6357 31.8306 41.7964 31.7521 41.9195 31.6289L44.1289 29.4195C44.2523 29.2964 44.3309 29.1355 44.3522 28.9625C44.3736 28.7895 44.3365 28.6143 44.2469 28.4648L43.7109 27.5727L44.7203 27.3203C44.8894 27.2781 45.0395 27.1806 45.1468 27.0433C45.2541 26.906 45.3125 26.7368 45.3125 26.5625V23.4375C45.3125 23.2632 45.2541 23.094 45.1468 22.9567C45.0395 22.8194 44.8894 22.7219 44.7203 22.6797V22.6797ZM43.75 25.9523L42.3094 26.3125C42.1909 26.3421 42.0811 26.399 41.9886 26.4787C41.8961 26.5585 41.8236 26.6587 41.7769 26.7715C41.7302 26.8843 41.7105 27.0065 41.7196 27.1283C41.7286 27.25 41.7661 27.368 41.8289 27.4727L42.5938 28.7461L41.25 30.093L39.9766 29.3289C39.8719 29.2662 39.754 29.2289 39.6324 29.2199C39.5107 29.211 39.3886 29.2307 39.276 29.2774C39.1633 29.3241 39.0631 29.3965 38.9834 29.4889C38.9037 29.5813 38.8468 29.691 38.8172 29.8094L38.4523 31.25H36.5477L36.1867 29.8094C36.1571 29.691 36.1002 29.5813 36.0205 29.4889C35.9408 29.3965 35.8406 29.3241 35.728 29.2774C35.6153 29.2307 35.4932 29.211 35.3715 29.2199C35.2499 29.2289 35.132 29.2662 35.0273 29.3289L33.7539 30.093L32.4062 28.75L33.1711 27.4766C33.2339 27.3719 33.2714 27.2539 33.2804 27.1322C33.2895 27.0104 33.2698 26.8882 33.2231 26.7754C33.1764 26.6626 33.1039 26.5624 33.0114 26.4826C32.9189 26.4029 32.8091 26.346 32.6906 26.3164L31.25 25.9523V24.0477L32.6906 23.6875C32.8091 23.6579 32.9189 23.601 33.0114 23.5213C33.1039 23.4415 33.1764 23.3413 33.2231 23.2285C33.2698 23.1157 33.2895 22.9935 33.2804 22.8717C33.2714 22.75 33.2339 22.632 33.1711 22.5273L32.4062 21.2539L33.7539 19.907L35.0273 20.6711C35.132 20.7338 35.2499 20.7711 35.3715 20.7801C35.4932 20.789 35.6153 20.7693 35.728 20.7226C35.8406 20.6759 35.9408 20.6035 36.0205 20.5111C36.1002 20.4187 36.1571 20.309 36.1867 20.1906L36.5477 18.75H38.4523L38.8133 20.1906C38.8429 20.309 38.8998 20.4187 38.9795 20.5111C39.0592 20.6035 39.1594 20.6759 39.272 20.7226C39.3847 20.7693 39.5068 20.789 39.6285 20.7801C39.7501 20.7711 39.868 20.7338 39.9727 20.6711L41.2461 19.907L42.5938 21.2539L41.8289 22.5273C41.7661 22.632 41.7286 22.75 41.7196 22.8717C41.7105 22.9935 41.7302 23.1157 41.7769 23.2285C41.8236 23.3413 41.8961 23.4415 41.9886 23.5213C42.0811 23.601 42.1909 23.6579 42.3094 23.6875L43.75 24.0477V25.9523Z" fill="white"/>
<path d="M37.5 21.875C36.8819 21.875 36.2777 22.0583 35.7638 22.4017C35.2499 22.745 34.8494 23.2331 34.6129 23.8041C34.3764 24.3751 34.3145 25.0035 34.435 25.6097C34.5556 26.2158 34.8533 26.7727 35.2903 27.2097C35.7273 27.6467 36.2842 27.9444 36.8903 28.065C37.4965 28.1855 38.1249 28.1237 38.6959 27.8871C39.2669 27.6506 39.755 27.2501 40.0983 26.7362C40.4417 26.2223 40.625 25.6181 40.625 25C40.625 24.1712 40.2958 23.3763 39.7097 22.7903C39.1237 22.2042 38.3288 21.875 37.5 21.875ZM37.5 26.5625C37.191 26.5625 36.8889 26.4709 36.6319 26.2992C36.375 26.1275 36.1747 25.8835 36.0564 25.5979C35.9382 25.3124 35.9072 24.9983 35.9675 24.6952C36.0278 24.3921 36.1766 24.1137 36.3951 23.8951C36.6137 23.6766 36.8921 23.5278 37.1952 23.4675C37.4983 23.4072 37.8124 23.4382 38.0979 23.5564C38.3835 23.6747 38.6275 23.875 38.7992 24.1319C38.9709 24.3889 39.0625 24.691 39.0625 25C39.0625 25.4144 38.8979 25.8118 38.6049 26.1049C38.3118 26.3979 37.9144 26.5625 37.5 26.5625Z" fill="white"/>
<path d="M22.8453 22.6797L21.8359 22.4273L22.3719 21.5352C22.4615 21.3857 22.4986 21.2105 22.4772 21.0375C22.4559 20.8645 22.3773 20.7036 22.2539 20.5805L20.0445 18.3711C19.9214 18.2479 19.7607 18.1694 19.5879 18.1481C19.415 18.1267 19.24 18.1637 19.0906 18.2531L18.1977 18.7891L17.9453 17.7789C17.903 17.61 17.8054 17.46 17.6681 17.3529C17.5308 17.2457 17.3617 17.1875 17.1875 17.1875H14.0625C13.8883 17.1875 13.7192 17.2457 13.5819 17.3529C13.4446 17.46 13.347 17.61 13.3047 17.7789L13.0523 18.7891L12.1594 18.2531C12.01 18.1637 11.835 18.1267 11.6621 18.1481C11.4893 18.1694 11.3286 18.2479 11.2055 18.3711L8.99609 20.5805C8.87275 20.7036 8.79413 20.8645 8.77275 21.0375C8.75138 21.2105 8.78847 21.3857 8.87813 21.5352L9.41406 22.4273L8.40469 22.6797C8.2356 22.7219 8.08547 22.8194 7.97816 22.9567C7.87086 23.094 7.81255 23.2632 7.8125 23.4375V26.5625C7.81255 26.7368 7.87086 26.906 7.97816 27.0433C8.08547 27.1806 8.2356 27.2781 8.40469 27.3203L9.41406 27.5727L8.87813 28.4648C8.78847 28.6143 8.75138 28.7895 8.77275 28.9625C8.79413 29.1355 8.87275 29.2964 8.99609 29.4195L11.2055 31.6289C11.3286 31.7521 11.4893 31.8306 11.6621 31.8519C11.835 31.8733 12.01 31.8363 12.1594 31.7469L13.0523 31.2109L13.3047 32.2211C13.347 32.39 13.4446 32.54 13.5819 32.6471C13.7192 32.7543 13.8883 32.8125 14.0625 32.8125H17.1875C17.3617 32.8125 17.5308 32.7543 17.6681 32.6471C17.8054 32.54 17.903 32.39 17.9453 32.2211L18.1977 31.2109L19.0906 31.7469C19.24 31.8363 19.415 31.8733 19.5879 31.8519C19.7607 31.8306 19.9214 31.7521 20.0445 31.6289L22.2539 29.4195C22.3773 29.2964 22.4559 29.1355 22.4772 28.9625C22.4986 28.7895 22.4615 28.6143 22.3719 28.4648L21.8359 27.5727L22.8453 27.3203C23.0144 27.2781 23.1645 27.1806 23.2718 27.0433C23.3791 26.906 23.4375 26.7368 23.4375 26.5625V23.4375C23.4375 23.2632 23.3791 23.094 23.2718 22.9567C23.1645 22.8194 23.0144 22.7219 22.8453 22.6797V22.6797ZM21.875 25.9523L20.4344 26.3125C20.3159 26.3421 20.206 26.399 20.1136 26.4787C20.0211 26.5585 19.9486 26.6587 19.9019 26.7715C19.8552 26.8843 19.8355 27.0065 19.8446 27.1283C19.8536 27.25 19.8911 27.368 19.9539 27.4727L20.7188 28.7461L19.375 30.093L18.1016 29.3289C17.9969 29.2662 17.879 29.2289 17.7574 29.2199C17.6357 29.211 17.5137 29.2307 17.401 29.2774C17.2883 29.3241 17.1881 29.3965 17.1084 29.4889C17.0287 29.5813 16.9718 29.691 16.9422 29.8094L16.5773 31.25H14.6727L14.3117 29.8094C14.2821 29.691 14.2252 29.5813 14.1455 29.4889C14.0658 29.3965 13.9656 29.3241 13.853 29.2774C13.7403 29.2307 13.6182 29.211 13.4965 29.2199C13.3749 29.2289 13.257 29.2662 13.1523 29.3289L11.8789 30.093L10.5312 28.75L11.2961 27.4766C11.3589 27.3719 11.3964 27.2539 11.4054 27.1322C11.4145 27.0104 11.3948 26.8882 11.3481 26.7754C11.3014 26.6626 11.2289 26.5624 11.1364 26.4826C11.044 26.4029 10.9341 26.346 10.8156 26.3164L9.375 25.9523V24.0477L10.8156 23.6875C10.9341 23.6579 11.044 23.601 11.1364 23.5213C11.2289 23.4415 11.3014 23.3413 11.3481 23.2285C11.3948 23.1157 11.4145 22.9935 11.4054 22.8717C11.3964 22.75 11.3589 22.632 11.2961 22.5273L10.5312 21.2539L11.8789 19.907L13.1523 20.6711C13.257 20.7338 13.3749 20.7711 13.4965 20.7801C13.6182 20.789 13.7403 20.7693 13.853 20.7226C13.9656 20.6759 14.0658 20.6035 14.1455 20.5111C14.2252 20.4187 14.2821 20.309 14.3117 20.1906L14.6727 18.75H16.5773L16.9383 20.1906C16.9679 20.309 17.0248 20.4187 17.1045 20.5111C17.1842 20.6035 17.2844 20.6759 17.397 20.7226C17.5097 20.7693 17.6318 20.789 17.7535 20.7801C17.8751 20.7711 17.993 20.7338 18.0977 20.6711L19.3711 19.907L20.7188 21.2539L19.9539 22.5273C19.8911 22.632 19.8536 22.75 19.8446 22.8717C19.8355 22.9935 19.8552 23.1157 19.9019 23.2285C19.9486 23.3413 20.0211 23.4415 20.1136 23.5213C20.206 23.601 20.3159 23.6579 20.4344 23.6875L21.875 24.0477V25.9523Z" fill="white"/>
<path d="M15.625 21.875C15.0069 21.875 14.4027 22.0583 13.8888 22.4017C13.3749 22.745 12.9744 23.2331 12.7379 23.8041C12.5014 24.3751 12.4395 25.0035 12.56 25.6097C12.6806 26.2158 12.9783 26.7727 13.4153 27.2097C13.8523 27.6467 14.4092 27.9444 15.0153 28.065C15.6215 28.1855 16.2499 28.1237 16.8209 27.8871C17.3919 27.6506 17.88 27.2501 18.2233 26.7362C18.5667 26.2223 18.75 25.6181 18.75 25C18.75 24.1712 18.4208 23.3763 17.8347 22.7903C17.2487 22.2042 16.4538 21.875 15.625 21.875ZM15.625 26.5625C15.316 26.5625 15.0139 26.4709 14.7569 26.2992C14.5 26.1275 14.2997 25.8835 14.1814 25.5979C14.0632 25.3124 14.0322 24.9983 14.0925 24.6952C14.1528 24.3921 14.3016 24.1137 14.5201 23.8951C14.7387 23.6766 15.0171 23.5278 15.3202 23.4675C15.6233 23.4072 15.9374 23.4382 16.2229 23.5564C16.5085 23.6747 16.7525 23.875 16.9242 24.1319C17.0959 24.3889 17.1875 24.691 17.1875 25C17.1875 25.4144 17.0229 25.8118 16.7299 26.1049C16.4368 26.3979 16.0394 26.5625 15.625 26.5625Z" fill="white"/>
<path d="M7.8125 10.9375H18.75V12.5H7.8125V10.9375Z" fill="white"/>
<path d="M4.6875 10.9375H6.25V12.5H4.6875V10.9375Z" fill="white"/>
<path d="M14.0625 7.8125H23.4375V9.375H14.0625V7.8125Z" fill="white"/>
<path d="M4.6875 7.8125H12.5V9.375H4.6875V7.8125Z" fill="white"/>
<path d="M25 7.8125H26.5625V9.375H25V7.8125Z" fill="white"/>
<path d="M20.3125 10.9375H26.5625V12.5H20.3125V10.9375Z" fill="white"/>
</svg>
