<svg width="50" height="50" viewBox="0 0 50 50" fill="none" xmlns="http://www.w3.org/2000/svg">
<path d="M48.3133 2.36174C48.2913 2.19019 48.2131 2.03076 48.0908 1.90847C47.9685 1.78617 47.8091 1.70791 47.6375 1.68596C47.182 1.62737 36.4102 0.331273 30.4133 6.32815C29.3013 7.4397 28.2935 8.65075 27.4023 9.94612L26.543 9.08674C26.4326 8.9765 26.2918 8.90182 26.1387 8.8723C25.9855 8.84278 25.827 8.85978 25.6836 8.92112L17.9492 12.236C17.8208 12.2923 17.7099 12.3821 17.6281 12.4961H3.125C2.81721 12.4961 2.51244 12.5567 2.22809 12.6745C1.94373 12.7923 1.68536 12.9649 1.46772 13.1826C1.25008 13.4002 1.07744 13.6586 0.959657 13.943C0.841873 14.2273 0.78125 14.5321 0.78125 14.8399V46.0938C0.78125 46.7154 1.02818 47.3115 1.46772 47.7511C1.90726 48.1906 2.5034 48.4375 3.125 48.4375H35.9375C36.5591 48.4375 37.1552 48.1906 37.5948 47.7511C38.0343 47.3115 38.2812 46.7154 38.2812 46.0938V30.8313L41.075 24.3133C41.1363 24.1699 41.1533 24.0114 41.1238 23.8582C41.0943 23.7051 41.0196 23.5643 40.9094 23.4539L40.05 22.5946C41.3464 21.7044 42.5588 20.6976 43.6719 19.5867C49.6688 13.5938 48.3719 2.81799 48.3133 2.36174V2.36174ZM35.5961 24.7696L32.5 21.6758L33.8437 19.4367C33.9334 19.2873 33.9705 19.1121 33.9491 18.9391C33.9277 18.7661 33.8491 18.6052 33.7258 18.4821L31.5164 16.2719C31.3932 16.1489 31.2324 16.0705 31.0596 16.0493C30.8868 16.028 30.7118 16.0651 30.5625 16.1547L28.3242 17.5L25.2305 14.4063L31.8594 12.1961L37.8062 18.143L35.5961 24.7696ZM25.9937 19.5867C26.3706 19.2175 26.7902 18.8946 27.2438 18.625L31.3766 22.7578C31.1071 23.2114 30.7842 23.6311 30.4148 24.0078C28.9891 25.4336 26.1547 25.1703 25.0102 24.9938C24.8313 23.8461 24.5687 21.0156 25.9937 19.5867ZM31.3633 20.5367L29.4633 18.6375L30.8445 17.8125L32.1914 19.1602L31.3633 20.5367ZM25.8164 10.5688L26.5414 11.2938C26.2961 11.7094 26.0727 12.1281 25.8578 12.5485L23.5383 13.3219C23.4121 13.3641 23.2988 13.4379 23.2092 13.5362C23.1195 13.6345 23.0564 13.754 23.0259 13.8835C22.9954 14.013 22.9984 14.1482 23.0348 14.2762C23.0711 14.4042 23.1396 14.5207 23.2336 14.6149L24.075 15.4563L22.5273 16.1196L19.6297 13.2211L25.8164 10.5688ZM3.125 14.0625H18.2602L21.7969 17.5977C21.9072 17.7079 22.048 17.7826 22.2012 17.8121C22.3544 17.8416 22.5128 17.8246 22.6562 17.7633L25.2641 16.6461L26.1016 17.4836C25.6673 17.7778 25.2616 18.1121 24.8898 18.4821C24.8055 18.5664 24.7336 18.6602 24.6555 18.75H2.34375V14.8438C2.34375 14.6366 2.42606 14.4379 2.57257 14.2913C2.71909 14.1448 2.9178 14.0625 3.125 14.0625V14.0625ZM2.34375 35.9375H17.1875C17.3947 35.9375 17.5934 36.0198 17.7399 36.1663C17.8864 36.3129 17.9688 36.5116 17.9688 36.7188V42.9688C17.9688 43.176 17.8864 43.3747 17.7399 43.5212C17.5934 43.6677 17.3947 43.75 17.1875 43.75H2.34375V35.9375ZM35.9375 46.875H3.125C2.9178 46.875 2.71909 46.7927 2.57257 46.6462C2.42606 46.4997 2.34375 46.301 2.34375 46.0938V45.3125H17.1875C17.8091 45.3125 18.4052 45.0656 18.8448 44.6261C19.2843 44.1865 19.5312 43.5904 19.5312 42.9688V36.7188C19.5312 36.0972 19.2843 35.501 18.8448 35.0615C18.4052 34.622 17.8091 34.375 17.1875 34.375H2.34375V20.3125H23.7695C23.2444 22.1096 23.1776 24.0095 23.575 25.8391C23.608 25.982 23.6805 26.1127 23.7842 26.2163C23.888 26.3199 24.0188 26.3923 24.1617 26.425C25.0164 26.6046 25.8876 26.6947 26.7609 26.6938C28.3234 26.6938 30.243 26.3852 31.518 25.111C31.8881 24.7393 32.2224 24.3336 32.5164 23.8992L33.3539 24.7375L32.2367 27.3438C32.1754 27.4872 32.1584 27.6457 32.1879 27.7988C32.2174 27.952 32.2921 28.0928 32.4023 28.2031L36.4898 32.2907C36.556 32.3562 36.6336 32.4092 36.7188 32.4469V46.0938C36.7188 46.301 36.6364 46.4997 36.4899 46.6462C36.3434 46.7927 36.1447 46.875 35.9375 46.875V46.875ZM39.4305 24.1844L36.7789 30.3711L33.8813 27.4735L34.5437 25.9274L35.3852 26.7688C35.5316 26.9153 35.7303 26.9976 35.9375 26.9977C35.9978 26.9977 36.0578 26.9906 36.1164 26.9766C36.2462 26.9461 36.366 26.883 36.4644 26.7931C36.5629 26.7033 36.6367 26.5897 36.6789 26.4633L37.4523 24.143C37.8721 23.9321 38.2888 23.7042 38.7023 23.4594L39.4305 24.1844ZM38.1805 21.9524L39.4391 18.1774C39.4851 18.0397 39.4919 17.8919 39.4586 17.7506C39.4254 17.6093 39.3534 17.4801 39.2508 17.3774L32.6211 10.7485C32.5189 10.6453 32.3898 10.5729 32.2485 10.5396C32.1072 10.5064 31.9593 10.5135 31.8219 10.5602L28.0469 11.8188C29.0274 10.2256 30.1924 8.75368 31.518 7.43362C36.1977 2.75393 44.5008 3.00549 46.8211 3.17893C46.9961 5.50159 47.2531 13.7946 42.5664 18.4821C41.2467 19.8076 39.775 20.9727 38.182 21.9531L38.1805 21.9524Z" fill="white"/>
<path d="M41.4618 4.6321C40.558 4.6319 39.6822 4.94508 38.9835 5.51826C38.2847 6.09145 37.8064 6.88917 37.6299 7.77552C37.4534 8.66186 37.5897 9.58197 38.0156 10.3791C38.4415 11.1762 39.1305 11.801 39.9654 12.147C40.8003 12.493 41.7293 12.5388 42.5942 12.2766C43.4591 12.0144 44.2063 11.4604 44.7085 10.7091C45.2107 9.95773 45.4369 9.05549 45.3484 8.15608C45.26 7.25668 44.8624 6.41577 44.2235 5.77663C43.8618 5.41259 43.4314 5.12396 42.9574 4.9275C42.4833 4.73103 41.9749 4.63062 41.4618 4.6321V4.6321ZM43.1188 10.1962C42.791 10.5239 42.3734 10.7471 41.9188 10.8375C41.4641 10.9279 40.9929 10.8814 40.5647 10.704C40.1364 10.5266 39.7704 10.2262 39.5129 9.84081C39.2554 9.45539 39.1179 9.00227 39.1179 8.53874C39.1179 8.0752 39.2554 7.62208 39.5129 7.23666C39.7704 6.85124 40.1364 6.55084 40.5647 6.37343C40.9929 6.19603 41.4641 6.14959 41.9188 6.23999C42.3734 6.33039 42.791 6.55358 43.1188 6.88131C43.3365 7.09896 43.5092 7.35735 43.627 7.64173C43.7448 7.92611 43.8054 8.23092 43.8054 8.53874C43.8054 8.84656 43.7448 9.15136 43.627 9.43574C43.5092 9.72013 43.3365 9.97852 43.1188 10.1962V10.1962Z" fill="white"/>
<path d="M3.125 15.625H4.6875V17.1875H3.125V15.625Z" fill="white"/>
<path d="M6.25 15.625H7.8125V17.1875H6.25V15.625Z" fill="white"/>
<path d="M9.375 15.625H10.9375V17.1875H9.375V15.625Z" fill="white"/>
<path d="M14.8438 37.5H16.4062V39.0625H14.8438V37.5Z" fill="white"/>
<path d="M32.8125 34.375H23.4375C22.8159 34.375 22.2198 34.6219 21.7802 35.0615C21.3407 35.501 21.0938 36.0971 21.0938 36.7188V42.9688C21.0938 43.5904 21.3407 44.1865 21.7802 44.626C22.2198 45.0656 22.8159 45.3125 23.4375 45.3125H32.8125C33.4341 45.3125 34.0302 45.0656 34.4698 44.626C34.9093 44.1865 35.1562 43.5904 35.1562 42.9688V36.7188C35.1562 36.0971 34.9093 35.501 34.4698 35.0615C34.0302 34.6219 33.4341 34.375 32.8125 34.375ZM33.5938 42.9688C33.5938 43.176 33.5114 43.3747 33.3649 43.5212C33.2184 43.6677 33.0197 43.75 32.8125 43.75H23.4375C23.2303 43.75 23.0316 43.6677 22.8851 43.5212C22.7386 43.3747 22.6562 43.176 22.6562 42.9688V36.7188C22.6562 36.5115 22.7386 36.3128 22.8851 36.1663C23.0316 36.0198 23.2303 35.9375 23.4375 35.9375H32.8125C33.0197 35.9375 33.2184 36.0198 33.3649 36.1663C33.5114 36.3128 33.5938 36.5115 33.5938 36.7188V42.9688Z" fill="white"/>
<path d="M30.4688 37.5H32.0312V39.0625H30.4688V37.5Z" fill="white"/>
<path d="M7.03125 28.125H31.25V29.6875H7.03125V28.125Z" fill="white"/>
<path d="M3.90625 28.125H5.46875V29.6875H3.90625V28.125Z" fill="white"/>
<path d="M7.03125 21.875H21.875V23.4375H7.03125V21.875Z" fill="white"/>
<path d="M3.90625 21.875H5.46875V23.4375H3.90625V21.875Z" fill="white"/>
<path d="M11.7188 25H21.875V26.5625H11.7188V25Z" fill="white"/>
<path d="M3.90625 25H10.1562V26.5625H3.90625V25Z" fill="white"/>
<path d="M11.7188 31.25H31.25V32.8125H11.7188V31.25Z" fill="white"/>
<path d="M3.90625 31.25H10.1562V32.8125H3.90625V31.25Z" fill="white"/>
</svg>
