<svg width="50" height="50" viewBox="0 0 50 50" fill="none" xmlns="http://www.w3.org/2000/svg">
<path d="M46.875 18.7502H35.1562V20.3127H46.875V46.8752H3.125V20.3127H14.8438V18.7502H3.125C2.7106 18.7502 2.31317 18.9149 2.02015 19.2079C1.72712 19.5009 1.5625 19.8983 1.5625 20.3127V46.8752C1.5625 47.2896 1.72712 47.6871 2.02015 47.9801C2.31317 48.2731 2.7106 48.4377 3.125 48.4377H46.875C47.2894 48.4377 47.6868 48.2731 47.9799 47.9801C48.2729 47.6871 48.4375 47.2896 48.4375 46.8752V20.3127C48.4375 19.8983 48.2729 19.5009 47.9799 19.2079C47.6868 18.9149 47.2894 18.7502 46.875 18.7502Z" fill="white"/>
<path d="M26.5625 40.625C26.5625 41.7066 26.8832 42.7639 27.4842 43.6633C28.0851 44.5626 28.9392 45.2636 29.9384 45.6775C30.9377 46.0914 32.0373 46.1997 33.0981 45.9887C34.159 45.7777 35.1334 45.2568 35.8982 44.492C36.6631 43.7272 37.1839 42.7527 37.3949 41.6919C37.6059 40.6311 37.4976 39.5315 37.0837 38.5322C36.6698 37.5329 35.9689 36.6788 35.0695 36.0779C34.1702 35.477 33.1129 35.1562 32.0312 35.1562C30.5814 35.1581 29.1915 35.7349 28.1663 36.7601C27.1411 37.7853 26.5644 39.1752 26.5625 40.625V40.625ZM35.9375 40.625C35.9373 41.3641 35.7275 42.088 35.3324 42.7126C34.9373 43.3372 34.373 43.8368 33.7053 44.1536C33.0375 44.4703 32.2936 44.5911 31.5599 44.5019C30.8262 44.4127 30.1329 44.1172 29.5604 43.6497C28.988 43.1822 28.5599 42.5619 28.3259 41.8608C28.0919 41.1598 28.0616 40.4067 28.2386 39.6891C28.4155 38.9715 28.7924 38.3188 29.3254 37.8069C29.8585 37.2949 30.5258 36.9447 31.25 36.7969V40.625H32.8125V36.7969C33.6942 36.9782 34.4864 37.458 35.0557 38.1553C35.6249 38.8526 35.9364 39.7248 35.9375 40.625V40.625Z" fill="white"/>
<path d="M17.1875 43.75H25V45.3125H17.1875V43.75Z" fill="white"/>
<path d="M9.375 43.75H15.625V45.3125H9.375V43.75Z" fill="white"/>
<path d="M4.6875 43.75H7.8125V45.3125H4.6875V43.75Z" fill="white"/>
<path d="M8.59375 41.4063V30.4688C8.59375 30.2615 8.51144 30.0628 8.36493 29.9163C8.21841 29.7698 8.0197 29.6875 7.8125 29.6875H5.46875C5.26155 29.6875 5.06284 29.7698 4.91632 29.9163C4.76981 30.0628 4.6875 30.2615 4.6875 30.4688V41.4063C4.6875 41.6135 4.76981 41.8122 4.91632 41.9587C5.06284 42.1052 5.26155 42.1875 5.46875 42.1875H7.8125C8.0197 42.1875 8.21841 42.1052 8.36493 41.9587C8.51144 41.8122 8.59375 41.6135 8.59375 41.4063ZM7.03125 40.625H6.25V31.25H7.03125V40.625Z" fill="white"/>
<path d="M13.2812 42.1875C13.4885 42.1875 13.6872 42.1052 13.8337 41.9587C13.9802 41.8122 14.0625 41.6135 14.0625 41.4062V35.1562C14.0625 34.949 13.9802 34.7503 13.8337 34.6038C13.6872 34.4573 13.4885 34.375 13.2812 34.375H10.9375C10.7303 34.375 10.5316 34.4573 10.3851 34.6038C10.2386 34.7503 10.1562 34.949 10.1562 35.1562V41.4062C10.1562 41.6135 10.2386 41.8122 10.3851 41.9587C10.5316 42.1052 10.7303 42.1875 10.9375 42.1875H13.2812ZM11.7188 35.9375H12.5V40.625H11.7188V35.9375Z" fill="white"/>
<path d="M19.5312 41.4062V36.7188C19.5312 36.5115 19.4489 36.3128 19.3024 36.1663C19.1559 36.0198 18.9572 35.9375 18.75 35.9375H16.4062C16.199 35.9375 16.0003 36.0198 15.8538 36.1663C15.7073 36.3128 15.625 36.5115 15.625 36.7188V41.4062C15.625 41.6135 15.7073 41.8122 15.8538 41.9587C16.0003 42.1052 16.199 42.1875 16.4062 42.1875H18.75C18.9572 42.1875 19.1559 42.1052 19.3024 41.9587C19.4489 41.8122 19.5312 41.6135 19.5312 41.4062ZM17.9688 40.625H17.1875V37.5H17.9688V40.625Z" fill="white"/>
<path d="M25 38.2812C25 38.074 24.9177 37.8753 24.7712 37.7288C24.6247 37.5823 24.426 37.5 24.2188 37.5H21.875C21.6678 37.5 21.4691 37.5823 21.3226 37.7288C21.1761 37.8753 21.0938 38.074 21.0938 38.2812V41.4062C21.0938 41.6135 21.1761 41.8122 21.3226 41.9587C21.4691 42.1052 21.6678 42.1875 21.875 42.1875H24.2188C24.426 42.1875 24.6247 42.1052 24.7712 41.9587C24.9177 41.8122 25 41.6135 25 41.4062V38.2812ZM23.4375 40.625H22.6562V39.0625H23.4375V40.625Z" fill="white"/>
<path d="M44.5312 10.9375V7.8125H42.9688V10.1562H35.9375V11.7188H43.75C43.9572 11.7188 44.1559 11.6364 44.3024 11.4899C44.4489 11.3434 44.5312 11.1447 44.5312 10.9375Z" fill="white"/>
<path d="M39.0625 4.6875H48.4375V6.25H39.0625V4.6875Z" fill="white"/>
<path d="M39.0625 1.5625H40.625V3.125H39.0625V1.5625Z" fill="white"/>
<path d="M42.1875 1.5625H48.4375V3.125H42.1875V1.5625Z" fill="white"/>
<path d="M39.0625 43.75H45.3125V45.3125H39.0625V43.75Z" fill="white"/>
<path d="M39.0625 37.5H45.3125V39.0625H39.0625V37.5Z" fill="white"/>
<path d="M39.0625 40.625H40.625V42.1875H39.0625V40.625Z" fill="white"/>
<path d="M42.1875 40.625H45.3125V42.1875H42.1875V40.625Z" fill="white"/>
<path d="M39.0625 34.375H40.625V35.9375H39.0625V34.375Z" fill="white"/>
<path d="M42.1875 34.375H45.3125V35.9375H42.1875V34.375Z" fill="white"/>
<path d="M7.03125 6.25H14.0625V4.6875H6.25C6.0428 4.6875 5.84409 4.76981 5.69757 4.91632C5.55106 5.06284 5.46875 5.26155 5.46875 5.46875V8.59375H7.03125V6.25Z" fill="white"/>
<path d="M1.5625 10.1562H10.9375V11.7188H1.5625V10.1562Z" fill="white"/>
<path d="M9.375 13.2812H10.9375V14.8438H9.375V13.2812Z" fill="white"/>
<path d="M1.5625 13.2812H7.8125V14.8438H1.5625V13.2812Z" fill="white"/>
<path d="M25 14.8437C25.7726 14.8437 26.5278 14.6147 27.1702 14.1854C27.8126 13.7562 28.3133 13.1461 28.6089 12.4324C28.9046 11.7186 28.9819 10.9332 28.8312 10.1754C28.6805 9.41769 28.3084 8.72166 27.7621 8.17537C27.2158 7.62907 26.5198 7.25703 25.7621 7.10631C25.0043 6.95559 24.2189 7.03294 23.5051 7.3286C22.7914 7.62425 22.1813 8.12493 21.7521 8.7673C21.3228 9.40968 21.0938 10.1649 21.0938 10.9375C21.095 11.9731 21.5069 12.966 22.2392 13.6983C22.9715 14.4306 23.9644 14.8425 25 14.8437V14.8437ZM25 8.59375C25.4636 8.59375 25.9167 8.73121 26.3021 8.98874C26.6875 9.24628 26.988 9.61232 27.1653 10.0406C27.3427 10.4689 27.3892 10.9401 27.2987 11.3947C27.2083 11.8494 26.9851 12.267 26.6573 12.5948C26.3295 12.9226 25.9119 13.1458 25.4572 13.2362C25.0026 13.3266 24.5314 13.2802 24.1031 13.1028C23.6748 12.9254 23.3088 12.625 23.0512 12.2396C22.7937 11.8542 22.6563 11.401 22.6563 10.9375C22.6563 10.3159 22.9032 9.71976 23.3427 9.28022C23.7823 8.84068 24.3784 8.59375 25 8.59375V8.59375Z" fill="white"/>
<path d="M14.8435 21.8751C14.6873 21.8751 14.5346 21.9218 14.4053 22.0094C14.2759 22.097 14.1757 22.2214 14.1178 22.3665L10.9928 30.179C10.9454 30.2976 10.9278 30.4259 10.9415 30.5529C10.9553 30.6798 10.9999 30.8014 11.0715 30.9071C11.1431 31.0128 11.2395 31.0993 11.3523 31.1591C11.4651 31.2189 11.5909 31.2502 11.7185 31.2501H17.4998C17.656 31.2502 17.8087 31.2034 17.9381 31.1158C18.0675 31.0282 18.1676 30.9038 18.2256 30.7587L19.2787 28.1251H20.4631C20.3639 28.6401 20.3134 29.1632 20.3123 29.6876C20.3123 33.1048 24.4107 35.7095 24.5857 35.8189C24.7099 35.8965 24.8534 35.9376 24.9998 35.9376C25.1462 35.9376 25.2897 35.8965 25.4139 35.8189C25.5889 35.7095 29.6873 33.1048 29.6873 29.6876C29.6862 29.1632 29.6357 28.6401 29.5365 28.1251H30.7209L31.774 30.7587C31.832 30.9038 31.9321 31.0282 32.0615 31.1158C32.1909 31.2034 32.3436 31.2502 32.4998 31.2501H38.281C38.4087 31.2502 38.5345 31.2189 38.6472 31.1591C38.76 31.0993 38.8565 31.0128 38.9281 30.9071C38.9997 30.8014 39.0443 30.6798 39.0581 30.5529C39.0718 30.4259 39.0542 30.2976 39.0068 30.179L35.8818 22.3665C35.8239 22.2214 35.7237 22.097 35.5943 22.0094C35.465 21.9218 35.3123 21.8751 35.156 21.8751H33.9326C34.2232 20.3294 34.3712 18.7604 34.3748 17.1876C34.3748 8.70636 25.8412 2.00636 25.4779 1.72589C25.341 1.61997 25.1729 1.5625 24.9998 1.5625C24.8267 1.5625 24.6586 1.61997 24.5217 1.72589C24.1584 2.00636 15.6248 8.70636 15.6248 17.1876C15.6284 18.7604 15.7764 20.3294 16.067 21.8751H14.8435ZM16.9717 29.6876H12.8725L15.3725 23.4376H16.4014C16.5217 23.9025 16.6592 24.3532 16.8053 24.7978L15.7068 26.9946C15.6473 27.1138 15.6192 27.2462 15.6252 27.3792C15.6313 27.5123 15.6712 27.6416 15.7413 27.7548C15.8113 27.8681 15.9092 27.9616 16.0255 28.0264C16.1419 28.0912 16.2729 28.1252 16.406 28.1251H17.5959L16.9717 29.6876ZM32.3295 26.5626H27.9545L27.3217 24.0298C27.2794 23.8604 27.1817 23.7101 27.0441 23.6028C26.9064 23.4955 26.7368 23.4373 26.5623 23.4376H23.4373C23.263 23.4377 23.0938 23.496 22.9565 23.6033C22.8192 23.7106 22.7217 23.8607 22.6795 24.0298L22.0467 26.5626H17.6717L20.7967 20.3126H29.2045L32.3295 26.5626ZM26.3428 26.5626H23.6568L24.0475 25.0001H25.9521L26.3428 26.5626ZM28.1248 29.6876C28.1248 31.7032 25.9373 33.522 24.9998 34.2064C24.0623 33.522 21.8748 31.7064 21.8748 29.6876C21.8797 29.1605 21.9479 28.6359 22.0779 28.1251H27.9217C28.0517 28.6359 28.1199 29.1605 28.1248 29.6876V29.6876ZM34.6271 23.4376L37.1271 29.6876H33.0279L32.4029 28.1251H33.5935C33.7271 28.1258 33.8585 28.0923 33.9754 28.0278C34.0923 27.9633 34.1907 27.8699 34.2612 27.7565C34.3317 27.6431 34.372 27.5136 34.3782 27.3802C34.3844 27.2468 34.3564 27.1141 34.2967 26.9946L33.1982 24.7978C33.3443 24.3532 33.4818 23.9025 33.6021 23.4376H34.6271ZM24.9998 3.35949C26.7662 4.8798 32.8123 10.5712 32.8123 17.1876C32.8151 19.0556 32.5975 20.9175 32.1639 22.7345L30.3904 19.1821C30.3252 19.0517 30.2248 18.9421 30.1006 18.8657C29.9763 18.7894 29.8331 18.7493 29.6873 18.7501H20.3123C20.1671 18.75 20.0248 18.7904 19.9013 18.8667C19.7778 18.9431 19.678 19.0523 19.6131 19.1821L17.8357 22.7345C17.4021 20.9175 17.1845 19.0556 17.1873 17.1876C17.1873 10.5712 23.2334 4.8798 24.9998 3.35949V3.35949Z" fill="white"/>
<path d="M43.75 21.8752H45.3125V23.4377H43.75V21.8752Z" fill="white"/>
<path d="M40.625 21.8752H42.1875V23.4377H40.625V21.8752Z" fill="white"/>
<path d="M37.5 21.8752H39.0625V23.4377H37.5V21.8752Z" fill="white"/>
<path d="M4.6875 21.8752H6.25V23.4377H4.6875V21.8752Z" fill="white"/>
<path d="M7.8125 21.8752H9.375V23.4377H7.8125V21.8752Z" fill="white"/>
<path d="M10.9375 21.8752H12.5V23.4377H10.9375V21.8752Z" fill="white"/>
</svg>
