<svg viewBox="0 0 569 851" fill="none" xmlns="http://www.w3.org/2000/svg">
  <path
            d="M88.1708 637.872L88.1708 637.874C88.1786 639.726 88.6752 641.544 89.6102 643.143C90.5452 644.742 91.8857 646.066 93.4961 646.982C95.1066 647.897 96.9298 648.371 98.7822 648.357C100.635 648.342 102.45 647.839 104.046 646.898L104.049 646.896L544.629 382.835L544.63 382.834L554.259 377.104L554.26 377.104L568.385 368.644L568.385 493.941L544.193 508.677L544.193 508.677L112.526 770.828L112.525 770.829L71.3009 795.818L71.3003 795.818L9.14637 833.62L9.1446 833.621L-15.7219 848.603L-15.7218 305.524L88.1708 366.535L88.1708 637.872Z"
            stroke="white" />
        <path
            d="M-36.538 287.142L-36.6971 850.183L-43.2916 846.814L-43.2931 846.813L-144.125 795.721L-144.127 795.72L-165.5 784.798L-165.5 84.6709L-151.289 92.9103L237.244 318.135L237.244 318.135L292.955 350.352L288.881 352.932L288.877 352.934L204.851 405.222L190.864 397.408L190.863 397.408L129.346 362.869L129.345 362.869L-20.91 278.111L-20.9116 278.111C-22.494 277.225 -24.2768 276.761 -26.0899 276.761C-27.9031 276.761 -29.6859 277.225 -31.2683 278.111L-31.2721 278.113C-32.8651 279.023 -34.1905 280.336 -35.1149 281.921C-36.0393 283.505 -36.5301 285.305 -36.538 287.14L-36.538 287.142Z"
            stroke="white" />
        <path
            d="M112.495 491.063L112.497 491.062L129.369 480.318L129.371 480.316L190.969 440.524L190.97 440.523L313.927 361.656L313.928 361.656L315.042 360.939L315.044 360.938L318.214 358.877C319.792 357.979 321.085 356.654 321.944 355.055C322.804 353.454 323.194 351.643 323.07 349.83C323.017 348.043 322.516 346.297 321.613 344.754C320.708 343.207 319.43 341.913 317.894 340.99L317.888 340.986L-132.309 79.479L-132.323 79.4707L-134.219 78.2853L-134.227 78.2807L-134.234 78.2764L-153.822 66.9523L-142.931 61.2475L-142.927 61.2456L-131.311 55.2786L-131.309 55.2774L-26.1866 0.572419L65.335 55.2631L65.5915 54.8339L65.3352 55.2632L107.197 80.2528L538.625 338.028L538.628 338.029L544.435 341.45L544.438 341.451L558.759 350.014L544.435 358.577L544.435 358.578L109.067 619.401L109.067 493.224L112.495 491.063Z"
            stroke="white" />
</svg>
