<svg width="1496" height="2120" viewBox="0 0 1496 2120" fill="none" xmlns="http://www.w3.org/2000/svg">
<g opacity="0.4">
<path d="M1196.43 1589.02L1196.43 1589.03C1196.41 1593.51 1195.21 1597.91 1192.95 1601.78C1190.68 1605.64 1187.44 1608.85 1183.54 1611.06C1179.65 1613.28 1175.24 1614.43 1170.75 1614.39C1166.27 1614.36 1161.88 1613.14 1158.02 1610.86L1158.01 1610.86L60.7894 953.214L60.7881 953.213L36.8073 938.943L36.8061 938.943L0.499993 917.197L0.499979 1230.98L61.1062 1267.9L61.1068 1267.9L1136.13 1920.79L1238.8 1983.02L1238.54 1983.45L1238.8 1983.03L1393.59 2077.17L1393.59 2077.17L1456.65 2115.17L1456.65 760.012L1196.43 912.835L1196.43 1589.02Z" stroke="white"/>
<path d="M1506.83 715.447L1507.23 2118.9L1524.73 2109.96L1524.73 2109.96L1775.86 1982.71L1775.86 1982.71L1829.5 1955.3L1829.5 209.905L1792.99 231.074L825.347 791.99L825.347 791.99L685.534 872.84L696.725 879.928L696.729 879.93L906.375 1010.39L941.596 990.712L1094.81 904.692L1094.81 904.692L1469.02 693.606L1469.02 693.605C1472.85 691.463 1477.17 690.338 1481.55 690.338C1485.94 690.338 1490.26 691.463 1494.09 693.605L1494.09 693.607C1497.94 695.809 1501.15 698.986 1503.39 702.819C1505.62 706.653 1506.81 711.007 1506.83 715.445L1506.83 715.447Z" stroke="white"/>
<path d="M1136.82 1222.64L1136.82 1222.64L1094.83 1195.88L1094.82 1195.87L941.502 1096.75L635.453 900.283L635.452 900.282L632.679 898.498L632.677 898.497L624.78 893.359C624.775 893.356 624.771 893.354 624.766 893.351C620.952 891.183 617.828 887.981 615.752 884.114C613.677 880.246 612.735 875.869 613.037 871.489C613.164 867.156 614.377 862.924 616.564 859.183C618.752 855.438 621.845 852.304 625.56 850.069L625.567 850.065L1746.15 198.62L1746.17 198.612L1750.91 195.647L1750.91 195.642L1750.92 195.638L1800.85 166.751L1772.54 151.909L1772.53 151.907L1743.61 137.04L1743.61 137.039L1481.59 0.572572L1253.43 137.024L1149.23 199.275L75.3826 841.41L75.38 841.412L60.9219 849.936L60.9191 849.937L24.1999 871.908L60.9219 893.882L60.6652 894.311L60.9223 893.882L1145.7 1544.29L1145.7 1228.24L1136.82 1222.64Z" stroke="white"/>
</g>
</svg>
