<svg width="1496" height="2120" fill="none" xmlns="http://www.w3.org/2000/svg"><g opacity=".4" stroke="#fff"><path d="M1196.43 1589.02v.01c-.02 4.48-1.22 8.88-3.48 12.75a25.538 25.538 0 01-9.41 9.28 25.34 25.34 0 01-12.79 3.33c-4.48-.03-8.87-1.25-12.73-3.53h-.01L60.79 953.214l-.002-.001-23.98-14.27h-.002L.5 917.197v313.783l60.606 36.92h0l1075.024 652.89 102.67 62.23-.26.43.26-.42 154.79 94.14h0l63.06 38V760.012l-260.22 152.823v676.185z"/><path d="M1506.83 715.447l.4 1403.453 17.5-8.94h0l251.13-127.25h0l53.64-27.41V209.905l-36.51 21.169L825.347 791.99h0l-139.813 80.85 11.191 7.088.004.002 209.646 130.46 35.221-19.678 153.214-86.02h0l374.21-211.086v-.001a25.688 25.688 0 0125.07 0v.002a25.352 25.352 0 019.3 9.212 25.345 25.345 0 013.44 12.626v.002z"/><path d="M1136.82 1222.64h0l-41.99-26.76-.01-.01-153.318-99.12-306.049-196.467-.001-.001-2.773-1.784-.002-.001-7.897-5.138-.014-.008a23.3 23.3 0 01-11.729-21.862 25.888 25.888 0 0112.523-21.42l.007-.004L1746.15 198.62l.02-.008 4.74-2.965v-.005l.01-.004 49.93-28.887-28.31-14.842-.01-.002-28.92-14.867v-.001L1481.59.573l-228.16 136.451-104.2 62.251L75.383 841.41l-.003.002-14.458 8.524-.003.001-36.72 21.971 36.723 21.974-.257.429.257-.429L1145.7 1544.29v-316.05l-8.88-5.6z"/></g></svg>