<svg width="42" height="42" viewBox="0 0 42 42" fill="none" xmlns="http://www.w3.org/2000/svg">
<path d="M39.2903 8.60458V0H2.70968V8.60458C1.07506 9.38429 0 11.0352 0 12.871V33.1936C0 35.8084 2.12777 37.9355 4.74194 37.9355H12.1935V40.6452H9.48387V42H32.5161V40.6452H29.8065V37.9355H37.2581C39.8722 37.9355 42 35.8084 42 33.1936V12.871C42 11.0352 40.9249 9.38429 39.2903 8.60458ZM4.06452 6.77419H35.2258V5.41935H4.06452V1.35484H37.9355V5.41935H36.5806V6.77419H37.9355V29.8065H4.06452V6.77419ZM28.4516 40.6452H13.5484V37.9355H28.4516V40.6452ZM37.2581 36.5806H4.74194C3.10665 36.5806 1.73826 35.4148 1.42326 33.871H40.5767C40.2617 35.4148 38.8934 36.5806 37.2581 36.5806ZM40.6452 32.5161H1.35484V12.871C1.35484 11.7912 1.87374 10.7967 2.70968 10.1681V31.1613H39.2903V10.1681C40.1263 10.7967 40.6452 11.7912 40.6452 12.871V32.5161Z" fill="white"/>
<path d="M6.77427 2.70969H5.41943V4.06453H6.77427V2.70969Z" fill="white"/>
<path d="M9.48399 2.70969H8.12915V4.06453H9.48399V2.70969Z" fill="white"/>
<path d="M12.1935 2.70969H10.8386V4.06453H12.1935V2.70969Z" fill="white"/>
<path d="M27.0967 9.48387H23.0322V8.12903H18.9677V9.48387H14.9031V8.12903H10.8386V12.1935H12.1935V16.2581H10.8386V20.3226H12.1935V24.3871H10.8386V28.4516H14.9031V27.0968H18.9677V28.4516H23.0322V27.0968H27.0967V28.4516H31.1612V24.3871H29.8064V20.3226H31.1612V16.2581H29.8064V12.1935H31.1612V8.12903H27.0967V9.48387ZM20.3225 9.48387H21.6773V10.8387H20.3225V9.48387ZM12.1935 9.48387H13.5483V10.8387H12.1935V9.48387ZM12.1935 17.6129H13.5483V18.9677H12.1935V17.6129ZM13.5483 27.0968H12.1935V25.7419H13.5483V27.0968ZM21.6773 27.0968H20.3225V25.7419H21.6773V27.0968ZM29.8064 27.0968H28.4515V25.7419H29.8064V27.0968ZM29.8064 18.9677H28.4515V17.6129H29.8064V18.9677ZM28.4515 9.48387H29.8064V10.8387H28.4515V9.48387ZM28.4515 16.2581H27.0967V20.3226H28.4515V24.3871H27.0967V25.7419H23.0322V24.3871H18.9677V25.7419H14.9031V24.3871H13.5483V20.3226H14.9031V16.2581H13.5483V12.1935H14.9031V10.8387H18.9677V12.1935H23.0322V10.8387H27.0967V12.1935H28.4515V16.2581Z" fill="white"/>
<path d="M16.2581 23.0323H27.3772L16.2581 11.9131V23.0323ZM17.6129 15.1837L24.1066 21.6775H17.6129V15.1837Z" fill="white"/>
</svg>
