<svg width="42" height="42" viewBox="0 0 42 42" fill="none" xmlns="http://www.w3.org/2000/svg">
<path d="M42 23.367C42 21.6728 40.622 20.2941 38.9278 20.2941C38.1075 20.2941 37.3361 20.614 36.7553 21.1945L33.871 24.0788V0H7.17112L0 7.17112V42H33.871V32.7688L41.1003 25.5395C41.6801 24.9597 42 24.188 42 23.367ZM25.4012 35.1372L27.1639 36.8998L24.6967 37.6199L25.4012 35.1372ZM28.4516 36.271L27.7166 35.5361L37.3881 25.864L38.1237 26.5996L28.4516 36.271ZM26.7581 34.5782L26.0224 33.8425L35.6952 24.1704L36.4308 24.9061L26.7581 34.5782ZM6.77419 2.31275V6.77419H2.31275L6.77419 2.31275ZM32.5161 40.6452H1.35484V8.12903H8.12903V1.35484H32.5161V25.4337L24.4609 33.4883L22.7233 39.6065L28.8079 37.832L32.5161 34.1237V40.6452ZM40.1424 24.5816L39.0823 25.6417L36.6531 23.2125L37.7132 22.1524C38.0377 21.8279 38.4693 21.649 38.9278 21.649C39.8741 21.649 40.6452 22.42 40.6452 23.367C40.6452 23.8261 40.4662 24.2578 40.1424 24.5816Z" fill="white"/>
<path d="M13.7242 27.9958L10.8087 31.2033C9.94906 30.341 8.76159 29.8065 7.45141 29.8065C4.83732 29.8065 2.70947 31.9343 2.70947 34.5484C2.70947 37.1625 4.83732 39.2904 7.45141 39.2904C10.0655 39.2904 12.1933 37.1625 12.1933 34.5484C12.1933 33.7404 11.9896 32.9796 11.631 32.3131L14.7271 28.9075L13.7242 27.9958ZM10.8385 34.5484C10.8385 36.416 9.31894 37.9355 7.45141 37.9355C5.58387 37.9355 4.06431 36.416 4.06431 34.5484C4.06431 32.6809 5.58387 31.1613 7.45141 31.1613C8.41131 31.1613 9.27495 31.5672 9.89217 32.2112L7.34225 35.0165L5.79524 33.9855L5.04372 35.1127L7.56122 36.7914L10.6298 33.4159C10.7565 33.7714 10.8385 34.1489 10.8385 34.5484Z" fill="white"/>
<path d="M10.8087 19.0097C9.94906 18.1474 8.76159 17.6129 7.45141 17.6129C4.83732 17.6129 2.70947 19.7407 2.70947 22.3548C2.70947 24.9689 4.83732 27.0968 7.45141 27.0968C10.0655 27.0968 12.1933 24.9689 12.1933 22.3548C12.1933 21.5467 11.9896 20.786 11.631 20.1195L14.7271 16.7139L13.7242 15.8022L10.8087 19.0097ZM10.8385 22.3548C10.8385 24.2224 9.31894 25.7419 7.45141 25.7419C5.58387 25.7419 4.06431 24.2224 4.06431 22.3548C4.06431 20.4873 5.58387 18.9677 7.45141 18.9677C8.41131 18.9677 9.27495 19.3736 9.89217 20.0176L7.34225 22.8229L5.79524 21.7918L5.04372 22.9191L7.56122 24.5978L10.6298 21.2223C10.7565 21.5778 10.8385 21.9553 10.8385 22.3548Z" fill="white"/>
<path d="M29.8066 21.6774H31.1615V23.0322H29.8066V21.6774Z" fill="white"/>
<path d="M14.9033 21.6774H28.4517V23.0322H14.9033V21.6774Z" fill="white"/>
<path d="M14.9033 18.9678H31.1614V20.3226H14.9033V18.9678Z" fill="white"/>
<path d="M14.9033 24.3871H31.1614V25.7419H14.9033V24.3871Z" fill="white"/>
<path d="M14.9033 33.871H22.3549V35.2258H14.9033V33.871Z" fill="white"/>
<path d="M14.9033 36.5807H22.3549V37.9355H14.9033V36.5807Z" fill="white"/>
<path d="M14.9033 31.1613H22.3549V32.5161H14.9033V31.1613Z" fill="white"/>
<path d="M12.871 14.9033H27.7742C29.6417 14.9033 31.1613 13.3837 31.1613 11.5162V6.09681C31.1613 4.22928 29.6417 2.70972 27.7742 2.70972H12.871C11.0034 2.70972 9.48389 4.22928 9.48389 6.09681V11.5162C9.48389 13.3837 11.0034 14.9033 12.871 14.9033ZM10.8387 6.09681C10.8387 4.97649 11.7507 4.06456 12.871 4.06456H27.7742C28.8945 4.06456 29.8065 4.97649 29.8065 6.09681V11.5162C29.8065 12.6365 28.8945 13.5484 27.7742 13.5484H12.871C11.7507 13.5484 10.8387 12.6365 10.8387 11.5162V6.09681Z" fill="white"/>
<path d="M28.4517 6.77417H24.3872V10.8387H28.4517V6.77417ZM27.0969 9.48385H25.742V8.12901H27.0969V9.48385Z" fill="white"/>
<path d="M22.355 6.77417H18.2905V10.8387H22.355V6.77417ZM21.0002 9.48385H19.6454V8.12901H21.0002V9.48385Z" fill="white"/>
<path d="M16.2579 6.77417H12.1934V10.8387H16.2579V6.77417ZM14.903 9.48385H13.5482V8.12901H14.903V9.48385Z" fill="white"/>
</svg>
