<svg width="41" height="41" viewBox="0 0 41 41" fill="none" xmlns="http://www.w3.org/2000/svg">
<path d="M37.6671 24.566L28.9699 15.8685C28.6986 15.6119 28.2746 15.6119 28.0036 15.8685L24.1379 19.7339C23.8713 20.0008 23.8713 20.4333 24.1379 20.7002L24.621 21.1833L23.3157 22.4886L22.269 22.6968L20.2724 20.7002C20.1443 20.5721 19.9705 20.5 19.7893 20.5H17.1734L15.9235 19.2508C16.1904 18.9842 16.1904 18.5514 15.9235 18.2845L12.0587 14.4184C11.9303 14.2899 11.7565 14.2179 11.5753 14.2179C11.3938 14.2179 11.2199 14.2899 11.0918 14.4184L3.3606 22.1496C3.09367 22.4165 3.09367 22.849 3.3606 23.1159L7.22603 26.9813C7.49296 27.2482 7.92538 27.2482 8.19231 26.9813L12.6293 31.4183C12.331 32.0342 12.3627 32.7586 12.7131 33.3462C13.0631 33.9338 13.6853 34.3061 14.369 34.3368C14.4127 35.3865 15.2545 36.2267 16.3042 36.2687C16.3489 37.3154 17.1874 38.1536 18.2338 38.1983C18.2768 39.0037 18.789 39.7084 19.5417 39.9984C20.2941 40.288 21.1469 40.1088 21.7188 39.5402L22.4452 40.2666C23.0154 40.8442 23.8733 41.0294 24.631 40.7387C25.3884 40.4478 25.9019 39.7361 25.9393 38.9253C26.9876 38.8823 27.8275 38.0421 27.8702 36.9938C28.9192 36.9494 29.7597 36.1092 29.8041 35.0605C30.6118 35.0218 31.3205 34.51 31.6112 33.7556C31.9018 33.0009 31.7196 32.146 31.1467 31.5755L30.424 30.8524L32.3549 28.9172L32.838 29.401C33.1049 29.6679 33.5374 29.6679 33.8043 29.401L37.6701 25.5356C37.9367 25.2686 37.9367 24.8362 37.6701 24.5693L37.6671 24.566ZM24.8629 27.2232C25.1298 27.4901 25.1298 27.9226 24.8629 28.1895C24.593 28.4487 24.1666 28.4487 23.8966 28.1895L20.9975 25.291C20.7305 25.0241 20.2978 25.0241 20.0312 25.291C19.2304 26.0921 17.9318 26.0921 17.131 25.291L16.1674 26.2569C16.4157 26.5005 16.6996 26.7047 17.0092 26.8625L13.5102 30.364L11.0918 27.9483L17.1734 21.8667H19.5063L24.8629 27.2232ZM7.71117 25.5319L4.80968 22.6327L11.5749 15.8678L14.4741 18.767L7.71117 25.5319ZM14.9592 20.2171L15.9242 21.1833L10.1249 26.9813L9.15859 26.015L14.9592 20.2171ZM20.2674 38.7725C20.0882 38.7732 19.9161 38.7028 19.7893 38.5763C19.5267 38.3127 19.5234 37.8873 19.7816 37.6197L19.7893 37.612L21.1933 36.2077L21.7202 35.6821L20.7556 34.7132L20.2271 35.2417L18.8173 36.6457L18.8113 36.6534C18.5391 36.896 18.1247 36.8823 17.8691 36.6221C17.6135 36.3621 17.6072 35.9474 17.8547 35.6795L19.7893 33.7463L18.823 32.7803L16.8905 34.7132C16.6235 34.9805 16.1908 34.9805 15.9239 34.7135C15.6569 34.4469 15.6566 34.0142 15.9235 33.7473L17.8567 31.8147L16.8905 30.8484L14.9566 32.781C14.6866 33.0392 14.2612 33.0392 13.991 32.781C13.7244 32.514 13.7244 32.0816 13.991 31.8147L18.5591 27.2446C19.2364 27.2546 19.9014 27.0621 20.4683 26.6917L22.9324 29.1558C23.7438 29.9302 25.0204 29.9302 25.8319 29.1558C26.6323 28.3553 26.6323 27.0577 25.8319 26.2569L23.4335 23.8586L29.4577 29.8821L29.2525 30.087C28.6573 29.9222 28.0193 30.038 27.5198 30.401C27.02 30.7643 26.7134 31.3356 26.6867 31.9525C25.6313 31.9972 24.7885 32.8477 24.7535 33.9037C23.7048 33.9298 22.8583 34.7686 22.8226 35.8169C22.2063 35.8433 21.6358 36.1489 21.2721 36.6471C20.9087 37.1452 20.7919 37.7819 20.9551 38.3768L20.7499 38.5816C20.6208 38.7068 20.4473 38.7755 20.2674 38.7725ZM24.3798 39.3033C24.1098 39.5619 23.6838 39.5619 23.4135 39.3033L22.4466 38.3351C22.2076 38.0645 22.2203 37.6547 22.4752 37.3995C22.7305 37.1442 23.1402 37.1312 23.4108 37.3701L24.3798 38.3351C24.5086 38.4625 24.5806 38.6364 24.58 38.8175C24.5806 38.9997 24.5086 39.1745 24.3798 39.3033ZM26.3123 37.3701C26.0454 37.637 25.613 37.637 25.346 37.3701L24.3798 36.4038C24.2516 36.2757 24.1792 36.1019 24.1792 35.9204C24.1792 35.7392 24.2516 35.565 24.3798 35.4369C24.5072 35.3081 24.6811 35.236 24.8622 35.2367C25.0434 35.2367 25.2173 35.3088 25.3454 35.4369L26.3117 36.4032C26.4401 36.5313 26.5122 36.7051 26.5122 36.8866C26.5125 37.0678 26.4404 37.242 26.3123 37.3701ZM28.2442 35.4369C27.9739 35.6952 27.5485 35.6952 27.2786 35.4369L26.3123 34.4706C26.0534 34.2027 26.0571 33.7763 26.3207 33.5127C26.5843 33.2491 27.0103 33.2454 27.2786 33.5043L28.2449 34.4706C28.373 34.5987 28.4451 34.7726 28.4451 34.9538C28.4457 35.1353 28.3733 35.3094 28.2442 35.4369ZM30.1778 33.5043C30.0496 33.6328 29.8758 33.7049 29.6943 33.7049C29.5131 33.7049 29.3393 33.6328 29.2108 33.5043L28.2449 32.5384C27.9773 32.2711 27.9769 31.8381 28.2442 31.5708C28.5111 31.3032 28.9442 31.3029 29.2118 31.5701L30.1758 32.5384C30.4427 32.805 30.4427 33.2378 30.1758 33.5043H30.1778ZM30.4197 28.9139L24.6217 23.1159L25.5873 22.1496L31.3859 27.9483L30.4197 28.9139ZM33.3192 27.9483L25.5873 20.2171L28.4868 17.3176L36.218 25.0491L33.3192 27.9483Z" fill="white"/>
<path d="M7.48923 38.95V28.0167H6.12256V38.95C6.12256 40.0821 7.04012 41 8.17256 41H17.0559V39.6333H8.17256C7.79519 39.6333 7.48923 39.3274 7.48923 38.95Z" fill="white"/>
<path d="M33.4559 38.95C33.4559 39.3274 33.1499 39.6333 32.7726 39.6333H27.3059V41H32.7726C33.9047 41 34.8226 40.0821 34.8226 38.95V30.75H33.4559V38.95Z" fill="white"/>
<path d="M7.48923 2.05C7.48923 1.67263 7.79519 1.36667 8.17256 1.36667H27.3059V6.15C27.3059 7.2821 28.2235 8.2 29.3559 8.2H33.4559V19.1333H34.8226V7.53702C34.8226 7.36852 34.7602 7.20603 34.6474 7.08057L28.4974 0.226888C28.3679 0.0824138 28.1831 0 27.9892 0H8.17256C7.04012 0 6.12256 0.917895 6.12256 2.05V16.4H7.48923V2.05ZM28.6726 6.15V2.47041L32.5894 6.83333H29.3559C28.9785 6.83333 28.6726 6.52737 28.6726 6.15Z" fill="white"/>
<path d="M10.2227 4.10001H11.5893V5.46667H10.2227V4.10001Z" fill="white"/>
<path d="M12.9561 4.10001H18.4227V5.46667H12.9561V4.10001Z" fill="white"/>
<path d="M10.2227 6.83334H18.4227V8.20001H10.2227V6.83334Z" fill="white"/>
<path d="M10.2227 10.9333H12.956V12.3H10.2227V10.9333Z" fill="white"/>
<path d="M14.3228 10.9333H30.7228V12.3H14.3228V10.9333Z" fill="white"/>
<path d="M15.6892 15.0333H25.9392V16.4H15.6892V15.0333Z" fill="white"/>
</svg>
