<svg width="43" height="44" viewBox="0 0 43 44" fill="none" xmlns="http://www.w3.org/2000/svg">
<path d="M41.3371 24.6812C40.9806 24.0545 40.3965 23.5972 39.7121 23.409C39.0277 23.2207 38.2984 23.3167 37.6828 23.6761L25.5312 30.9223C25.5265 30.0135 25.1705 29.1436 24.5411 28.5024C23.9117 27.8612 23.06 27.5008 22.1719 27.4999H8.74311C8.68833 27.5 8.63376 27.5067 8.58052 27.5199L6.69927 28.0011C6.65504 27.49 6.42581 27.0143 6.05652 26.6672C5.68724 26.3201 5.20455 26.1267 4.70312 26.1249H3.35938C2.8248 26.1249 2.31212 26.3422 1.93411 26.729C1.55611 27.1158 1.34375 27.6404 1.34375 28.1874V40.5624C1.34375 41.1094 1.55611 41.634 1.93411 42.0208C2.31212 42.4076 2.8248 42.6249 3.35938 42.6249H4.70312C5.20317 42.6234 5.68472 42.4312 6.05379 42.086C6.42286 41.7407 6.65299 41.2672 6.69927 40.7577L8.5738 41.23C8.62635 41.2432 8.68026 41.2499 8.73438 41.2499H17.9659C18.5601 41.2499 19.1437 41.0885 19.657 40.7824L40.3622 28.437C40.9735 28.0668 41.4182 27.4657 41.6005 26.7632C41.7829 26.0607 41.6883 25.313 41.3371 24.6812ZM5.375 40.5624C5.375 40.7448 5.30421 40.9196 5.17821 41.0486C5.05221 41.1775 4.88132 41.2499 4.70312 41.2499H3.35938C3.18118 41.2499 3.01029 41.1775 2.88429 41.0486C2.75829 40.9196 2.6875 40.7448 2.6875 40.5624V28.1874C2.6875 28.0051 2.75829 27.8302 2.88429 27.7013C3.01029 27.5724 3.18118 27.4999 3.35938 27.4999H4.70312C4.88132 27.4999 5.05221 27.5724 5.17821 27.7013C5.30421 27.8302 5.375 28.0051 5.375 28.1874V40.5624ZM39.685 27.2497L18.9805 39.5944C18.6725 39.7781 18.3224 39.8749 17.9659 39.8749H8.81634L6.71875 39.3462V29.4126L8.82508 28.8749H22.1719C22.5282 28.8741 22.8784 28.9701 23.1865 29.1532C23.4947 29.3363 23.7498 29.5999 23.9256 29.917C24.1015 30.2342 24.1919 30.5934 24.1875 30.958C24.1831 31.3226 24.0841 31.6795 23.9006 31.9921C23.8165 32.1373 23.7162 32.272 23.6016 32.3936C23.2221 32.7812 22.7081 32.9992 22.1719 32.9999H15.4531V34.3749H22.1719C22.7226 34.3783 23.2654 34.2413 23.7514 33.9763C24.2373 33.7113 24.6512 33.3266 24.9555 32.8569L38.3553 24.8654C38.5063 24.7752 38.6732 24.7165 38.8465 24.6928C39.0197 24.6692 39.1959 24.681 39.3646 24.7275C39.5334 24.7741 39.6915 24.8545 39.8296 24.9641C39.9678 25.0737 40.0833 25.2103 40.1694 25.3659C40.346 25.6823 40.3941 26.0569 40.3035 26.4091C40.2129 26.7614 39.9908 27.0633 39.685 27.2497Z" fill="white"/>
<path d="M2.01562 22H30.2344C30.4126 22 30.5835 21.9276 30.7095 21.7986C30.8355 21.6697 30.9062 21.4948 30.9062 21.3125V15.4529L32.8453 16.247C33.3257 16.4441 33.8618 16.4441 34.3422 16.247L36.2812 15.4529V17.1875C36.2812 17.3698 36.352 17.5447 36.478 17.6736C36.604 17.8026 36.7749 17.875 36.9531 17.875H40.9844C41.1626 17.875 41.3335 17.8026 41.4595 17.6736C41.5855 17.5447 41.6562 17.3698 41.6562 17.1875V2.0625C41.6562 1.88016 41.5855 1.7053 41.4595 1.57636C41.3335 1.44743 41.1626 1.375 40.9844 1.375H36.9531C36.7749 1.375 36.604 1.44743 36.478 1.57636C36.352 1.7053 36.2812 1.88016 36.2812 2.0625V2.75H22.1719C21.9937 2.75004 21.8228 2.8225 21.6969 2.95144L19.2062 5.5H2.01562C1.83743 5.5 1.66654 5.57243 1.54054 5.70136C1.41454 5.8303 1.34375 6.00516 1.34375 6.1875V21.3125C1.34375 21.4948 1.41454 21.6697 1.54054 21.7986C1.66654 21.9276 1.83743 22 2.01562 22ZM37.625 2.75H40.3125V16.5H37.625V2.75ZM22.45 4.125H36.2812V13.9721L33.8437 14.9696C33.6835 15.0357 33.5046 15.0357 33.3445 14.9696L30.4843 13.8009C30.4049 13.7679 30.3201 13.7507 30.2344 13.75H24.1875C23.8311 13.75 23.4893 13.6051 23.2373 13.3473C22.9853 13.0894 22.8438 12.7397 22.8438 12.375C22.8438 12.0103 22.9853 11.6606 23.2373 11.4027C23.4893 11.1449 23.8311 11 24.1875 11H32.9219V9.625H30.9062V6.1875C30.9062 6.00516 30.8355 5.8303 30.7095 5.70136C30.5835 5.57243 30.4126 5.5 30.2344 5.5H21.1063L22.45 4.125ZM2.6875 6.875H29.5625V9.625H24.1875C23.4747 9.625 22.7912 9.91473 22.2872 10.4305C21.7831 10.9462 21.5 11.6457 21.5 12.375C21.5 13.1043 21.7831 13.8038 22.2872 14.3195C22.7912 14.8353 23.4747 15.125 24.1875 15.125H29.5625V20.625H2.6875V6.875Z" fill="white"/>
<path d="M16.125 8.25C15.0619 8.25 14.0227 8.57257 13.1388 9.17692C12.2549 9.78126 11.566 10.6402 11.1591 11.6452C10.7523 12.6502 10.6459 13.7561 10.8533 14.823C11.0607 15.8899 11.5726 16.8699 12.3243 17.6391C13.076 18.4083 14.0337 18.9321 15.0764 19.1443C16.119 19.3565 17.1998 19.2476 18.1819 18.8313C19.1641 18.4151 20.0035 17.7101 20.5942 16.8056C21.1848 15.9012 21.5 14.8378 21.5 13.75C21.4984 12.2918 20.9316 10.8938 19.9239 9.86272C18.9163 8.83163 17.55 8.25164 16.125 8.25ZM16.125 17.875C15.3277 17.875 14.5483 17.6331 13.8854 17.1798C13.2224 16.7266 12.7057 16.0823 12.4006 15.3286C12.0955 14.5748 12.0157 13.7454 12.1712 12.9453C12.3268 12.1451 12.7107 11.4101 13.2745 10.8332C13.8383 10.2563 14.5566 9.86342 15.3385 9.70426C16.1205 9.5451 16.9311 9.62679 17.6677 9.939C18.4043 10.2512 19.0339 10.7799 19.4769 11.4583C19.9198 12.1366 20.1563 12.9342 20.1563 13.75C20.1552 14.8437 19.7301 15.8923 18.9743 16.6656C18.2186 17.439 17.1938 17.8739 16.125 17.875Z" fill="white"/>
<path d="M4.03125 8.9375V11.6875H5.375V9.625H7.39062V8.25H4.70312C4.52493 8.25 4.35404 8.32243 4.22804 8.45136C4.10204 8.5803 4.03125 8.75516 4.03125 8.9375Z" fill="white"/>
<path d="M5.375 15.8125H4.03125V18.5625C4.03125 18.7448 4.10204 18.9197 4.22804 19.0486C4.35404 19.1776 4.52493 19.25 4.70312 19.25H7.39062V17.875H5.375V15.8125Z" fill="white"/>
<path d="M26.875 17.875H24.8594V19.25H27.5469C27.7251 19.25 27.896 19.1776 28.022 19.0486C28.148 18.9197 28.2188 18.7448 28.2188 18.5625V15.8125H26.875V17.875Z" fill="white"/>
</svg>
