<svg width="44" height="44" viewBox="0 0 44 44" fill="none" xmlns="http://www.w3.org/2000/svg">
<path d="M41.25 0.6875H2.75C1.61287 0.6875 0.6875 1.61287 0.6875 2.75V31.625C0.6875 32.7621 1.61287 33.6875 2.75 33.6875H24.9418L22.1348 42.1087L26.5767 39.4439L29.1397 43.7147L30.9375 36.5228L32.7353 43.7147L35.2983 39.4439L39.7402 42.1087L36.9332 33.6875H41.25C42.3871 33.6875 43.3125 32.7621 43.3125 31.625V2.75C43.3125 1.61287 42.3871 0.6875 41.25 0.6875ZM2.75 2.0625H41.25C41.6288 2.0625 41.9375 2.37119 41.9375 2.75V6.1875H2.0625V2.75C2.0625 2.37119 2.37119 2.0625 2.75 2.0625ZM23.4548 26.3395C22.9673 25.9408 22.6875 25.3619 22.6875 24.75C22.6875 24.1381 22.9673 23.5592 23.4548 23.1605L23.8384 22.847L23.6631 22.3843C23.4396 21.7958 23.4871 21.1544 23.793 20.6243C24.0989 20.0942 24.6304 19.7326 25.2519 19.6316L25.7407 19.5525L25.8197 19.0637C25.9208 18.4422 26.2824 17.9107 26.8125 17.6048C27.3426 17.2996 27.984 17.2514 28.5725 17.4749L29.0352 17.6502L29.3487 17.2666C29.7467 16.7798 30.3256 16.5 30.9375 16.5C31.5494 16.5 32.1283 16.7798 32.527 17.2673L32.8405 17.6509L33.3032 17.4756C33.891 17.2514 34.5331 17.2996 35.0632 17.6055C35.5933 17.9114 35.9549 18.4429 36.0559 19.0644L36.135 19.5532L36.6238 19.6322C37.2453 19.7333 37.7768 20.0949 38.0827 20.625C38.3886 21.1551 38.4361 21.7965 38.2126 22.385L38.0373 22.8477L38.4209 23.1612C38.9077 23.5592 39.1875 24.1381 39.1875 24.75C39.1875 25.3619 38.9077 25.9408 38.4202 26.3395L38.0366 26.653L38.2119 27.1157C38.4354 27.7042 38.3872 28.3456 38.082 28.8757C37.7767 29.4058 37.2446 29.7674 36.6231 29.8684L36.1343 29.9475L36.0553 30.4363C35.9542 31.0578 35.5926 31.5893 35.0625 31.8952C34.5331 32.2018 33.8917 32.2493 33.3025 32.0251L32.8398 31.8498L32.5263 32.2334C32.1283 32.7202 31.5494 33 30.9375 33C30.3256 33 29.7467 32.7202 29.348 32.2327L29.0345 31.8491L28.5718 32.0244C27.9826 32.2472 27.3412 32.1997 26.8118 31.8945C26.2817 31.5886 25.9201 31.0571 25.8191 30.4356L25.74 29.9468L25.2512 29.8678C24.6297 29.7667 24.0982 29.4051 23.7923 28.875C23.4864 28.3449 23.4389 27.7035 23.6624 27.115L23.8377 26.6523L23.4548 26.3395ZM28.6103 40.161L27.0483 37.5567L24.6152 39.017L26.5306 33.2709C27.1865 33.5418 27.907 33.6112 28.6069 33.4489C29.0283 33.8436 29.5398 34.1103 30.0877 34.2533L28.6103 40.161ZM34.8267 37.5567L33.2647 40.161L31.7879 34.2526C32.3359 34.1096 32.8467 33.8429 33.2688 33.4482C33.9687 33.6112 34.6892 33.5404 35.3451 33.2702L37.2604 39.0163L34.8267 37.5567ZM41.25 32.3125H36.6561C36.9463 31.9632 37.1711 31.5618 37.3058 31.1176C38.137 30.8653 38.8382 30.3153 39.2734 29.5625C39.7079 28.8097 39.8331 27.9269 39.6364 27.0806C40.2298 26.4467 40.5625 25.6197 40.5625 24.75C40.5625 23.8803 40.2298 23.0533 39.6357 22.4194C39.8331 21.5737 39.7072 20.6903 39.2728 19.9375C38.8376 19.1847 38.1363 18.6347 37.3051 18.3824C37.0528 17.5512 36.5028 16.8499 35.75 16.4147C34.9965 15.9802 34.1144 15.8537 33.2681 16.0518C32.6342 15.4577 31.8072 15.125 30.9375 15.125C30.0678 15.125 29.2408 15.4577 28.6069 16.0518C27.7606 15.8544 26.8785 15.9802 26.125 16.4147C25.3722 16.8499 24.8222 17.5512 24.5699 18.3824C23.7387 18.6347 23.0374 19.1847 22.6022 19.9375C22.1677 20.6903 22.0426 21.5731 22.2393 22.4194C21.6453 23.0533 21.3125 23.8803 21.3125 24.75C21.3125 25.6197 21.6453 26.4467 22.2393 27.0806C22.0419 27.9263 22.1677 28.8097 22.6022 29.5625C23.0374 30.3153 23.7387 30.8653 24.5699 31.1176C24.7046 31.5611 24.9294 31.9632 25.2196 32.3125H2.75C2.37119 32.3125 2.0625 32.0038 2.0625 31.625V7.5625H41.9375V31.625C41.9375 32.0038 41.6288 32.3125 41.25 32.3125Z" fill="white"/>
<path d="M30.9375 30.9375C34.3489 30.9375 37.125 28.1614 37.125 24.75C37.125 21.3386 34.3489 18.5625 30.9375 18.5625C27.5261 18.5625 24.75 21.3386 24.75 24.75C24.75 28.1614 27.5261 30.9375 30.9375 30.9375ZM30.9375 19.9375C33.5912 19.9375 35.75 22.0963 35.75 24.75C35.75 27.4037 33.5912 29.5625 30.9375 29.5625C28.2838 29.5625 26.125 27.4037 26.125 24.75C26.125 22.0963 28.2838 19.9375 30.9375 19.9375Z" fill="white"/>
<path d="M8.9375 3.4375H10.3125V4.8125H8.9375V3.4375Z" fill="white"/>
<path d="M3.4375 3.4375H4.8125V4.8125H3.4375V3.4375Z" fill="white"/>
<path d="M6.1875 3.4375H7.5625V4.8125H6.1875V3.4375Z" fill="white"/>
<path d="M3.4375 14.4375H21.3125V8.9375H3.4375V14.4375ZM4.8125 10.3125H19.9375V13.0625H4.8125V10.3125Z" fill="white"/>
<path d="M8.9375 15.8125H3.4375V19.9375H8.9375V15.8125ZM7.5625 18.5625H4.8125V17.1875H7.5625V18.5625Z" fill="white"/>
<path d="M10.3125 19.9375H21.3125V15.8125H10.3125V19.9375ZM11.6875 17.1875H19.9375V18.5625H11.6875V17.1875Z" fill="white"/>
<path d="M3.4375 21.3125H19.9375V22.6875H3.4375V21.3125Z" fill="white"/>
<path d="M3.4375 24.0625H19.9375V25.4375H3.4375V24.0625Z" fill="white"/>
<path d="M3.4375 26.8125H19.9375V28.1875H3.4375V26.8125Z" fill="white"/>
<path d="M3.4375 29.5625H11.6875V30.9375H3.4375V29.5625Z" fill="white"/>
<path d="M18.5625 29.5625H19.9375V30.9375H18.5625V29.5625Z" fill="white"/>
<path d="M15.8125 29.5625H17.1875V30.9375H15.8125V29.5625Z" fill="white"/>
<path d="M13.0625 29.5625H14.4375V30.9375H13.0625V29.5625Z" fill="white"/>
<path d="M39.1875 11.6875H40.5625V13.0625H39.1875V11.6875Z" fill="white"/>
<path d="M39.1875 8.9375H40.5625V10.3125H39.1875V8.9375Z" fill="white"/>
<path d="M39.1875 14.4375H40.5625V15.8125H39.1875V14.4375Z" fill="white"/>
<path d="M39.1875 17.1875H40.5625V18.5625H39.1875V17.1875Z" fill="white"/>
</svg>
