<svg width="68" height="72" viewBox="0 0 68 72" fill="none" xmlns="http://www.w3.org/2000/svg">
<path d="M55.76 34.8475V28.4691H8.00604V57.9651L30.3704 57.9653V55.8566H28.3729C28.3729 54.978 28.3729 49.7138 28.3729 48.8359H31.5063V46.7271H28.3729V39.7077L37.502 39.707L37.5023 30.5779H44.5218V35.0696H46.6306V30.5779H53.6513V34.8475H55.76ZM19.2439 39.7068H26.2639V46.7271H19.2439V39.7068ZM28.3729 30.5779H35.3932V37.5982H28.3729V30.5779ZM19.2439 30.5779H26.2642V37.5982H19.2439V30.5779ZM10.1148 30.5779H17.1352V37.5982H10.1148V30.5779ZM10.1148 39.7068H17.1352V46.7271H10.1148V39.7068ZM17.1351 55.8563H10.1148V48.8359H17.1352V55.8563H17.1351ZM19.2439 55.8563V48.8359H26.2639V55.8563H19.2439Z" fill="white"/>
<path d="M50.6246 37.5988C41.1401 37.5988 33.424 45.3149 33.424 54.7994C33.424 59.1231 35.0351 63.2559 37.9606 66.4366L39.5128 65.0091C36.9462 62.2187 35.5327 58.5928 35.5327 54.7994C35.5327 46.4779 42.3029 39.7075 50.6246 39.7075C58.9463 39.7075 65.7166 46.4777 65.7166 54.7994C65.7166 63.1211 58.9464 69.8913 50.6246 69.8913C47.0856 69.8913 43.6461 68.6412 40.9395 66.3714L39.5844 67.9873C42.6701 70.5749 46.5909 72 50.6244 72C60.1089 72 67.8252 64.2839 67.8252 54.7994C67.8252 45.3149 60.109 37.5988 50.6246 37.5988V37.5988Z" fill="white"/>
<path d="M49.504 43.1559V56.8877H59.3663V54.7789H51.6127V43.1559H49.504Z" fill="white"/>
<path d="M2.28285 24.7028H8.00609V22.5941H2.28285V6.86676H6.87438V12.1092H6.87452V12.1096H15.3389V12.1092H15.339V6.86676H20.7249V12.1092H20.7256V12.1096H29.1898V6.86676H34.5765V12.1096H43.0407V12.1092H43.0414V6.86676H48.4272V12.1092H48.4274V12.1096H56.8917V12.1092H56.8919V6.86676H61.4834V22.5941H10.1149V24.7028H61.4834V38.2932H63.5922V4.75797H56.8917V2.626L54.9386 0H50.3804L48.4272 2.626V4.75797H43.0407V2.626L41.0875 0H36.5295L34.5763 2.626V4.75797H29.1896V2.626L27.2366 0H22.6786L20.7254 2.626V4.75797H15.3389V2.626L13.3857 0H8.82767L6.87452 2.626V4.75797H0.174072V63.4961H31.7482V61.3873H2.28285V24.7028ZM51.44 2.10878H53.879L54.7829 3.32428V10.0004H50.5361V3.32428L51.44 2.10878ZM36.6852 3.32428L37.5892 2.10878H40.0281L40.932 3.32428V10.0004H36.6857V4.75797H36.6854V3.32428H36.6852ZM23.7382 2.10878H26.177L27.081 3.32428V4.75797H27.0807V10.0004H22.8343V3.32428L23.7382 2.10878ZM9.88726 2.10878H12.3263L13.2302 3.32428V10.0004H8.9833V3.32428L9.88726 2.10878Z" fill="white"/>
<path d="M39.1937 19.1293H37.0849V17.0205H39.1937V19.1293ZM32.8673 19.1293H30.7585V17.0205H32.8673V19.1293ZM26.541 19.1293H24.4322V17.0205H26.541V19.1293Z" fill="white"/>
<path d="M38.4341 54.7789H40.5429V56.8877H38.4341V54.7789Z" fill="white"/>
<path d="M49.5847 64.9916H51.6934V67.1003H49.5847V64.9916Z" fill="white"/>
</svg>
