<svg width="1022" height="1182" viewBox="0 0 1022 1182" fill="none" xmlns="http://www.w3.org/2000/svg">
<g opacity="0.2">
<path d="M668.331 296.025L668.331 296.023C668.32 293.484 667.639 290.993 666.356 288.801C665.073 286.61 663.233 284.795 661.023 283.541C658.814 282.286 656.312 281.636 653.77 281.656C651.229 281.677 648.737 282.366 646.548 283.656L646.545 283.658L33.8334 650.427L33.832 650.428L20.4413 658.386L20.44 658.387L0.499996 670.315L0.499989 495.83L34.2373 475.305L34.2379 475.305L634.555 111.188L691.885 76.4788L691.886 76.4785L778.324 23.9732L778.325 23.9721L813.204 2.98449L813.204 757.981L668.331 673.01L668.331 296.025Z" stroke="white"/>
<path d="M851.439 5.64067L851.44 5.6414L991.668 76.6068L991.669 76.6076L1021.5 91.8329L1021.5 1064.73L1001.44 1053.12L1001.19 1053.55L1001.44 1053.12L461.113 740.293L461.112 740.293L383.358 695.385L389.296 691.629L389.3 691.627L506.254 618.939L525.807 629.848L525.808 629.849L611.36 677.822L611.361 677.823L820.32 795.547L820.322 795.548C822.493 796.761 824.939 797.398 827.427 797.398C829.915 797.398 832.362 796.761 834.533 795.548L834.537 795.545C836.723 794.299 838.541 792.499 839.81 790.327C841.078 788.156 841.751 785.689 841.762 783.175L841.762 783.173L841.983 0.816203L851.439 5.64067Z" stroke="white"/>
<path d="M634.803 500.1L634.801 500.102L611.337 515.024L611.335 515.026L525.672 570.295L525.67 570.296L354.674 679.84L354.674 679.84L353.124 680.835L353.122 680.836L348.708 683.702C346.543 684.931 344.77 686.746 343.592 688.937C342.413 691.129 341.878 693.61 342.048 696.092C342.121 698.544 342.809 700.938 344.049 703.055C345.29 705.175 347.045 706.949 349.152 708.214L349.159 708.218L975.25 1071.44L975.264 1071.45L977.906 1073.1L977.914 1073.11L977.921 1073.11L1005.47 1089.01L990.007 1097.1L990.003 1097.1L973.848 1105.39L973.846 1105.39L827.555 1181.43L700.183 1105.41L699.955 1105.79L700.183 1105.41L641.966 1070.7L41.9815 712.662L41.9788 712.66L33.902 707.909L33.8992 707.907L13.7028 695.847L33.902 683.785L33.9024 683.785L639.661 321.336L639.661 497.042L634.803 500.1Z" stroke="white"/>
</g>
</svg>
