<svg width="310" height="471" viewBox="0 0 310 471" fill="none" xmlns="http://www.w3.org/2000/svg">
<path d="M44.1972 117.746L44.1972 117.744C44.2018 116.681 44.4866 115.639 45.023 114.721C45.5595 113.804 46.3286 113.044 47.2525 112.519C48.1764 111.994 49.2225 111.722 50.2853 111.73C51.348 111.738 52.3898 112.027 53.3052 112.567L53.3083 112.569L296.714 258.454L296.715 258.455L302.034 261.619L302.035 261.62L309.5 266.091L309.5 197.389L296.242 189.314L296.242 189.313L57.7604 44.4835L57.76 44.4833L34.985 30.6776L34.9843 30.6772L0.647169 9.79354L0.645368 9.79244L-12.7525 1.72041L-12.7525 300.967L44.1972 267.523L44.1972 117.746Z" stroke="white"/>
<path d="M-24.7003 311.513L-24.7881 0.816826L-28.1058 2.5118L-28.1073 2.51257L-83.8132 30.7391L-83.8147 30.7399L-95.5 36.7115L-95.5 422.983L-87.9848 418.626L-87.734 419.059L-87.9848 418.626L126.667 294.197L126.667 294.196L157.126 276.583L155.189 275.356L155.185 275.354L108.877 246.537L101.265 250.79L101.264 250.79L67.2789 269.871L67.278 269.872L-15.7326 316.697L-15.7342 316.698C-16.6418 317.206 -17.6643 317.472 -18.7043 317.472C-19.7443 317.472 -20.7668 317.206 -21.6744 316.698L-21.6783 316.696C-22.5925 316.174 -23.3531 315.42 -23.8836 314.51C-24.4141 313.601 -24.6957 312.568 -24.7003 311.515L-24.7003 311.513Z" stroke="white"/>
<path d="M296.38 281.316L303.969 276.779L296.377 272.239L296.377 272.239L56.1894 128.346L56.1894 197.536L57.9786 198.664L57.9806 198.665L67.3018 204.601L67.3045 204.603L101.334 226.586L101.336 226.587L169.265 270.158L169.265 270.158L169.881 270.554L169.883 270.555L171.629 271.691C172.535 272.207 173.277 272.969 173.77 273.887C174.264 274.808 174.489 275.849 174.419 276.891C174.387 277.914 174.1 278.913 173.583 279.797C173.065 280.684 172.331 281.426 171.451 281.956L171.444 281.959L-77.2685 426.43L-77.2824 426.438L-78.3237 427.089L-78.331 427.094L-78.3385 427.098L-88.8082 433.151L-83.1527 436.113L-83.1492 436.115L-76.7334 439.411L-76.7311 439.412L-18.7652 469.577L31.6902 439.426L31.9467 439.856L31.6904 439.426L54.8174 425.62L54.8176 425.62L293.168 283.208L293.17 283.207L296.377 281.318L296.38 281.316Z" stroke="white"/>
</svg>
