<svg width="1022" height="1182" fill="none" xmlns="http://www.w3.org/2000/svg"><g opacity=".2" stroke="#fff"><path d="M668.331 296.025v-.002a14.42 14.42 0 00-7.308-12.482 14.453 14.453 0 00-14.475.115l-.003.002L33.833 650.427l-.001.001-13.39 7.958-.002.001L.5 670.315V495.83l33.737-20.525h0l600.318-364.117 57.33-34.71h.001l86.438-52.505h.001l34.879-20.989v754.997L668.331 673.01V296.025z"/><path d="M851.439 5.64l.001.001 140.228 70.966h.001l29.831 15.226v972.897l-20.06-11.61-.25.43.25-.43-540.327-312.827h-.001l-77.754-44.908 5.938-3.756.004-.002 116.954-72.688 19.553 10.909.001.001 85.552 47.973.001.001L820.32 795.547l.002.001a14.567 14.567 0 0014.211 0l.004-.003a14.305 14.305 0 007.225-12.37v-.002L841.983.816l9.456 4.825z"/><path d="M634.803 500.1l-.002.002-23.464 14.922-.002.002-85.663 55.269-.002.001L354.674 679.84h0l-1.55.995-.002.001-4.414 2.866a13.216 13.216 0 00-6.66 12.39 14.651 14.651 0 007.104 12.122l.007.004L975.25 1071.44l.014.01 2.642 1.65.008.01h.007l27.549 15.9-15.463 8.09h-.004l-16.155 8.29h-.002l-146.291 76.04-127.372-76.02-.228.38.228-.38-58.217-34.71L41.981 712.662l-.002-.002-8.077-4.751-.003-.002-20.196-12.06 20.199-12.062h0l605.759-362.449v175.706l-4.858 3.058z"/></g></svg>