<svg width="310" height="471" fill="none" xmlns="http://www.w3.org/2000/svg"><path d="M44.197 117.746v-.002a6.042 6.042 0 016.088-6.014 6.034 6.034 0 013.02.837l.003.002 243.406 145.885.001.001 5.319 3.164.001.001 7.465 4.471v-68.702l-13.258-8.075v-.001L57.76 44.483h0L34.985 30.678h0L.646 9.793l-.002-.002-13.397-8.072v299.247l56.95-33.444V117.746z" stroke="#fff"/><path d="M-24.7 311.513L-24.788.817l-3.318 1.695h-.001L-83.813 30.74h-.002L-95.5 36.713v386.271l7.515-4.357.251.433-.25-.433 214.651-124.429v-.001l30.459-17.613-1.937-1.227-.004-.002-46.308-28.817-7.612 4.253h-.001l-33.985 19.081-.001.001-83.01 46.825-.002.001a6.08 6.08 0 01-5.94 0l-.004-.002a5.992 5.992 0 01-3.022-5.181v-.002z" stroke="#fff"/><path d="M296.38 281.316l7.589-4.537-7.592-4.54h0L56.189 128.346v69.19l1.79 1.128.002.001 9.32 5.936.004.002 34.029 21.983.002.001 67.929 43.571h0l.616.396.002.001 1.746 1.136a5.548 5.548 0 012.79 5.2 6.136 6.136 0 01-2.968 5.065l-.007.003L-77.268 426.43l-.014.008-1.042.651-.007.005-.007.004-10.47 6.053 5.655 2.962.004.002 6.416 3.296.002.001 57.966 30.165 50.455-30.151.257.43-.257-.43 23.127-13.806h0l238.351-142.412.002-.001 3.207-1.889.003-.002z" stroke="#fff"/></svg>