<svg width="86" height="86" fill="none" xmlns="http://www.w3.org/2000/svg"><g filter="url(#filter0_d)"><g clip-path="url(#clip0)" fill="#fff"><path d="M78 69.303L67.613 59.128l-5.11 2.05-7.514-7.36a16.667 16.667 0 004.333-11.225c0-9.226-7.506-16.733-16.733-16.733a16.706 16.706 0 00-10.959 4.1L33 31.534a14.62 14.62 0 019.59-3.586c8.075 0 14.645 6.57 14.645 14.645 0 3.747-1.415 7.17-3.738 9.762l-4.89-4.79a7.773 7.773 0 001.79-4.972c0-4.306-3.502-7.809-7.808-7.809s-7.809 3.503-7.809 7.809 3.503 7.809 7.809 7.809a7.764 7.764 0 004.481-1.42l4.927 4.826a14.578 14.578 0 01-9.408 3.43c-8.075 0-14.645-6.569-14.645-14.645 0-3.567 1.304-7.007 3.671-9.686l-1.564-1.382a16.702 16.702 0 00-4.195 11.068c0 9.227 7.507 16.733 16.733 16.733 4.162 0 7.974-1.528 10.905-4.051l7.548 7.394-1.944 5.152 10.386 10.175 2.347-6.218L78 69.303zm-13.868-6.53l2.994-1.2 7.129 6.983-2.994 1.201c-.849-.83-5.992-5.87-7.13-6.983zM42.589 48.315a5.728 5.728 0 01-5.721-5.721 5.728 5.728 0 015.721-5.721 5.728 5.728 0 015.722 5.721c0 1.32-.45 2.534-1.203 3.503l-3.788-3.71-1.46 1.491 3.686 3.612a5.688 5.688 0 01-2.957.825zm26.072 25.952l-7.129-6.983 1.14-3.018 7.128 6.983-1.14 3.018z"/><path d="M70.972 58.419l1.822 1.019c7.017-12.549 5.624-28.645-4.408-39.876l-1.556 1.391c9.433 10.561 10.728 25.689 4.142 37.466zM42.59 75.086c-17.96 0-32.495-14.53-32.495-32.493 0-17.96 14.532-32.495 32.495-32.495 8.611 0 16.725 3.334 22.845 9.387l1.468-1.484C53.4 4.645 31.623 4.651 18.136 18.14c-13.513 13.514-13.516 35.39 0 48.906 11.367 11.366 28.296 12.965 41.199 5.809l-1.013-1.826a32.511 32.511 0 01-15.732 4.058z"/><path d="M60.847 57.482l1.613 1.325a25.48 25.48 0 005.787-16.214c0-14.147-11.51-25.657-25.657-25.657-14.148 0-25.658 11.51-25.658 25.657 0 14.148 11.51 25.658 25.658 25.658 5.889 0 11.506-1.986 16.113-5.704l-1.31-1.624c-4.264 3.44-9.431 5.24-14.803 5.24-12.997 0-23.57-10.573-23.57-23.57 0-12.996 10.573-23.57 23.57-23.57 12.996 0 23.57 10.574 23.57 23.57a23.41 23.41 0 01-5.313 14.89zM41.555 12.49h2.088v2.087h-2.088v-2.088zm0 58.12h2.088v2.087h-2.088V70.61zm29.051-29.051h2.088v2.087h-2.088V41.56zm-58.12 0h2.087v2.087h-2.087V41.56z"/><path d="M55.364 28.352l1.476-1.476 1.475 1.476-1.475 1.476-1.476-1.476zM26.862 56.848l1.476-1.476 1.475 1.476-1.475 1.476-1.476-1.476zm-.01-28.499l1.476-1.476 1.476 1.476-1.476 1.476-1.476-1.476z"/></g></g><defs><clipPath id="clip0"><path d="M8 8h70v70H8V8z" fill="#fff"/></clipPath><filter id="filter0_d" x="0" y="0" width="86" height="86" filterUnits="userSpaceOnUse" color-interpolation-filters="sRGB"><feFlood flood-opacity="0" result="BackgroundImageFix"/><feColorMatrix in="SourceAlpha" values="0 0 0 0 0 0 0 0 0 0 0 0 0 0 0 0 0 0 127 0"/><feOffset/><feGaussianBlur stdDeviation="4"/><feColorMatrix values="0 0 0 0 1 0 0 0 0 1 0 0 0 0 1 0 0 0 1 0"/><feBlend in2="BackgroundImageFix" result="effect1_dropShadow"/><feBlend in="SourceGraphic" in2="effect1_dropShadow" result="shape"/></filter></defs></svg>