<svg width="87" height="88" fill="none" xmlns="http://www.w3.org/2000/svg"><g filter="url(#filter0_d)" fill="#fff"><path d="M46.834 58.716H34.609v2.124h12.225v-2.124zm8.891 0h-2.223v2.124h2.223v-2.124zM74.554 32.73H72.46V21.395h-3.398V19.27h5.492v13.46zm.001 6.762H72.46v2.254h2.095v-2.254zM26.83 48.573h-2.224v2.124h2.223v-2.124zM14.54 25.968h-2.094V19.27h7.715v2.125h-5.62v4.573zm46.742-3.317H41.277v2.124h20.005v-2.124zm0 9.017H50.17v2.124h11.113v-2.124zm-4.445-18.033h-2.223v2.124h2.223v-2.124z"/><path d="M79 66.475V14.762H66.775V8H51.28v2.124h13.4v29.433h-10.5l-5.187 5.26v-5.26H37.879V10.124h10.067V8H35.785v6.762H8v51.713h24.156l-1.699 6.893h-4.445L24.377 80h38.246l-1.635-6.632h-4.445l-1.7-6.892H79zm-68.906-2.123v-9.147h45.631v-2.124H36.768v-2.319c0-4.666-2.828-8.673-6.836-10.356a7.85 7.85 0 003.502-6.55c0-4.314-3.462-7.824-7.716-7.824s-7.716 3.51-7.716 7.825a7.85 7.85 0 003.502 6.549c-4.008 1.683-6.836 5.69-6.836 10.356v2.32h-4.573V16.885h25.69V41.68h11.113v8.264l8.15-8.264h11.727V16.886h10.13v36.195H59.06v2.124h17.847v9.147H10.094zm10.003-30.495c0-3.143 2.522-5.7 5.621-5.7 3.1 0 5.621 2.557 5.621 5.7 0 3.143-2.522 5.7-5.621 5.7-3.1 0-5.621-2.557-5.621-5.7zM34.673 53.08h-17.91v-2.319c0-5.007 4.017-9.081 8.955-9.081s8.955 4.074 8.955 9.081v2.32zm24.68 22.41l.588 2.385H27.059l.588-2.384h13.63v-2.124h-8.66l1.698-6.892h18.37l1.699 6.892H44.61v2.124h14.742z"/><path d="M51.28 58.716h-2.223v2.124h2.222v-2.124zm23.275-23.732H72.46v2.254h2.095v-2.254zm0 9.016H72.46v2.254h2.095V44zm-47.725.065h-2.224v2.124h2.223v-2.124zm34.452-25.922H41.277v2.124h20.005v-2.124zm0 9.017H41.277v2.124h20.005V27.16zm0-13.525h-2.223v2.124h2.223v-2.124zM47.945 31.668h-2.222v2.124h2.222v-2.124z"/></g><defs><filter id="filter0_d" x="0" y="0" width="87" height="88" filterUnits="userSpaceOnUse" color-interpolation-filters="sRGB"><feFlood flood-opacity="0" result="BackgroundImageFix"/><feColorMatrix in="SourceAlpha" values="0 0 0 0 0 0 0 0 0 0 0 0 0 0 0 0 0 0 127 0"/><feOffset/><feGaussianBlur stdDeviation="4"/><feColorMatrix values="0 0 0 0 1 0 0 0 0 1 0 0 0 0 1 0 0 0 1 0"/><feBlend in2="BackgroundImageFix" result="effect1_dropShadow"/><feBlend in="SourceGraphic" in2="effect1_dropShadow" result="shape"/></filter></defs></svg>