<svg width="256" height="64" viewBox="0 0 256 64" fill="none" xmlns="http://www.w3.org/2000/svg">
<path d="M4.77228 0V39.5429L6.94717 35.8996V2.17489H27.0892L28.0866 0.512547L28.3913 0H4.77228ZM45.6381 0L46.9679 2.17489H67.103V35.3247L69.2779 38.9126V0H45.6381Z" fill="white"/>
<path d="M73.9325 50.9645H26.5143L31.8753 41.8355H55.5151C55.6687 41.8349 55.8194 41.7937 55.9519 41.7162C56.0845 41.6387 56.1943 41.5275 56.2702 41.3941C56.346 41.2605 56.3854 41.1094 56.3841 40.9558C56.3829 40.8023 56.3412 40.6518 56.2632 40.5195L33.2814 2.1749L32.7827 1.3368L32.0069 0.0415649H43.013L44.3082 2.16797L67.1238 39.7368L69.2987 43.3247L72.5887 48.7342L73.9325 50.9645Z" fill="white"/>
<path d="M74.0641 52.703L73.7385 53.3402L69.2918 62.116L68.329 64H7.29352L8.04849 62.6978L27.6502 28.8831L30.49 23.9723L30.7533 24.3879L35.3178 31.7229L34.6251 32.9628L31.6191 38.3169L24.2424 51.3939C24.169 51.5252 24.1305 51.673 24.1305 51.8234C24.1305 51.9737 24.169 52.1216 24.2424 52.2528C24.3178 52.3848 24.4267 52.4946 24.558 52.5712C24.6893 52.6478 24.8385 52.6885 24.9905 52.6892L74.0641 52.703Z" fill="white"/>
<path d="M53.9844 40.1039H42.9022L42.7013 39.7853L41.7662 38.3169L38.303 32.9559L31.4389 22.2546L31.3766 22.1576L31.1965 21.8805C31.1224 21.7498 31.0129 21.6428 30.8805 21.5717C30.7481 21.5006 30.5984 21.4684 30.4485 21.4788C30.2999 21.4831 30.1548 21.5247 30.0265 21.5997C29.8982 21.6748 29.7909 21.7808 29.7143 21.9082L6.95411 61.0909L6.85022 61.2571L5.8251 63.0303L5.29177 62.0121L4.77229 61.0009L0 51.8303L4.77229 43.8442L6.94719 40.2009L29.3818 2.65283L29.6797 2.14719L30.4623 0.838104L31.245 2.14719L53.9844 40.1039Z" fill="white"/>
<path d="M88.9697 23.9792V30.3931H98.5974V23.9792H101.804V40.0208H98.5974V33.6069H88.9697V40.0208H85.7628V23.9792H88.9697Z" fill="white"/>
<path d="M108.218 23.9792V40.0208H105.039V23.9792H108.218Z" fill="white"/>
<path d="M127.467 40.0208H111.425V23.9792H127.467V27.1861H114.639V36.8069H124.26V33.6H121.053V30.3931H127.467V40.0208Z" fill="white"/>
<path d="M133.881 23.9792V30.3931H143.501V23.9792H146.708V40.0208H143.501V33.6069H133.881V40.0208H130.667V23.9792H133.881Z" fill="white"/>
<path d="M149.922 23.9792H165.991V27.1861H159.55V40.0208H156.343V27.1861H149.922V23.9792Z" fill="white"/>
<path d="M185.212 23.9792V27.1861H169.171V23.9792H185.212ZM169.171 30.3931H185.212V33.6H172.377V36.8069H185.212V40.0138H169.171V30.3931Z" fill="white"/>
<path d="M188.419 23.9792H204.461V27.1861H191.619V36.8069H204.454V40.0138H188.419V23.9792Z" fill="white"/>
<path d="M210.874 23.9792V30.3931H220.502V23.9792H223.709V40.0208H220.502V33.6069H210.874V40.0208H207.667V23.9792H210.874Z" fill="white"/>
<path d="M226.944 40.0208V36.8139H230.151V40.0208H226.944Z" fill="white"/>
<path d="M236.537 23.9792V40.0208H233.33V23.9792H236.537Z" fill="white"/>
<path d="M239.744 23.9792H255.785V27.1861H249.371V40.0208H246.165V27.1861H239.751L239.744 23.9792Z" fill="white"/>
</svg>
