<svg viewBox="0 0 569 851" fill="none" xmlns="http://www.w3.org/2000/svg"><path d="M88.17 637.872v.002a10.527 10.527 0 0015.876 9.024l.003-.002 440.58-264.061.001-.001 9.629-5.73h.001l14.125-8.46v125.297l-24.192 14.736h0L112.526 770.828l-.001.001-41.224 24.989h0L9.145 833.62l-.001.001-24.867 14.982V305.524L88.17 366.535v271.337z" stroke="#fff"/><path d="M-36.538 287.142l-.16 563.041-6.594-3.369-.001-.001-100.832-51.092-.002-.001-21.373-10.922V84.671l14.211 8.24 388.533 225.224h0l55.711 32.217-4.074 2.58-.004.002-84.026 52.288-13.987-7.814h-.001l-61.517-34.539h-.001L-20.91 278.111h-.002a10.598 10.598 0 00-10.356 0l-.004.002a10.447 10.447 0 00-5.266 9.027v.002z" stroke="#fff"/><path d="M112.495 491.063l.002-.001 16.872-10.744.002-.002 61.598-39.792.001-.001 122.957-78.867h.001l1.114-.717.002-.001 3.17-2.061a9.656 9.656 0 004.856-9.047 10.678 10.678 0 00-5.176-8.84l-.006-.004-450.197-261.507-.014-.008-1.896-1.186-.008-.004-.007-.005-19.588-11.324 10.891-5.704.004-.002 11.616-5.967.002-.002L-26.187.572l91.522 54.691.257-.43-.257.43 41.862 24.99 431.428 257.775.003.001 5.807 3.421.003.001 14.321 8.563-14.324 8.563v.001L109.067 619.401V493.224l3.428-2.161z" stroke="#fff"/></svg>