<svg viewBox="0 0 534 619" fill="none" xmlns="http://www.w3.org/2000/svg"><path d="M349.445 154.868v-.002a7.785 7.785 0 00-7.848-7.753 7.787 7.787 0 00-3.894 1.079l-.003.002L17.556 340.072l-.002.001-6.996 4.163v.001L.5 350.26v-90.728l17.513-10.668h0l313.67-190.491h0l29.956-18.158h0l45.163-27.469.002-.001 17.862-10.761v394.144l-75.22-44.173V154.868z" stroke="#fff"/><path d="M440.064 409.724L440.179.817l4.593 2.346.002.001 73.269 37.126h.001l15.456 7.9v508.422l-10.121-5.868-282.325-163.658-.001-.001-40.286-23.296 2.769-1.754.003-.002 60.988-37.952 10.093 5.639h.001l44.7 25.097.001.001 109.182 61.588.002.001a7.847 7.847 0 007.659 0l.004-.002a7.733 7.733 0 003.895-6.678v-.002z" stroke="#fff"/><path d="M331.56 261.43l-.001.002-12.26 7.807-.003.002-44.759 28.914h-.001l-89.346 57.309h0l-.81.521-.002.001-2.301 1.495a7.152 7.152 0 00-3.594 6.698 7.906 7.906 0 003.828 6.534l.006.004 327.13 190.02.013.008 1.374.859.008.005.007.004 14.019 8.105-7.694 4.029-.003.002-8.44 4.336-.002.001-76.319 39.716-66.438-39.702-.242.405.242-.405-30.419-18.159-313.495-187.31-.003-.002-4.218-2.485-.003-.001-10.21-6.104 10.213-6.106h0l316.15-189.402V259.9l-2.427 1.53z" stroke="#fff"/></svg>