<svg width="48" height="48" fill="none" xmlns="http://www.w3.org/2000/svg"><path d="M10.166 24.552l1.105-1.104-4.135-4.135 4.135-4.136-1.105-1.104L5.48 18.76a.781.781 0 000 1.105l4.687 4.687zm27.668 0l4.687-4.687a.78.78 0 000-1.105l-4.687-4.687-1.105 1.104 4.135 4.136-4.135 4.135 1.105 1.104zM17.75 19.313h4.688a.781.781 0 00.78-.782V10.72a.781.781 0 00-.78-.781H17.75a.781.781 0 00-.781.78v7.813a.781.781 0 00.781.782zm.781-7.813h3.125v6.25h-3.125V11.5zm-.781 17.188h4.688a.781.781 0 00.78-.782v-6.25a.781.781 0 00-.78-.781H17.75a.781.781 0 00-.781.781v6.25a.781.781 0 00.781.782zm.781-6.25h3.125v4.687h-3.125v-4.688zm7.032 6.25h4.687a.781.781 0 00.781-.782V10.72a.781.781 0 00-.781-.781h-4.688a.781.781 0 00-.78.78v17.188a.781.781 0 00.78.782zm.78-17.188h3.126v15.625h-3.125V11.5zm-1.562 24.219H23.22v1.562h1.562V35.72z" fill="#fff"/><path d="M45.094 9.938h-.782V6.812a.781.781 0 00-.59-.757l-1.01-.253.536-.893a.782.782 0 00-.117-.954l-2.212-2.21a.781.781 0 00-.953-.118l-.893.536-.253-1.01a.781.781 0 00-.758-.59h-3.124a.781.781 0 00-.758.59l-.253 1.01-.893-.536a.781.781 0 00-.953.118l-2.212 2.21a.781.781 0 00-.117.954l.536.893-1.01.253a.781.781 0 00-.59.758h-9.375a.781.781 0 00-.592-.758l-1.009-.253.536-.893a.782.782 0 00-.117-.954l-2.212-2.21a.781.781 0 00-.953-.118l-.893.536-.253-1.01a.781.781 0 00-.758-.59H9.938a.781.781 0 00-.758.59l-.253 1.01-.893-.536a.781.781 0 00-.954.118l-2.21 2.21a.781.781 0 00-.118.954l.535.893-1.008.253a.781.781 0 00-.591.758v3.125h-.782A2.344 2.344 0 00.562 12.28v25a2.344 2.344 0 002.344 2.344h15.485l-.521 3.125h-.901a.78.78 0 00-.625.313L14 46.187a.78.78 0 00.625 1.25h18.75a.78.78 0 00.625-1.25l-2.344-3.124a.78.78 0 00-.625-.313h-.9l-.522-3.125h15.485a2.343 2.343 0 002.343-2.344v-25a2.343 2.343 0 00-2.343-2.344zM32.17 5.902l-.765-1.273 1.349-1.349 1.273.765a.782.782 0 001.16-.48l.36-1.44h1.905l.36 1.44a.782.782 0 001.16.48l1.274-.765 1.348 1.349-.764 1.273a.78.78 0 00.48 1.16l1.44.36v1.905l-1.44.36a.761.761 0 00-.381.25H39.19a3.093 3.093 0 00-.225-3.488 3.115 3.115 0 00-5.216.473.759.759 0 00-.375-.11H32.07a.767.767 0 00.15-.208.781.781 0 00-.05-.702zm2.767 2.473a1.562 1.562 0 113.125 0 1.562 1.562 0 01-3.124 0zm-2.343 0V30.25H15.406V8.375h17.188zM6.69 9.688l-1.44-.36V7.422l1.44-.36a.781.781 0 00.48-1.16l-.765-1.274L7.754 3.28l1.273.765a.781.781 0 001.16-.48l.36-1.44h1.905l.36 1.44a.782.782 0 001.16.48l1.274-.765 1.348 1.349-.764 1.273a.78.78 0 00-.052.703c.038.078.09.149.15.21h-1.303a.759.759 0 00-.375.108 3.112 3.112 0 10-5.44 3.014H7.07a.76.76 0 00-.381-.25zm3.247-1.313a1.562 1.562 0 113.125 0 1.562 1.562 0 01-3.124 0zM2.907 11.5h10.937v19.531a.781.781 0 00.781.782h18.75a.781.781 0 00.781-.782V11.5h10.938a.781.781 0 01.781.781v21.094H2.125V12.281a.781.781 0 01.781-.781zm28.905 34.375H16.188l1.172-1.563h13.282l1.172 1.563zm-3.265-3.125h-9.094l.521-3.125h8.052l.52 3.125zm16.547-4.688H2.906a.781.781 0 01-.781-.78v-2.344h43.75v2.343a.781.781 0 01-.781.782z" fill="#fff"/></svg>