<svg width="50" height="50" fill="none" xmlns="http://www.w3.org/2000/svg"><path d="M47.656 1.563H33.594a.781.781 0 00-.782.78v9.376a.781.781 0 00.782.781h1.562v2.344a.781.781 0 001.215.65L40.86 12.5h6.797a.781.781 0 00.782-.781V2.344a.781.781 0 00-.782-.781zm-.781 9.374h-6.25a.785.785 0 00-.434.132l-3.472 2.315v-1.665a.781.781 0 00-.782-.781h-1.562V3.125h12.5v7.813z" fill="#fff"/><path d="M43.75 4.688h1.563V6.25H43.75V4.687zm-4.687 0h3.124V6.25h-3.124V4.687zm-3.125 0H37.5V6.25h-1.563V4.687zm0 3.125h4.687v1.562h-4.688V7.812zm-3.165 18.75h.04a2.344 2.344 0 002.343-2.344v-.782a2.344 2.344 0 00-1.426-2.156l1.197-1.197a.78.78 0 00.23-.553V17.97a7.04 7.04 0 00-7.032-7.032h-6.25a7.04 7.04 0 00-7.031 7.032v1.562a.78.78 0 00.229.553l1.197 1.197a2.344 2.344 0 00-1.426 2.157v.78a2.344 2.344 0 002.344 2.345h.04a7.813 7.813 0 0015.546 0h-.001zm.82-2.344a.782.782 0 01-.78.781v-2.344a.781.781 0 01.78.782v.78zm-17.187-6.25a5.475 5.475 0 015.469-5.469h6.25a5.476 5.476 0 015.469 5.469v1.239l-.782.781v-.458a.781.781 0 00-.575-.754l-8.594-2.343a.788.788 0 00-.513.035l-5.47 2.344a.78.78 0 00-.473.718v.458l-.78-.781v-1.24zm0 6.25v-.782a.781.781 0 01.782-.78V25a.781.781 0 01-.782-.781zM25 32.03a6.257 6.257 0 01-6.25-6.25v-5.735l4.744-2.031 7.756 2.113v5.653A6.257 6.257 0 0125 32.03z" fill="#fff"/><path d="M29.688 33.594h-9.375c-1.052 0-2.1.116-3.125.346v-1.909a.782.782 0 00-.782-.78h-1.562v-2.345a.781.781 0 00-1.215-.65L9.14 31.25H2.344a.781.781 0 00-.781.781v9.375a.781.781 0 00.78.782h5.019a14.071 14.071 0 00-1.112 5.468.781.781 0 00.781.782H42.97a.781.781 0 00.781-.782 14.063 14.063 0 00-14.063-14.062zm-.938 1.562l-1.3 7.032h-4.898l-1.302-7.032h7.5zM3.125 32.813h6.25a.786.786 0 00.434-.132l3.472-2.314v1.664a.781.781 0 00.781.782h1.563v7.812h-12.5v-7.812zm4.71 14.062c.1-1.63.525-3.224 1.25-4.687h7.321a.781.781 0 00.782-.782v-5.851a12.601 12.601 0 012.48-.375l1.466 7.931a.78.78 0 00.768.64h6.196a.78.78 0 00.768-.64l1.466-7.923a12.475 12.475 0 0111.831 11.687H7.836zM42.188 7.813h3.124v1.562h-3.124V7.812zM2.344 9.375h8.36l4.49 2.994a.781.781 0 001.212-.65V9.375h1.563a.781.781 0 00.781-.781v-6.25a.781.781 0 00-.781-.781H2.344a.781.781 0 00-.781.78v6.25a.781.781 0 00.78.782zm.781-6.25h14.063v4.688h-1.563a.781.781 0 00-.781.78v1.666L11.37 7.944a.786.786 0 00-.434-.131H3.125V3.125z" fill="#fff"/><path d="M4.688 4.688h3.125V6.25H4.688V4.687zm4.687 0H12.5V6.25H9.375V4.687zm4.688 0h1.562V6.25h-1.563V4.687zM4.688 37.5H6.25v1.563H4.687V37.5zm3.125 0h3.125v1.563H7.812V37.5zm4.687 0h1.563v1.563H12.5V37.5zm-3.125-3.125h4.688v1.563H9.375v-1.563zm-4.687 0h3.125v1.563H4.688v-1.563z" fill="#fff"/></svg>