<svg width="50" height="50" fill="none" xmlns="http://www.w3.org/2000/svg"><path d="M7.813 7.813h3.125v1.562H7.812V7.812zM4.688 4.688h6.25V6.25h-6.25V4.687zm-3.125 0h1.562V6.25H1.562V4.687zm7.812-3.125h1.563v1.562H9.374V1.562zm-7.812 0h6.25v1.562h-6.25V1.562zm37.5 6.25h3.124v1.562h-3.124V7.812zm0-3.125h6.25V6.25h-6.25V4.687zm7.812 0h1.563V6.25h-1.563V4.687zm-7.812-3.125h1.562v1.562h-1.563V1.562zm3.125 0h6.25v1.562h-6.25V1.562zm-15.625 6.25h3.125v1.562h-3.125V7.812zm-6.25 0H25v1.562h-4.688V7.812zm0-3.125h1.562V6.25h-1.563V4.687zm7.812-3.125h1.563v1.562h-1.563V1.562zm-7.812 0h6.25v1.562h-6.25V1.562zM8.594 15.625h1.562v1.563H8.594v-1.563zm3.125 0h1.562v1.563H11.72v-1.563zm3.125 0h1.562v1.563h-1.562v-1.563zM12.5 31.25h9.375v1.563H12.5V31.25zm-3.125 0h1.563v1.563H9.374V31.25zm7.813-3.125h4.687v1.563h-4.688v-1.563zm-7.813 0h6.25v1.563h-6.25v-1.563zM12.5 37.5h9.375v1.563H12.5V37.5zm-3.125 0h1.563v1.563H9.374V37.5zm7.813-3.125h4.687v1.563h-4.688v-1.563zm-7.813 0h6.25v1.563h-6.25v-1.563zm3.125 6.25h9.375v1.563H12.5v-1.563zm-3.125 0h1.563v1.563H9.374v-1.563zm12.5-18.75H25v1.563h-3.125v-1.563zm-9.375 0h7.813v1.563H12.5v-1.563zM35.938 25H37.5v1.563h-1.563V25zm0 12.5H37.5v1.563h-1.563V37.5z" fill="#fff"/><path d="M47.656 7.813H43.75v1.562h3.125v29.688H43.75v-24.22a2.343 2.343 0 00-2.344-2.343h-7.031V5.469a.781.781 0 00-.781-.782H23.437V6.25h9.375v6.25H8.595a2.344 2.344 0 00-2.344 2.344v19.531H3.125v-25H6.25V7.812H2.344a.781.781 0 00-.781.782v26.562a.781.781 0 00.78.782H6.25v10.156a2.343 2.343 0 002.344 2.343h32.812a2.343 2.343 0 002.344-2.343v-5.469h3.906a.781.781 0 00.782-.781V8.594a.781.781 0 00-.782-.781zm-6.25 6.25a.781.781 0 01.782.78v3.907h-7.813v-4.688h7.031zm-32.812 0h24.218v4.687h-25v-3.906a.781.781 0 01.782-.781zm-.781 12.5h14.843a.781.781 0 01.782.78V42.97a.781.781 0 01-.782.781H7.813V26.562zm34.374 19.53a.781.781 0 01-.78.782H8.593a.781.781 0 01-.781-.781v-.782h14.843A2.343 2.343 0 0025 42.97V27.344A2.343 2.343 0 0022.656 25H7.813v-4.688h25v1.563h-3.907a2.343 2.343 0 00-2.343 2.344v6.25a2.343 2.343 0 002.343 2.343h9.375a2.343 2.343 0 002.344-2.343v-6.25a2.343 2.343 0 00-2.344-2.344h-3.906v-1.563h7.813v18.75h-1.563V36.72a2.343 2.343 0 00-2.344-2.344h-9.375a2.343 2.343 0 00-2.343 2.344v6.25a2.343 2.343 0 002.343 2.343h9.375a2.343 2.343 0 002.344-2.343v-2.344h1.563v5.469zm-3.906-22.656a.781.781 0 01.782.782v6.25a.781.781 0 01-.782.781h-9.375a.781.781 0 01-.781-.781v-6.25a.781.781 0 01.781-.782h9.375zm.782 13.282v6.25a.781.781 0 01-.782.781h-9.375a.781.781 0 01-.781-.781v-6.25a.781.781 0 01.781-.782h9.375a.781.781 0 01.782.782z" fill="#fff"/><path d="M9.375 21.875h1.563v1.563H9.374v-1.563z" fill="#fff"/></svg>