<svg width="50" height="50" fill="none" xmlns="http://www.w3.org/2000/svg"><path d="M48.313 2.362a.782.782 0 00-.675-.676C47.181 1.627 36.41.331 30.413 6.328a25.76 25.76 0 00-3.01 3.618l-.86-.86a.782.782 0 00-.86-.165l-7.734 3.315a.781.781 0 00-.32.26H3.124A2.343 2.343 0 00.781 14.84v31.254a2.344 2.344 0 002.344 2.343h32.813a2.344 2.344 0 002.343-2.343V30.83l2.794-6.518a.782.782 0 00-.166-.86l-.859-.858a25.807 25.807 0 003.622-3.008c5.997-5.993 4.7-16.769 4.641-17.225zM35.596 24.77L32.5 21.676l1.344-2.24a.78.78 0 00-.118-.954l-2.21-2.21a.781.781 0 00-.953-.117l-2.24 1.345-3.094-3.094 6.63-2.21 5.946 5.947-2.21 6.627zm-9.602-5.183a6.62 6.62 0 011.25-.962l4.133 4.133a6.6 6.6 0 01-.962 1.25c-1.426 1.426-4.26 1.162-5.405.986-.179-1.148-.441-3.978.984-5.407zm5.37.95l-1.9-1.9 1.38-.825 1.347 1.348-.828 1.377zm-5.548-9.968l.725.725c-.245.415-.468.834-.683 1.255l-2.32.773a.78.78 0 00-.304 1.293l.841.841-1.548.664-2.897-2.899 6.186-2.652zM3.125 14.062H18.26l3.537 3.536a.781.781 0 00.86.165l2.607-1.117.838.838c-.435.294-.84.628-1.212.998-.085.084-.156.178-.235.268H2.345v-3.906a.782.782 0 01.781-.781zm-.781 21.876h14.844a.781.781 0 01.78.78v6.25a.781.781 0 01-.78.782H2.344v-7.813zm33.593 10.937H3.126a.781.781 0 01-.781-.781v-.782h14.844a2.344 2.344 0 002.343-2.343v-6.25a2.344 2.344 0 00-2.343-2.344H2.344V20.312h21.425a11.216 11.216 0 00-.194 5.527.782.782 0 00.587.586c.854.18 1.726.27 2.599.269 1.562 0 3.482-.309 4.757-1.583.37-.372.704-.777.998-1.212l.838.838-1.117 2.607a.782.782 0 00.165.86l4.088 4.087a.767.767 0 00.229.156v13.647a.781.781 0 01-.782.781zm3.494-22.69l-2.652 6.186-2.898-2.897.663-1.547.841.842a.781.781 0 001.294-.306l.773-2.32c.42-.21.837-.439 1.25-.684l.729.725zm-1.25-2.233l1.258-3.775a.781.781 0 00-.188-.8l-6.63-6.628a.774.774 0 00-.8-.189l-3.774 1.259a23.772 23.772 0 013.471-4.385c4.68-4.68 12.983-4.429 15.303-4.255.175 2.323.432 10.616-4.255 15.303a23.761 23.761 0 01-4.384 3.471h-.002z" fill="#fff"/><path d="M41.462 4.632a3.906 3.906 0 10-.002 7.812 3.906 3.906 0 00.002-7.812zm1.657 5.564a2.344 2.344 0 11-3.315-3.315 2.344 2.344 0 013.315 3.315zM3.125 15.625h1.563v1.563H3.125v-1.563zm3.125 0h1.563v1.563H6.25v-1.563zm3.125 0h1.563v1.563H9.374v-1.563zM14.844 37.5h1.562v1.563h-1.562V37.5zm17.969-3.125h-9.376a2.344 2.344 0 00-2.343 2.344v6.25a2.344 2.344 0 002.343 2.343h9.375a2.344 2.344 0 002.344-2.343v-6.25a2.344 2.344 0 00-2.343-2.344zm.78 8.594a.781.781 0 01-.78.781h-9.376a.781.781 0 01-.78-.781v-6.25a.781.781 0 01.78-.782h9.375a.781.781 0 01.782.782v6.25z" fill="#fff"/><path d="M30.469 37.5h1.562v1.563H30.47V37.5zM7.031 28.125H31.25v1.563H7.031v-1.563zm-3.125 0H5.47v1.563H3.906v-1.563zm3.125-6.25h14.844v1.563H7.031v-1.563zm-3.125 0H5.47v1.563H3.906v-1.563zM11.719 25h10.156v1.563H11.719V25zm-7.813 0h6.25v1.563h-6.25V25zm7.813 6.25H31.25v1.563H11.719V31.25zm-7.813 0h6.25v1.563h-6.25V31.25z" fill="#fff"/></svg>