<svg width="50" height="50" fill="none" xmlns="http://www.w3.org/2000/svg"><path d="M46.875 18.75H35.156v1.563h11.719v26.562H3.125V20.313h11.719V18.75H3.125a1.563 1.563 0 00-1.563 1.563v26.562a1.563 1.563 0 001.563 1.563h43.75a1.563 1.563 0 001.563-1.563V20.313a1.562 1.562 0 00-1.563-1.563z" fill="#fff"/><path d="M26.563 40.625a5.468 5.468 0 105.468-5.469 5.476 5.476 0 00-5.468 5.469zm9.375 0a3.907 3.907 0 11-4.688-3.828v3.828h1.563v-3.828a3.913 3.913 0 013.124 3.828zm-18.75 3.125H25v1.563h-7.813V43.75zm-7.813 0h6.25v1.563h-6.25V43.75zm-4.687 0h3.125v1.563H4.688V43.75zm3.906-2.344V30.47a.781.781 0 00-.781-.782H5.469a.781.781 0 00-.782.782v10.937a.781.781 0 00.782.782h2.343a.781.781 0 00.782-.782zm-1.563-.781H6.25V31.25h.781v9.375zm6.25 1.563a.781.781 0 00.781-.782v-6.25a.781.781 0 00-.78-.781h-2.345a.781.781 0 00-.78.781v6.25a.781.781 0 00.78.782h2.344zm-1.562-6.25h.781v4.687h-.781v-4.688zm7.812 5.468V36.72a.781.781 0 00-.781-.782h-2.344a.781.781 0 00-.781.782v4.687a.781.781 0 00.781.782h2.344a.781.781 0 00.781-.782zm-1.562-.781h-.782V37.5h.782v3.125zM25 38.281a.781.781 0 00-.781-.781h-2.344a.781.781 0 00-.781.781v3.125a.781.781 0 00.781.782h2.344a.781.781 0 00.781-.782v-3.125zm-1.563 2.344h-.78v-1.563h.78v1.563zm21.094-29.687V7.812H42.97v2.344h-7.032v1.563h7.813a.781.781 0 00.781-.781zm-5.468-6.25h9.374V6.25h-9.374V4.687zm0-3.125h1.562v1.562h-1.563V1.562zm3.125 0h6.25v1.562h-6.25V1.562zM39.063 43.75h6.25v1.563h-6.25V43.75zm0-6.25h6.25v1.563h-6.25V37.5zm0 3.125h1.562v1.563h-1.563v-1.563zm3.125 0h3.124v1.563h-3.124v-1.563zm-3.125-6.25h1.562v1.563h-1.563v-1.563zm3.125 0h3.124v1.563h-3.124v-1.563zM7.031 6.25h7.032V4.687H6.25a.781.781 0 00-.781.782v3.125H7.03V6.25zm-5.468 3.906h9.374v1.563H1.563v-1.563zm7.812 3.125h1.563v1.563H9.374V13.28zm-7.812 0h6.25v1.563h-6.25V13.28zM25 14.844a3.906 3.906 0 100-7.812 3.906 3.906 0 000 7.812zm0-6.25a2.344 2.344 0 110 4.687 2.344 2.344 0 010-4.687z" fill="#fff"/><path d="M14.844 21.875a.781.781 0 00-.726.491l-3.125 7.813a.781.781 0 00.726 1.071h5.78a.781.781 0 00.727-.491l1.053-2.634h1.184c-.1.515-.15 1.038-.15 1.563 0 3.417 4.098 6.021 4.273 6.13a.782.782 0 00.828 0c.175-.108 4.273-2.713 4.273-6.13a8.353 8.353 0 00-.15-1.563h1.184l1.053 2.634a.781.781 0 00.726.491h5.781a.78.78 0 00.726-1.071l-3.125-7.813a.78.78 0 00-.726-.49h-1.223c.29-1.547.438-3.116.442-4.688 0-8.482-8.534-15.182-8.897-15.462a.781.781 0 00-.956 0c-.364.28-8.897 6.98-8.897 15.462.003 1.572.151 3.141.442 4.687h-1.223zm2.128 7.813h-4.1l2.5-6.25h1.03a22 22 0 00.403 1.36l-1.098 2.197a.782.782 0 00.699 1.13h1.19l-.624 1.563zm15.358-3.125h-4.375l-.633-2.533a.781.781 0 00-.76-.592h-3.125a.781.781 0 00-.758.592l-.632 2.533h-4.375l3.125-6.25h8.407l3.126 6.25zm-5.987 0h-2.686l.39-1.563h1.905l.39 1.563zm1.782 3.125c0 2.015-2.188 3.834-3.125 4.518-.938-.684-3.125-2.5-3.125-4.518a6.583 6.583 0 01.203-1.563h5.844c.13.51.198 1.035.203 1.563zm6.502-6.25l2.5 6.25h-4.1l-.624-1.563h1.19a.782.782 0 00.704-1.13l-1.099-2.197a22 22 0 00.404-1.36h1.025zM25 3.359c1.766 1.52 7.812 7.212 7.812 13.829a23.744 23.744 0 01-.648 5.547l-1.774-3.553a.782.782 0 00-.703-.432h-9.375a.78.78 0 00-.699.432l-1.777 3.553a23.744 23.744 0 01-.649-5.547c0-6.617 6.046-12.308 7.813-13.829zm18.75 18.516h1.563v1.563H43.75v-1.563zm-3.125 0h1.563v1.563h-1.563v-1.563zm-3.125 0h1.563v1.563H37.5v-1.563zm-32.812 0H6.25v1.563H4.687v-1.563zm3.125 0h1.562v1.563H7.812v-1.563zm3.125 0H12.5v1.563h-1.563v-1.563z" fill="#fff"/></svg>