<svg width="1024" height="1543" viewBox="0 0 1024 1543" fill="none" xmlns="http://www.w3.org/2000/svg">
<g opacity="0.2">
<path d="M698.206 386.435L698.206 386.433C698.192 383.146 697.311 379.921 695.652 377.083C693.993 374.245 691.614 371.895 688.756 370.271C685.898 368.647 682.663 367.805 679.376 367.831C676.089 367.857 672.866 368.751 670.035 370.42L670.032 370.422L-128.811 849.209L-128.813 849.209L-146.272 859.598L-146.273 859.599L-172.5 875.307L-172.5 647.177L-128.44 620.34L-128.44 620.34L654.243 145.016L728.99 99.706L728.99 99.7056L841.687 31.1642L841.689 31.1632L887.393 3.62672L887.393 989.746L698.206 878.645L698.206 386.435Z" stroke="white"/>
<path d="M937.16 7.22755L937.162 7.22828L1119.99 99.8678L1119.99 99.8687L1158.97 119.787L1158.97 1390.18L1132.59 1374.89L1132.34 1375.32L1132.59 1374.89L428.115 966.522L428.115 966.521L326.521 907.772L334.478 902.732L334.482 902.73L487.041 807.795L512.613 822.08L512.614 822.081L624.155 884.706L624.156 884.706L896.594 1038.39L896.595 1038.39C899.404 1039.96 902.568 1040.78 905.786 1040.78C909.004 1040.78 912.168 1039.96 914.977 1038.39L914.981 1038.38C917.807 1036.77 920.158 1034.44 921.799 1031.63C923.439 1028.82 924.309 1025.62 924.323 1022.37L924.323 1022.37L924.612 0.817024L937.16 7.22755Z" stroke="white"/>
<path d="M654.726 652.968L654.724 652.969L624.133 672.45L624.13 672.451L512.443 744.601L512.442 744.601L289.5 887.602L289.499 887.602L287.479 888.901L287.477 888.902L281.731 892.638C281.727 892.64 281.723 892.643 281.718 892.645C278.919 894.235 276.626 896.584 275.103 899.421C273.579 902.258 272.887 905.469 273.109 908.682C273.202 911.858 274.092 914.958 275.696 917.701C277.301 920.446 279.571 922.743 282.297 924.382L282.303 924.386L1098.59 1398.55L1098.61 1398.56L1102.06 1400.71L1102.06 1400.72L1102.07 1400.72L1138.23 1421.62L1117.82 1432.31L1117.82 1432.31L1096.76 1443.13L1096.75 1443.13L905.948 1542.43L739.809 1443.15L739.581 1443.53L739.809 1443.15L663.907 1397.84L-118.343 930.451L-118.345 930.449L-128.877 924.245L-128.879 924.244L-155.432 908.369L-128.877 892.492L-129.124 892.078L-128.876 892.492L661.131 419.209L661.131 648.93L654.726 652.968Z" stroke="white"/>
</g>
</svg>
