<svg width="64" height="64" fill="none" xmlns="http://www.w3.org/2000/svg"><g filter="url(#filter0_d)" fill="#fff"><path d="M38.48 30.99l1.104-1.105-4.135-4.135 4.135-4.135-1.105-1.105-4.687 4.688a.781.781 0 000 1.104l4.687 4.688zm8.916 0l4.688-4.688a.78.78 0 000-1.104l-4.688-4.688-1.105 1.105 4.136 4.135-4.136 4.135 1.105 1.105zm-23.99 9.604h2.344V39.03h-4.688v-1.56h.782v-1.563h-3.907v-2.343h-1.562v3.124a.781.781 0 00.781.782H19.5v2.343a.781.781 0 00.781.782h1.563V44.5a.781.781 0 00.781.781h6.25V43.72h-5.469v-3.125zm0-12.5h2.344V26.53h-4.688v-1.56h.782v-1.563h-3.907v-2.343h-1.562v3.125a.781.781 0 00.781.78H19.5v2.345a.781.781 0 00.781.78h1.563V32a.781.781 0 00.781.781h6.25V31.22h-5.469v-3.125zm-3.125 21.094h1.563v-1.563h-3.907v-2.344h-1.562v3.125a.781.781 0 00.781.782h1.563v2.343a.781.781 0 00.781.782h9.375V50.75h-8.594v-1.563z"/><path d="M54.656 8.563H9.344a.781.781 0 00-.781.78v33.594a2.344 2.344 0 002.343 2.344h2.344v7.813a2.343 2.343 0 002.344 2.343h14.062A2.343 2.343 0 0032 53.094V45.28h21.094a2.344 2.344 0 002.343-2.343V9.343a.781.781 0 00-.78-.781zm-24.218 44.53a.781.781 0 01-.782.782H15.594a.781.781 0 01-.781-.781V20.28a.781.781 0 01.78-.781h14.063a.781.781 0 01.782.781v32.813zm23.437-10.156a.781.781 0 01-.781.782H32V20.28a2.343 2.343 0 00-2.344-2.343H15.594a2.343 2.343 0 00-2.344 2.343v23.44h-2.344a.781.781 0 01-.781-.782V16.375h43.75v26.563zm0-28.124h-43.75v-4.688h43.75v4.688z"/><path d="M33.563 40.594h15.624v1.562H33.563v-1.562zm17.187 0h1.563v1.562H50.75v-1.562zm-17.187-3.125h1.562v1.562h-1.563V37.47zm3.125 0h15.624v1.562H36.688V37.47zm-3.125-3.125h15.624v1.562H33.563v-1.562zm17.187 0h1.563v1.562H50.75v-1.562zM11.688 11.688h1.562v1.562h-1.563v-1.563zm3.125 0h1.562v1.562h-1.563v-1.563zm3.125 0H19.5v1.562h-1.563v-1.563zm21.917 20.049l4.686-12.496 1.463.549-4.686 12.495-1.462-.548z"/></g><defs><filter id="filter0_d" x="-1" y="-1" width="66" height="66" filterUnits="userSpaceOnUse" color-interpolation-filters="sRGB"><feFlood flood-opacity="0" result="BackgroundImageFix"/><feColorMatrix in="SourceAlpha" values="0 0 0 0 0 0 0 0 0 0 0 0 0 0 0 0 0 0 127 0"/><feOffset/><feGaussianBlur stdDeviation="4"/><feColorMatrix values="0 0 0 0 1 0 0 0 0 1 0 0 0 0 1 0 0 0 1 0"/><feBlend in2="BackgroundImageFix" result="effect1_dropShadow"/><feBlend in="SourceGraphic" in2="effect1_dropShadow" result="shape"/></filter></defs></svg>