<svg width="50" height="50" fill="none" xmlns="http://www.w3.org/2000/svg"><path d="M40.625 11.719h-6.25a.781.781 0 00-.781.781v.781h-4.688V12.5a.781.781 0 00-.781-.781h-2.344V8.594h2.344a.781.781 0 00.781-.781V4.688a.781.781 0 00-.781-.782h-6.25a.781.781 0 00-.781.781v3.125a.781.781 0 00.781.782h2.344v3.125h-2.344a.781.781 0 00-.781.781v.781h-4.688V12.5a.781.781 0 00-.781-.781h-6.25a.781.781 0 00-.781.781v3.125a.781.781 0 00.781.781h2.344v3.125H9.375a.781.781 0 00-.781.782v3.125a.781.781 0 00.781.78h6.25a.781.781 0 00.781-.78v-3.125a.781.781 0 00-.781-.782h-2.344v-3.125h2.344a.781.781 0 00.781-.781v-.781h4.688v.781a.781.781 0 00.781.781h6.25a.781.781 0 00.781-.781v-.781h4.688v.781a.781.781 0 00.781.781h2.344v3.125h-2.344a.781.781 0 00-.781.782v3.125a.781.781 0 00.781.78h6.25a.781.781 0 00.781-.78v-3.125a.781.781 0 00-.781-.782h-2.344v-3.125h2.344a.781.781 0 00.781-.781V12.5a.781.781 0 00-.781-.781zm-17.969-6.25h4.688V7.03h-4.688V5.47zm-7.812 17.187h-4.688v-1.562h4.688v1.562zm0-7.812h-4.688V13.28h4.688v1.563zm12.5 0h-4.688V13.28h4.688v1.563zm12.5 7.812h-4.688v-1.562h4.688v1.562zm0-7.812h-4.688V13.28h4.688v1.563z" fill="#fff"/><path d="M46.094 1.563H3.906a2.344 2.344 0 00-2.344 2.343v29.688a.781.781 0 00.782.781h2.344v.781a.781.781 0 00.592.758l1.01.252-.537.893a.781.781 0 00.118.954l2.21 2.21a.782.782 0 00.953.118l.893-.536.253 1.01a.781.781 0 00.758.591h3.124a.781.781 0 00.758-.591l.253-1.01.893.536a.78.78 0 00.954-.118l2.209-2.21a.78.78 0 00.118-.954l-.536-.893 1.01-.252a.781.781 0 00.591-.758v-.781h2.344v11.719a2.344 2.344 0 004.688 0V34.375h2.343v.781a.781.781 0 00.593.758l1.01.252-.537.893a.781.781 0 00.118.954l2.21 2.21a.782.782 0 00.953.118l.893-.536.253 1.01a.781.781 0 00.758.591h3.124a.781.781 0 00.758-.591l.253-1.01.893.536a.78.78 0 00.953-.118l2.21-2.21a.78.78 0 00.118-.954l-.536-.893 1.01-.252a.781.781 0 00.592-.758v-.781h2.343a.781.781 0 00.782-.781V3.906a2.344 2.344 0 00-2.344-2.344zM18.75 34.545l-1.44.36a.78.78 0 00-.481 1.16l.765 1.274-1.344 1.347-1.273-.764a.781.781 0 00-1.16.48l-.365 1.44h-1.904l-.361-1.44a.78.78 0 00-1.16-.48l-1.273.764-1.348-1.343.765-1.274a.781.781 0 00-.48-1.16l-1.441-.364V32.64l1.44-.36a.78.78 0 00.481-1.16l-.765-1.273L8.754 28.5l1.273.764a.781.781 0 001.16-.48l.36-1.441h1.905l.361 1.44a.78.78 0 001.16.48l1.273-.763 1.348 1.347-.765 1.273a.781.781 0 00.48 1.16l1.441.36v1.905zm5.13-4.858L22.027 26.6 25 22.438l2.973 4.162-1.853 3.087h-2.24zm3.464 1.562v1.563h-4.688V31.25h4.688zM25.78 46.094a.781.781 0 11-1.562 0V34.375h1.562v11.719zm17.97-11.548l-1.44.36a.78.78 0 00-.481 1.16l.765 1.274-1.344 1.347-1.273-.764a.781.781 0 00-1.16.48l-.365 1.44h-1.904l-.361-1.44a.78.78 0 00-1.16-.48l-1.273.764-1.348-1.343.765-1.274a.781.781 0 00-.48-1.16l-1.441-.364v-1.905l1.44-.36a.78.78 0 00.481-1.16l-.765-1.273 1.348-1.347 1.273.764a.781.781 0 001.16-.48l.36-1.441h1.905l.361 1.44a.78.78 0 001.16.48l1.273-.763 1.348 1.347-.765 1.273a.781.781 0 00.48 1.16l1.441.36v1.905zm3.125-1.733h-1.563v-.782a.781.781 0 00-.592-.758l-1.01-.252.537-.892a.781.781 0 00-.118-.955l-2.21-2.21a.782.782 0 00-.953-.117l-.893.536-.253-1.01a.781.781 0 00-.758-.592h-3.124a.782.782 0 00-.758.592l-.253 1.01-.893-.536a.78.78 0 00-.953.118l-2.21 2.21a.78.78 0 00-.118.954l.536.892-1.01.252a.781.781 0 00-.591.758v.782h-.782v-2.344a.781.781 0 00-.781-.782h-.183l1.634-2.722a.78.78 0 00-.035-.86l-3.906-5.468a.81.81 0 00-1.27 0l-3.906 5.468a.78.78 0 00-.035.86l1.634 2.723h-.183a.781.781 0 00-.781.78v2.345h-.782v-.782a.781.781 0 00-.592-.758l-1.01-.252.537-.892a.781.781 0 00-.118-.955l-2.21-2.21a.782.782 0 00-.953-.117l-.893.536-.253-1.01a.781.781 0 00-.758-.592h-3.124a.782.782 0 00-.758.592l-.253 1.01-.893-.536a.78.78 0 00-.954.118l-2.209 2.21a.782.782 0 00-.118.954l.536.892-1.01.252a.782.782 0 00-.591.758v.782H3.125V3.905a.781.781 0 01.781-.781h42.188a.781.781 0 01.781.781v28.907z" fill="#fff"/><path d="M37.5 30.469a3.125 3.125 0 100 6.25 3.125 3.125 0 000-6.25zm0 4.687a1.563 1.563 0 110-3.125 1.563 1.563 0 010 3.125zm-25-4.687a3.125 3.125 0 100 6.25 3.125 3.125 0 000-6.25zm0 4.687a1.563 1.563 0 110-3.125 1.563 1.563 0 010 3.125z" fill="#fff"/></svg>