<svg width="50" height="50" fill="none" xmlns="http://www.w3.org/2000/svg"><path d="M46.094 14.063H29.687V3.905a2.344 2.344 0 00-2.343-2.344H3.906a2.344 2.344 0 00-2.344 2.344v42.188a2.343 2.343 0 002.344 2.343h23.438a2.343 2.343 0 002.343-2.343v-.782h16.407a2.343 2.343 0 002.343-2.343V16.406a2.343 2.343 0 00-2.343-2.343zM7.812 3.124h15.625v.781a.781.781 0 01-.78.781H8.593a.781.781 0 01-.781-.78v-.782zm20.313 42.969a.781.781 0 01-.781.781H3.906a.781.781 0 01-.781-.781V3.906a.781.781 0 01.781-.781H6.25v.781A2.344 2.344 0 008.594 6.25h14.062A2.344 2.344 0 0025 3.906v-.781h2.344a.781.781 0 01.781.781v10.156H7.031a2.344 2.344 0 00-2.343 2.344V42.97a2.343 2.343 0 002.343 2.343h21.094v.782zm-11.193-7.566l-.796-1.106a.775.775 0 01.088-1.01l1.442-1.44a.775.775 0 011.003-.087l1.111.798a2.31 2.31 0 002.242.258l.305-.125a2.302 2.302 0 001.435-1.78l.227-1.352a.787.787 0 01.769-.653h2.047a.788.788 0 01.768.653l.226 1.347a2.305 2.305 0 001.437 1.785l.271.11a2.326 2.326 0 002.277-.245l1.107-.794a.775.775 0 011.01.088l1.441 1.44a.773.773 0 01.086 1.004l-.8 1.112a2.32 2.32 0 00-.253 2.246l.123.3a2.307 2.307 0 001.78 1.436l1.353.227a.782.782 0 01.65.768v.242h-5.515a7.032 7.032 0 00-13.97 0h-5.515v-.242a.782.782 0 01.653-.768l1.348-.227a2.309 2.309 0 001.784-1.437l.111-.271a2.336 2.336 0 00-.245-2.277zm14.256 5.222H20.374a5.462 5.462 0 0110.813 0zm15.687-.781a.781.781 0 01-.781.781h-6.25v-.242a2.334 2.334 0 00-1.953-2.31l-1.356-.227a.728.728 0 01-.575-.453l-.138-.338a.749.749 0 01.078-.74l.8-1.111a2.332 2.332 0 00-.257-3.023l-1.433-1.433a2.331 2.331 0 00-3.028-.257l-1.108.795a.768.768 0 01-.774.07l-.304-.124a.729.729 0 01-.455-.58l-.226-1.351a2.336 2.336 0 00-2.31-1.957h-2.047a2.336 2.336 0 00-2.31 1.953l-.228 1.357a.725.725 0 01-.454.575l-.337.138a.75.75 0 01-.74-.083l-1.11-.799a2.33 2.33 0 00-3.022.256L15.123 35.3a2.333 2.333 0 00-.258 3.027l.796 1.107a.767.767 0 01.073.77l-.127.31a.73.73 0 01-.58.455l-1.35.226a2.333 2.333 0 00-1.958 2.313v.242H7.03a.781.781 0 01-.781-.781V16.406a.781.781 0 01.781-.781h39.063a.781.781 0 01.781.781V42.97z" fill="#fff"/><path d="M43.75 34.375h1.563v1.563H43.75v-1.563zm0 3.125h1.563v1.563H43.75V37.5zm0 3.125h1.563v1.563H43.75v-1.563zm-35.937-6.25h1.562v1.563H7.812v-1.563zm0 3.125h1.562v1.563H7.812V37.5zm0 3.125h1.562v1.563H7.812v-1.563zM44.72 22.68l-1.01-.253.537-.892a.782.782 0 00-.118-.954l-2.21-2.21a.78.78 0 00-.953-.118l-.893.536-.253-1.01a.781.781 0 00-.758-.591h-3.124a.78.78 0 00-.758.59l-.253 1.011-.893-.536a.781.781 0 00-.953.118l-2.21 2.21a.78.78 0 00-.118.954l.536.892-1.01.253a.781.781 0 00-.591.758v3.125a.78.78 0 00.592.757l1.01.253-.537.892a.782.782 0 00.118.954l2.21 2.21a.78.78 0 00.953.118l.893-.536.253 1.01a.781.781 0 00.758.592h3.124a.78.78 0 00.758-.592l.253-1.01.893.536a.781.781 0 00.953-.118l2.21-2.21a.78.78 0 00.118-.954l-.536-.892 1.01-.253a.781.781 0 00.592-.758v-3.125a.78.78 0 00-.593-.757zm-.97 3.272l-1.44.36a.781.781 0 00-.481 1.16l.765 1.274-1.344 1.347-1.273-.764a.782.782 0 00-1.16.48l-.365 1.441h-1.904l-.361-1.44a.78.78 0 00-1.16-.481l-1.273.764-1.348-1.343.765-1.273a.782.782 0 00-.48-1.16l-1.441-.365v-1.904l1.44-.36a.781.781 0 00.481-1.16l-.765-1.274 1.348-1.347 1.273.764a.782.782 0 001.16-.48l.36-1.441h1.905l.361 1.44a.78.78 0 001.16.481l1.273-.764 1.348 1.347-.765 1.273a.782.782 0 00.48 1.16l1.441.36v1.905z" fill="#fff"/><path d="M37.5 21.875a3.125 3.125 0 100 6.25 3.125 3.125 0 000-6.25zm0 4.688a1.563 1.563 0 110-3.126 1.563 1.563 0 010 3.125zM22.845 22.68l-1.01-.253.537-.892a.782.782 0 00-.118-.954l-2.21-2.21a.78.78 0 00-.953-.118l-.893.536-.253-1.01a.781.781 0 00-.758-.591h-3.125a.78.78 0 00-.757.59l-.253 1.011-.893-.536a.781.781 0 00-.954.118l-2.209 2.21a.781.781 0 00-.118.954l.536.892-1.01.253a.782.782 0 00-.591.758v3.125a.781.781 0 00.592.757l1.01.253-.537.892a.781.781 0 00.118.954l2.21 2.21a.78.78 0 00.953.118l.893-.536.253 1.01a.781.781 0 00.758.592h3.124a.78.78 0 00.758-.592l.253-1.01.893.536a.781.781 0 00.953-.118l2.21-2.21a.78.78 0 00.118-.954l-.536-.892 1.01-.253a.781.781 0 00.591-.758v-3.125a.78.78 0 00-.592-.757zm-.97 3.272l-1.44.36a.78.78 0 00-.481 1.16l.765 1.274-1.344 1.347-1.273-.764a.782.782 0 00-1.16.48l-.365 1.441h-1.904l-.361-1.44a.78.78 0 00-1.16-.481l-1.273.764-1.348-1.343.765-1.273a.782.782 0 00-.48-1.16l-1.441-.365v-1.904l1.44-.36a.78.78 0 00.481-1.16l-.765-1.274 1.348-1.347 1.273.764a.782.782 0 001.16-.48l.36-1.441h1.905l.361 1.44a.78.78 0 001.16.481l1.273-.764 1.348 1.347-.765 1.273a.782.782 0 00.48 1.16l1.441.36v1.905z" fill="#fff"/><path d="M15.625 21.875a3.125 3.125 0 100 6.25 3.125 3.125 0 000-6.25zm0 4.688a1.563 1.563 0 110-3.126 1.563 1.563 0 010 3.125zM7.813 10.938H18.75V12.5H7.812v-1.563zm-3.125 0H6.25V12.5H4.687v-1.563zm9.375-3.125h9.374v1.562h-9.375V7.812zm-9.375 0H12.5v1.562H4.687V7.812zm20.312 0h1.563v1.562H25V7.812zm-4.687 3.125h6.25V12.5h-6.25v-1.563z" fill="#fff"/></svg>