<svg width="42" height="42" fill="none" xmlns="http://www.w3.org/2000/svg"><path d="M42 23.367a3.076 3.076 0 00-3.072-3.073c-.82 0-1.592.32-2.173.9l-2.884 2.885V0h-26.7L0 7.171V42h33.871v-9.231l7.23-7.23A3.05 3.05 0 0042 23.367zm-16.599 11.77l1.763 1.763-2.467.72.704-2.483zm3.05 1.134l-.734-.735 9.671-9.672.736.736-9.672 9.671zm-1.693-1.693l-.736-.736 9.673-9.672.736.736-9.673 9.672zM6.774 2.313v4.461H2.313l4.461-4.461zm25.742 38.332H1.355V8.13h6.774V1.355h24.387v24.079l-8.055 8.054-1.738 6.118 6.085-1.774 3.708-3.708v6.521zm7.626-16.063l-1.06 1.06-2.429-2.43 1.06-1.06a1.707 1.707 0 011.215-.503 1.72 1.72 0 011.214 2.933z" fill="#fff"/><path d="M13.724 27.996l-2.915 3.207a4.728 4.728 0 00-3.358-1.396 4.748 4.748 0 00-4.742 4.741 4.748 4.748 0 004.742 4.742 4.748 4.748 0 004.742-4.742c0-.808-.203-1.568-.562-2.235l3.096-3.406-1.003-.911zm-2.886 6.552a3.391 3.391 0 01-3.387 3.387 3.391 3.391 0 01-3.387-3.387 3.391 3.391 0 013.387-3.387c.96 0 1.824.406 2.441 1.05l-2.55 2.806-1.547-1.032-.751 1.128L7.56 36.79l3.069-3.375c.127.355.208.733.208 1.132zm-.029-15.538a4.728 4.728 0 00-3.358-1.397 4.748 4.748 0 00-4.742 4.742 4.748 4.748 0 004.742 4.742 4.748 4.748 0 004.742-4.742c0-.808-.203-1.569-.562-2.236l3.096-3.405-1.003-.912-2.915 3.208zm.03 3.345a3.391 3.391 0 01-3.388 3.387 3.391 3.391 0 01-3.387-3.387 3.391 3.391 0 013.387-3.387c.96 0 1.824.406 2.441 1.05l-2.55 2.805-1.547-1.031-.751 1.127 2.517 1.679 3.069-3.376c.127.356.208.733.208 1.133zm18.968-.678h1.355v1.355h-1.355v-1.355zm-14.904 0h13.549v1.355H14.903v-1.355zm0-2.709h16.258v1.355H14.903v-1.355zm0 5.419h16.258v1.355H14.903v-1.355zm0 9.484h7.452v1.355h-7.452V33.87zm0 2.709h7.452v1.355h-7.452v-1.354zm0-5.419h7.452v1.355h-7.452v-1.355zm-2.032-16.258h14.903a3.391 3.391 0 003.387-3.387v-5.42a3.391 3.391 0 00-3.387-3.386H12.871a3.391 3.391 0 00-3.387 3.387v5.42a3.391 3.391 0 003.387 3.386zm-2.032-8.806c0-1.12.912-2.032 2.032-2.032h14.903c1.12 0 2.032.911 2.032 2.032v5.42c0 1.12-.912 2.031-2.032 2.031H12.871a2.035 2.035 0 01-2.032-2.032v-5.42z" fill="#fff"/><path d="M28.452 6.774h-4.065v4.065h4.065V6.774zm-1.355 2.71h-1.355V8.129h1.355v1.355zm-4.742-2.71h-4.064v4.065h4.064V6.774zM21 9.484h-1.355V8.129H21v1.355zm-4.742-2.71h-4.065v4.065h4.065V6.774zm-1.355 2.71h-1.355V8.129h1.355v1.355z" fill="#fff"/></svg>