<svg width="256" height="64" fill="none" xmlns="http://www.w3.org/2000/svg"><path d="M4.772 0v39.543L6.947 35.9V2.175H27.09l.998-1.662L28.39 0H4.772zm40.866 0l1.33 2.175h20.135v33.15l2.175 3.588V0h-23.64zm28.295 50.965H26.514l5.361-9.13h23.64a.872.872 0 00.748-1.316L33.281 2.175l-.498-.838-.776-1.295h11.006l1.295 2.126 22.816 37.569 2.175 3.588 3.29 5.41 1.344 2.23z" fill="#fff"/><path d="M74.064 52.703l-.325.637-4.447 8.776L68.329 64H7.294l.754-1.302L27.65 28.883l2.84-4.91.263.415 4.565 7.335-.693 1.24-3.006 5.354-7.377 13.077a.88.88 0 000 .859.866.866 0 00.748.436l49.074.014z" fill="#fff"/><path d="M53.984 40.104H42.902l-.2-.319-.936-1.468-3.463-5.361-6.864-10.701-.062-.097-.18-.277a.796.796 0 00-.748-.402.887.887 0 00-.735.43L6.954 61.09l-.104.166-1.025 1.773-.533-1.018L4.772 61 0 51.83l4.772-7.987L6.947 40.2 29.382 2.653l.298-.506.782-1.309.783 1.31 22.74 37.956zM88.97 23.98v6.413h9.627V23.98h3.207v16.042h-3.207v-6.414H88.97v6.414h-3.207V23.979h3.207zm19.248 0v16.04h-3.179V23.98h3.179zm19.249 16.04h-16.042V23.98h16.042v3.206h-12.828v9.62h9.621V33.6h-3.207v-3.207h6.414v9.628zm6.414-16.04v6.413h9.62V23.98h3.207v16.042h-3.207v-6.414h-9.62v6.414h-3.214V23.979h3.214zm16.041 0h16.069v3.206h-6.441v12.835h-3.207V27.186h-6.421V23.98zm35.29 0v3.206h-16.041V23.98h16.041zm-16.041 6.413h16.041V33.6h-12.835v3.207h12.835v3.207h-16.041v-9.62zm19.248-6.413h16.042v3.206h-12.842v9.62h12.835v3.208h-16.035V23.979zm22.455 0v6.413h9.628V23.98h3.207v16.042h-3.207v-6.414h-9.628v6.414h-3.207V23.979h3.207zm16.07 16.04v-3.206h3.207v3.207h-3.207zm9.593-16.04v16.04h-3.207V23.98h3.207zm3.207 0h16.041v3.206h-6.414v12.835h-3.206V27.186h-6.414l-.007-3.207z" fill="#fff"/></svg>